<mxfile host="65bd71144e">
    <diagram id="eDup13IDp5qHFDGxt5wT" name="PÃ¡gina-1">
        <mxGraphModel dx="4294" dy="4302" grid="1" gridSize="10" guides="1" tooltips="1" connect="1" arrows="1" fold="1" page="1" pageScale="1" pageWidth="827" pageHeight="1169" math="0" shadow="0">
            <root>
                <mxCell id="0"/>
                <mxCell id="1" parent="0"/>
                <mxCell id="2" value="" style="shape=image;verticalLabelPosition=bottom;labelBackgroundColor=default;verticalAlign=top;aspect=fixed;imageAspect=0;image=data:image/png,iVBORw0KGgoAAAANSUhEUgAAAz0AAABiCAYAAAB6WL3KAAAAAXNSR0IArs4c6QAAAARnQU1BAACxjwv8YQUAAAAJcEhZcwAACxMAAAsTAQCanBgAADETSURBVHhe7Z1NzLbrVZbfjUQ00hpjMBGqA9FAwUQdUEo0MRZoohMKDIXujvmbAmVo+BtpaMEp4WekUKIDE/4caEwDA42KGwaOLEyIAzYxkcT0cx3rWud61n099/P+7O7d0mefR3K/11rnOte6rufn/frc7/t9u6+9Ch6MMcYYY4wx5k75klqNMcYYY4wx5i7xTY8xxhhjjDHmrvFNjzHGGGOMMeau8U2PMcYYY4wx5q7xTY8xxhhjjDHmrvFNjzHGGGOMMeau8U2PMcYYY4wx5q7xTY8xxhhjjDHmrvFNjzHGGGOMMeau8U2PMcYYY4wx5q7xTY8xxhhjjDHmrvFNjzHGGGOMMeau8U2PMcYYY4wx5q7xTY8xxhhjjDHmrvFNjzHGGGOMMeau8U2PMcYYY4wx5q7xTY8xxhhjjDHmrvFNjzHGGGOMMeau8U2PMcYYY4wx5q7xTY8xxhhjjDHmrvFNjzHGGGOMMeau8U2PMcYYY4wx5q7xTY8xxhhjjDHmrvFNjzHGGGOMMeau8U2PMcYYY4wx5q7xTY8xxhhjjDHmrvFNjzHGGGOMMeau8U2PMcYYY4wx5q7xTY8xxhhjjDHmrvFNjzHGGGOMMeau8U2PMcaYU/74j//44Q/+4A8qM8YYY754ee1VULExxrzr+d3f/d38sP8Y73nPex6+9mu/trL75Ud+5EcefuVXfuXhe77nex6+93u/t9S3Bz3PPI88n+bdC+8Drq/8yq8sxRhj3n5802PMFwB94PuGb/iGUo48VTfvHN/6rd/65G83eF1+9md/trL7hOfg9ddfz5udn/iJn3j4tV/7tbf15kTP86/+6q8+fNVXfVWphu99LuD5/sAHPvDi5139n68bc17H3//933/0zzO4dR5urn/rt34r32PGGPNO4ZseY74AfOxjH3v47d/+7Yff+Z3fKeXIU3XzzrHf8PDBnw/lP/ZjP1bK4t5/Kv0DP/ADDx/60IcePvKRjzz85E/+5MOXf/mXv62/7fnN3/zNhzfffPPhm7/5m/2bnoAfcnz/939/ft/vvPQ3bdxQ8p79fN2Y6zeC7Hd248N5uHn70R/90VIu8P1G3Te/xph3Gv+bHmOMGXAzMy9xS79XfuiHfihveOAHf/AHH779278947cL3VD5hmfBb9O44eF5//SnP50/8PilX/qlvNn5jd/4jXL96Yabtv2HBk/x0z/90/kYfcNjjHmn8U2PMTf4X2/+34eP/Ov/9vA3/+WnH/7Kv/iPD6//2zdC+5OqmnczfDjlt3F8GGX9pm/6pvxJNz+t50Pcd37nd6bGxU/B0QU5H3B//ud/Pn/C/fVf//U5Y35Y1BzVmcd8sc9gn1szXnKWD3/4w1V5ePjUpz512P+NN96oyvnjp5f9JuzF/HlGPQ72JBfM5Dy3HvO9w2PlRvC7v/u7+0aQvw7Gb3l++Zd/OfM/7XDuj3/845U9D254eIzGGPNO45seY07ghucf/eJ/efhPn/mjhzf/5P+l9u/+5/9++NAv/ucv2I2PPmjy4ZEPhHxAnB9y+dBEnb8/zzo/TKv37AM2zA+vzN4/vJoj/PsFnlM+0AMf2vhrPTz3vA78lS3+Kg+/IeGvcc3nk3+7wAd+fHzg4yf7v/d7v5fPv2Cu6vyVIT4Ik4t9Bvtzpu/4ju/o1/bWWXRmYA6vPefDhwd0I/TRj340f9vAb2T46248ZtDjR+OvLdHHB/Sf+ZmfOfxWQjcu/JYIDz/NV53zaR6gM1ePmXm8x6fnnnnve997uCF9DF6v59wc6mZWN5zz+57nFU0rHj3XU2M+74fnnI2/AkrvfI/dQmfjYo+f+7mfq8qCs/Kbo3n+W4/TGGOeBf+mxxhz5KP/5n+8+op//h9Or4/8q/9arrfO66+//urrvu7rXn3qU586veLDa9YFGjl9xPEB4dUHP/jBV/GB4NWbb76Znk9+8pPtoS4Ps77lW77loOERmv3jP/7jr+JDcOb4mWde5XMxny/Qc/bxj3+8lNvg4XUSzPvGb/zGV5/5zGdKeZXPPfOk8Zrte+p1BmZMP/Da6XW8xdlZ9jlx45Eaj3ESH0Bffd/3fV/G8z0jOB+anhN59jkCH3UxH5/Y97hn4kYhH6++x994442qHNF7hRWfnsf5/arXlfcRHr7v9b7j9QW9Pvx5wOuKh/eBXn/mcwbeV/TqtT9jvpbMIf71X//1zIF+vS/g1mMgF7xP6Yub4TwDz89jZzDGmKfwb3qMOYHf6tziv//h/6noc4efZJ9d+q8dCX4qyr8j4Sfg/NSdn/z/1E/9VP5kPD40lGtBTRd/XYZZ/AR2avqJLvDTeWbyGwd+W0HMT/jZ0zzO2T/a5vnmueOn8byWPNe8ThN+izH/DcP+71r0GvGTbmYR7x72njPIeY/MvZ5zFmbMOfz2B/DSp4v/6AC/kZrw2yGxn0/v4el5DPrZk/PymwLOC8/97ccXO/wmjN9y8frw2PntB7/hINZvaFh5fvT9yspv8Vj5Pt6fK/6MoMb3PX8GUI+bkqouqH3iE5/IlfdB3IDk+4j5vE95X9HLbwmf81owh5557sljjwFde/A8oPG9wDyeH85pjDFvFd/0GHPCe7/sSyu65o/qr7u9HfCPlc8u/kd+wgdI/hrRhA8ksH8QlQ76B/dTm/DBQtf8gMt+fPhAN8+Hv37Dh1X9FS7diLwUPvzyQZC/8sRM/moP/2bmOR865flcz3J2k/Vd3/VdlT3Nc8464azc5PGe48P3/j3wboC/psh/tpn/khkf8PnAr9ef51M3ktwMTPRc6YYV0J66KYb9eebGk/fd/PNg/pXE58DZef/weu5ofx7bRDfH8/3KTRA3TzwHZzdQxhjzEnzTY8wJf/sr/kJF1/yTr/7LFX1h2T+UPsZT3r3OhyM+gPHhxzwfPpzxQZPfyHHjwofTt/oc6ifg/Jsa5vFhUR8IQTemgg+FXPqg+1bPon7eA/TNi98APhfdaD/ngzKPDR+/JeCn/6z7Tf67CV4Dbgp4/bn02vPbNtAq9Lo+5/V96c0o8OcDfx4896YZPzc+vKb7v+/R/vs59GeQVt63vBfwcfPDv+15zr8VMsaYW/imx5gTPvHhv3X62x60f/YP/0Zlnz/OfkLLT2Rh/0ntS+DDlT4o7R9wufabIfM4PJ98INUHfW485k/fn4t+us0HPi7N0A2J4K8isReXfqrOh1PgpoP3jN4nzJs3Tbfg/cT1C7/wC9nDjRTz+Yn//lejHoObLN63PBbOoL/WxJwd3oNc/BUqfDzmT37yk1V9d6DX6RZ8L77//e/PWO8vodd13pTgmTcW+03xLXjfsNfZnwdP9U6Yw00Lrzn7iq/5mq/J9dafZ3MP3kP8FT1u/PVXbvc+Y4x5Lr7pMeaEv/beP/fw7//p3334x/VbHW52/v77/mJofy9qX5ba5xP+B58PBXxg5MMMMR8m+ZDzudz0AB+S9V8YY7Y+nDLfvAyeSz7s8Ve1+C9rcdPwVn5jwQ0AP9X+4Ac/mBevBx8g52vNPu973/tyLy4+DOLRh0Z+W8JfGeKvRuksz32v8NsFvLwH+Ak783nPveRDLx+c+Wk9K2dgDu+xs99G4GFPbhjx8Zh5bO8WuDnhOeLitea55kaG54v/Y1i+z3ktuWHgdcGjG1J8xNwg7K/PYzfFt2DO/LNGe/AeeCl6D0444/4Y2I+c327xvgbe/+i68dfNztn7xxhjnsNr/NcMKjbGfJ7gww3/g86/3znjrM4/VOY/WqCfmvLBgQ+5+pDAhxQ88//ZXNqco98iPDZbP+nlQ4t5OfqgNn/y/lbQ67HP4caA15ibiqf2+lzPwhl4P3C9VV5yhrdjvy9G+J7k4vte8Bzw/c0Nob6n+fDP9ytewY0KfxboOdP7gxtu/gwAavN7mn7+LOA9tN8MU6Nv/nnAD15u3TCd/ZkieN35T6lzFh6HNG5q5mPg5og6e53V0X/4h3/44du+7dtKMcaYl+GbHmO+yHgnPxTe+pBt/nQxb3rM/TFvNm59n+tG8qk/C+R7K9/T7/SfB895DP4zyRjzduGbHmOM+SKD3wTyIdH/CV9jjDHmefimxxhjjDHGGHPX+D9kYIwxxhhjjLlrfNNjjDHGGGOMuWt802OMMcYYY4y5a3zTY4wxxhhjjLlrfNNjjDHGGGOMuWt802OMMcYYY4y5a3zTY4wxxhhjjLlrfNNjjDHGGGOMuWt802OMMcYYY4y5a3zTY4wxxhhjjLlrfNNjjDHGGGOMuWt802OMMcYYY4y5a3zTY4wxxhhjjLlrfNNjjDHGGGOMuWt802OMMcYYY4y5a3zTY4wxxhhjjLlrfNNjjDHGGGOMuWt802OMMcYYY4y5a3zTY4wxxhhjjLlrfNNjjDHGGGOMuWt802OMMcYYY4y5a3zTY4wxxhhjjLlrfNNjjDHGGGOMuWt802OMMcYYY4y5a3zTY4wxxhhjjLlrfNNjjDHGGGOMuWt802OMMcYYY4y5a3zTY4wxxhhjjLlrfNNjjDHGGGOMuWt802OMMcYYY4y5a3zTY4wxxhhjjLlrfNNjjDHGGGOMuWtei+tDtT689tprr1hfvXqVOSFfQicnfi1q6cOjFU+BuILwAXnFOaOayDW7vQFl8inMfuWzV2drb6x5MCT0IOOL3GfR7O7dYxiNCrVnrwE9auozBfMMMGtXewVd12bEJ6i8z5/krG2O/IB2OE9xc2aM4rzdUzlhx7sHZo00rkgv5biu3jvBEtac9GR20Xd239yX/WJZm5CkYcwqT2XJYVZAe+4xfdXX3jRdDPt5sjeWPMPmnb373tkDZVf9sOKJ+hhzhEIs6a+6eqktYT2WDPmy9+DDoxVPkftnUHuTV5wzqolcs9sbUCafwuxXPnt1tvbGmgdDQg8yvsiH54q8e/cYRqNC7dlrQI+a+kzBPAPM2tVeQde1GfEJKu/zJzlrmyM/oB3OU9ycGaM4b/dUTtjx7oFZI40r0ks5rqv3TrCENSc9mV30nd0392W/WNYmJGkYs8pTWXKYFdCee0xf9bU3TRfDfp7sjSXPsHln77539kDZVT+seKI+xhyhEEv6q65eaktYjyVDvuw9+PBoxVPk/hnU3uQV54xqItfs9gaUyacw+5XPXp2tvbHmwZDQg4wv8uG5Iu/ePYbRqFB79hrQo6Y+UzDPALN2tVfQdW1GfILK+/xJztrmyA9oh/MUN2fGKM7bPZUTdrx7YNZI44r0Uo7r6r0TLGHNSU9mF31n98192S+WtQlJGsas8lSWHGYFtOce01d97U3TxbCfJ3tjyTNs3tm77509UHbVDyueqI8xRyjEkv6qq5faEtZjyZAvew8+PFrxFLl/BrU3ecU5o5rINbu9AWXyKcx+5bNXZ2tvrHkwJPQgY8mI/yDlhUxJmTS0hwdj7kFPVIwlc3zEY72aSQ9x1UD1U8KOV2v6mIFW7PMP+44+nTNjtKqliUImY9ag++Uvb7LnheS5ZqGsh3lLvh45avNcis809cChD5mZK7wcuezzMcy509xza22YEZZDH9zQGZmHqyTPta+U4iLo/uHZa4fzB6RZW9ZDXfTcIsfKxowMqrdqeEh7E3mG3jOKrBGMeh4KKa6sbz1nHB4P8d5TszNMITiZ3TWoes4jrRWi1L1TT1SMJXN8xGO9mkkPcdVA9VPCjldr+piBVuzzD/uOvv15Uy1NFDIZswbdL395kz0vJM81C2U9zFvy9chRm+dSfKapBw59yMxc4eXIZZ+PYc6d5p5ba8OMsBz64IbOyDxcJXmufaUUF0H3D89eO5w/IM3asvr7f9A1qHrOI60VotS9U09UjCVzfMRjvZpJD3HVQPVTwo5Xa/qYgVbs8w/7jr79eVMtTRQyGbMG3S9/eZM9LyTPNQtlPcxb8vXIUZvnUnymqQcOfcjMXOHlyGWfj2HOneaeW2vDjLAc+uCGzsg8XCV5rn2lFBdB9w/PXjucPyDN2rL6+3/QNah6ziOtFaLUvVNPVIwlc3zEY72aSQ9x1UD1U8KOV2v6mIFW7PN7X3wfqOY8VBn60LPGSplaGouq9wZnaIZiqFwH6brYNeWz/6m+iCN8xV/jO5puMGfDmBXh5Q1aQi5skEKRxqHt+YQZKsk3NbFrW1+uI7+5n9jnvYTa73BWaXEhE0+ifDnS7Nk1wrhuHSxrsy+40rZ65oCmGCrnYJmmWGiG1slq6W/Ox5Dn1uw8e8Xah8eiMzVILHHhx6InNLW4kpD7vHsMe21fq7Ye4ImHMrU0FlU/nGNHMxRD5dk362LXlM/+p/oijtDf/zv7vJdQ+x3OKi0uZOJJlC9Hmj27RhjXrYNlbfYFV9pWzxzQFEPlHCzTFAvN0DpZLf7+F1U/nGNHMxRD5dk362LXlM/+p/oijtDf/zv7vJdQ+x3OKi0uZOJJlC9Hmj27RhjXrYNlbfYFV9pWzxzQFEPlHCzTFAvN0DpZLf7+F1U/nGNHMxRD5dk362LXlM/+p/oijvD4/U/338lgDKyGNfn2A+l69OTBq48ZWUPQvN2zcbXX7Kue/DLyBoml/Nok9xurqBF57FxDkw/kvaorr1V7ZQEPtfJCyZfZ2bTiy5Biz4OWFMSi/VhzpkrZcdk7PSzlz33TWDPI41rBUROalb7pYd4+I0idNS7Vr6g56uvZQE/Vd1/rxWqo3k1XEqWs9T6pFhSpaUWKq+dNvbTsL50wmTWoXOcjV62ftA3tq7l86fOiE89WpMjlqdZVH0nPZVU9mLMpEHY8NHzQjRtd3/eoPAXN2z0bV3vNvurJLyNvkFjKr01yv7GKGqGn/PBeBHmv6spr1V5ZwEOtvFDyZXY2rfgypNjzoCUFsWg/1pypUnZc9k4PS/lz3zTWDPK4VnDUhGalb3qYt88IUmeNS/Urao76ejbQU/Xd13qxGqp305VEKWu9T6oFRWpakeLqeVMvLftLJ0xmDSrX+chV6ydtQ/tqLl/6vOjEsxUpcnmqddVH0nNZVQ/mbAqEHQ8NH3TjRtf3PSpPQfN2z8bVXrOvevLLyBsklvJrk9xvrKJG6Ck/vBdB3qu68lq1VxbwUCsvlHyZnU0rvgwp9jxoSUEs2o81Z6qUHZe908NS/tw3jTWDPK4VHDWhWembHubtM4LUWeNS/Yqao76eDfRUffe1XqyG6t10JVHKWu+TakGRmlakuHre1EvL/tIJk1mDynU+ctX6SdvQvprLlz4vOvFsRYpcnmpd9ZH0XFbVgzmbAmHHQ8MH3bjR9X2PylPQvN2zcbXX7Kue/DLyBoml/Nok9xuryIO8f8WXYjUSnlH7rjpeiPwwXDNkrnx6KH2WFd+O/EEX8SEQLqXRga5qNaeyxZlWaMZND/vXXu2RVnn2B2reHzPWjOPKHkCbsdg1cnmnbxClrM1i71Xynu8wIwvMyWTsOXJ5WBJ5ROXVsvTdc8YtTw0i7PNv3nxsGYQOqk3f1iPv5ZCB+iezB8YevS+EnrNYIyVchUC1Sq+gzFKWfe7VGUAzZ13x3jP0eY7eZ/dvHNrwQuSn55S58umh5O//6AG0GYtdI5d3+gZRytos9l4l7/kOM7LAnEzGniOXhyWRR1ReLUvfPWfc8tQgwj7/5s3HlkHooNr0bT3yXg4ZqH8ye2Ds0ftC6DmLNVLCVQhUq/QKyixl2edenQE0c9YV7z1Dn+fofXb/xqENL0R+ek6ZK58eSv7+jx5Am7HYNXJ5p28QpazNYu9V8p7vMCMLzMlk7DlyeVgSeUTl1bL03XPGLU8NIuzzb958bBmEDqpN39Yj7+WQgfonswfGHr0vhJ6zWCMlXIVAtUqvoMxSln3u1RlAM2dd8d4z9HmO3mf3bxza8ELkp+eUufLpofSF+f6P66trPRxszV4bCTZk+O6TZ8RZ06q+LPSIS4BeZdU1S3MepbwzjuXyDUlcs1JH2+h9oq4eUjhtuIGa5O/9NC9iNNbeT5RvHXZbo9yz0ViX3M9x9gvlQ08fwc4at/YnJZQGoUfajyPr5T3b59msUWvfvT/ySPM1m+TeK0zC1n9A5BrXzUOc7ZcDVm8zfQPNzuJJW888gW2onRaLtenl/DPXnjlD+9TKbGQsyZUQ4GWJi1KuCEXmeFQrf+4jNHf3yTNizZenz1MhUgfoVVZdszTnUco741j8/U8+9PQR7Kxxa39SQmkQeqT9OLJe3rN9ns0atfbd+yOPNF+zSe69wiRs/v4PkLEkV0KAlyUuSrkiFJnjUa38uY/Q3N0nz4g1X54+T4VIHaBXWXXN0pxHKe+MY/H3P/nQ00ews8at/UkJpUHokfbjyHp5z/Z5NmvU2nfvjzzSfM0mufcKk7D5+z9AxpJcCQFelrgo5YpQZI5HtfLnPkJzd588I9Z8efo8FSJ1gF5l1TVLcx6lvDOO5fb3P1/+uoosqdYAWGk2JJH3BsHh0FvtKhehh5z6YW6AHuGS1Vv+9gp8w3Plf6TeMey5GPr+vHAWtKuZrAMd5Gx+zqirm8rb+531blpaY6Utc748gfbUypCMa8Z68ooaPM94tVfZ0bO16tIb9Fk/I+q535wRcWrqZSUvHfrMF+lCldQ7+x5l9r0E+mqvbIx4HfiyN9cafuFMS6qN9szXiJv0+6foufTP3m3e3tf7Vrr3H57zrXaVi9BDTv0wN0CP8HAm+dsr8A3Plf+Resew52Lo+/PCWdCuZrIOdJCz+Tmjrm4qb+931rtpaY2Vtsz58gTaUytDMq4Z68kravA849VeZUfP1qpLb9Bn/Yyo535zRsSpqZeVvHToM1+kC1VS7+x7lNn3EuirvbIx4nXgy95ca/iFMy2pNtozXyNu0u+foufSP3u3eXtf71vp3n94zrfaVS5CDzn1w9wAPcLDmeRvr8A3PFf+R+odw56Loe/PC2dBu5rJOtBBzubnjLq6qby931nvpqU1Vtoy58sTaE+tDMm4Zqwnr6jB84xXe5UdPVurLr1Bn/Uzop77zRkRp6ZeVvLSoc98kS5USb2z71Fm30ugr/bKxojXgS97c63hF860pNpoz3yNuEm/f4qeS//s3ebtfb1vpXv/4Tnfale5CD3k1A9zA/QID2eSv70C3/Bc+W/W4/qrGQWz8BjyDT87fEnEh+Zb82Z/kG03+pH6wZ7Nm7Nq7WcUZj2gdPrkFRdT9e3U+Ksz3fKfMXsCzaO554rw6BWc8+WVju3wuEE9rLCVD8hb8elzGPDlcMbZB9XKiMxnDeSfPgJKy7EeVwZrBsb8NWh5szfy/MdpleNTreMd9U/O/KX1c3DSd3mAgWqPzBKMbEFztYqZTw9pxDL2a1/5zTlTP5nT7P23OJnLWfz9f+I/Y/YEmkdzzxXhWRse58vb7wH5slqohxW28gF5Kz59DgO+HM44+6BaGZH5rIH800dAaTnW48pgzcDo7/81Z74u/dpXfnPO1E/mNHv/LU7mchZ//5/4z5g9gebR3HNFeNaGx/ny9ntAvqwW6mGFrXxA3opPn8OAL4czzj6oVkZkPmsg//QRUFqO9bgyWDMw+vt/zZmvS7/2ld+cM/WTOc3ef4uTuZzli+b7n+grrn29mZ5Y6ay7V/X0ZrA2YUjm05PChbKlTMyqHPIMrPhSiXgairXxmH8yLCVSZo0R6OTaq3uh/IcVOa70Dy1R79AUZCn0zvNL7X1py7L2J1EtZw6/1kvTxdc6QZWzjpbJtscK05P1sqGvgGaSSz+0nNlCvlzIy3PYG22M2vtnDvi7dx5hzOl6aYc8IM8njRUhkAekiayN+VmPnBH7GWfOfsRzr37BypALackpDNYLGGt5ZtznCdCyRs46vBkSjBp5+yvXGUJK0Mlnj3TW3at6ejNYM/PxwfSkcKFsKROzKod5VomHwxZr4zH/ZFhKpMwaI9DJtVf3QvkPK3Jc6R9aot6hKchS6J3nl9r70pZl7U+iWs4cfq2XpouvdYIqZx0tk22PFaYn62VDXwHNJJd+aDmzhXy5kJfnsDfaGLX3zxzwd+88wpjT9dIOeUCeTxorQiAPSBNZG/OzHjkj9jPOnP2I5179gpUhF9KSUxisFzDW8sy4zxOgZY2cdXgzJBg18vZXrjOElKCTzx7prLtX9fRmsGbm44PpSeFC2VImZlUO86wSD4ct1sZj/smwlEiZNUagk2uv7oXyH1bkuNI/tES9Q1OQpdA7zy+196Uty9qfRLWcOfxaL00XX+sEVc46WibbHitMT9bLhr4Cmkku/dByZgv5ciEvz2FvtDFq75854O/eeYQxp+ulHfKAPJ80VoRAHpAmsjbmZz1yRuxnnDn7Ec+9+gUrQy6kJacwWC9grOWZcZ8nQMsaOevwZkgwauTtr1xnCClBJ5890ll3r+rpzWDNzMcH05PChbKlTMyqHOZZJR4OW6yNx/yTYSmREvwlFSQSxjUHoB8G00hfrVkYUuYkpc+DZhEPUq3Uek/5x6pzya9SasEhlydCHSZrZUpPQNB7grwrW1Rf7yktkDf1TTuKQempka4l1/QUU6MHNGOeQXPm48HTSem9L2vUpYsacXxtg86rJ/PR33tPjS/BYU+EoOyH1+Axf6P5taZHca3qlSdnVJwrKToNVU6GX/2VZnxJKiUISWfI9WJZIJcn4yA9+AlqTZ246pqJfuiXly/F9OaXHHDxRtiPS6CRH/bGo7VMPQMPAZSeewXy7o8HTVLmJKX3HqT5pfaqlVrvKf9YdS75VUotOOTyRKjDZK1M6QkIek+Qd2WL6us9pQXypr5pRzEoPTXSteSanmJq9IBmzDNoznw8eDopvfdljbp0USOOr23QefVkPvp776nxJTjsiRCU/fAaPOZvNL/W9CiuVb3y5IyKcyVFp6HKyfCrv9KML0mlBCHpDLleLAvk8mQcpAc/Qa2pE1ddM9EP/fLypZje/JIDLt4I+3EJNPLD3ni0lqln4CGA0nOvQN798aBJypyk9N6DNL/UXrVS6z3lH6vOJb9KqQWHXJ4IdZislSk9AUHvCfKubFF9vae0QN7UN+0oBqWnRrqWXNNTTI0e0Ix5Bs2ZjwdPJ6X3vqxRly5qxPG1DTqvnsxHf+89Nb4Ehz0RgrIfXoPH/I3m15oexbWqV56cUXGupOg0VDkZfvVXmvElqZQgJJ0h14tlgVyejIP04CeoNXXiqmsm+qFfXr4U05tfcsDFG2E/LoFGftgbj9Yy9Qw8BFB67hXIuz8eNEmZk5Tee5Dml9qrVmq9p/xj1bnkVym14JDLE6EOk7Uy5fqeVBbk6SAomS/rURxjaF/1pah4ajurrWuHmXFF+dB7tk9+kS6ow65Vbyz94jWjnvneKzQjQsScVXXFrOT4ukBKfAa26mnf0JI9D255U0fLpPTyXPXIJ4aGvb0lPBXnfHKBXvXeW/VRy7z09o2eKPVzy0q5/VVIP3VEPFVvpkY86L5izrya81ZY4y6PISQSZvd5IfJcJyc1gu5DL0/q8s1arbFcHmfpfaiLfNDRer9gxnD6XCme2s5q69phZlxRPvSe7ZNfpAvqsGvVG8vhtU5GPfO9V2hGhIg5q+qKWcnxdYGU+Axs1dO+oSV7Htzypo6WSenlueqRTwwNe3tLeCrO+eQCveq9t+qjlnnp7Rs9UernlpVy+6uQfuqIeKreTI140H3FnHk1562wxl0eQ0gkzO7zQuS5Tk5qBN2HXp7U5Zu1WmO5PM7S+1AX+aCj9X7BjOH0uVI8tZ3V1rXDzLiifOg92ye/SBfUYdeqN5bDa52MeuZ7r9CMCBFzVtUVs5Lj6wIp8RnYqqd9Q0v2PLjlTR0tk9LLc9Ujnxga9vaW8FSc88kFetV7b9VHLfPS2zd6otTPLSvl9lch/dQR8VS9mRrxoPuKOfNqzlthjbs8hpBImN3nhchznZzUCLoPvTypyzdrtcZyeZyl96Eu8kFH6/2CGcPpc6V4ajurrWuHmXFF+dB7tk9+kS6ow65VbywxKrQ/v0oNGptgzDjF6iAmjas9ta7K0uXNE4y6ZuWCVvEqrv2SGhHLcXat09d19UgPZp7x8PMl80y285HX2nsFqufZi/l4k70eF1IeZsRZHEhgv/YRB4czUKB/LdlW0unzx0q+Pxa4OsSkm9eZ4PBY58wpn+Q5Az9UIXXNqDXrFbdnaPgyL++cTcvaYM1FyL4UqiGQB7J3hb3PGlT7SQ8yrrrmZn+N1iz55WmtfEtcjyP3qpwluUhL2+aDzpemWmPpPuKDN5CBJNfRM8k6PTXjMJSYNK721LoqS5970TsfQ+YsaBWv4uXM6IyI5Ti71unrunqkBzPPePj5knkm2/nIa+29AtXz7MV8vMlejwspDzPiLA4ksF/7iIPDGSjQv5ZsK+n0+WMl3x8LXB1i0s3rTHB4rHPmlE/ynIEfqpC6ZtSa9YrbMzR8mZd3zqZlbbDmImRfCtUQyAPZu8LeZw2q/aQHGVddc7O/RmuW/PK0Vr4lrseRe1XOklykpW3zQedLU62xdB/xwRvIQJLr6JlknZ6acRhKTBpXe2pdlaXPveidjyFzFrSKV/FyZnRGxHKcXev0dV090oOZZzz8fMk8k+185LX2XoHqefZiPt5kr8eFlIcZcRYHEtivfcTB4QwU6F9LtpV0+vyxku+PBa4OMenmdSY4PNY5c8onec7AD1VIXTNqzXrF7RkavszLO2fTsjZYcxGyL4VqCOSB7F1h77MG1X7Sg4yrrrnZX6M1S355WivfEtfjyL0qZ0ku0tK2+aDzpanWWLqP+OANZCDJdfRMsk5PzTgMJSaNqz21rsrS5170zseQOQtaxat4OTM6I2I5zq51+rquHunBzDNG58ufVQEQI59rmqt8lRfzMGsywaWfleC0H3uaLmS9dMKeSVwa0irWg0GvFT3rK1zn2jXFCmJBF2gruJzjClpZas7Bp7ER6vxZlBZXb1i9qS3rYkkHui981XKZA+gsJ72HfZbS5OMfPdTz3PJv9aTK8lJvHzU8qmPXWjWdUbVk9lev6BnlyTm1Zo9q+JQTj3pTmmZecdZT3OzZiRk5IOa0H01zI9Y5d3KPqusxpVbNlNAa6StL1HfYv9AM2rqGnzFj3euHvGAWoK8Xg+DSz0pw2o89TReyXjphzyQuDWkVYx5l9FrRs77Cda5dU6wgFnSBtoLLOa6glaXmHHwaG6HOn0VpcfWG1Zvasi6WdKD7wlctlzmAznLSe9hnKU0+/tFDPc8t/1ZPqiwv9fZRw6M6dq1V0xlVS2Z/9YqeUZ6cU2v2qIZPOfGoN6Vp5hVnPcXNnp2YkQNiTvvRNDdinXMn96i6HlNq1UwJrZG+skR9h/0LzaCta/gZM9a9fsgLZgH6ejEILv2sBKf92NN0IeulE/ZM4tKQVjHmUUavFT3rK1zn2jXFCmJBF2gruJzjClpZas7Bp7ER6vxZlBZXb1i9qS3rYkkHui981XKZA+gsJ72HfZbS5OMfPdTz3PJv9aTK8lJvHzU8qmPXWjWdUbVk9lev6BnlyTm1Zo9q+JQTj3pTmmZecdZT3OzZiRk5IOa0H01zI9Y5d3KPqusxpVbNlNAa6StL1HfYv9AM2rqGnzFj3euHvGAWoK8Xg+DSz0pw2o89TReyXjphzyQuDWkVYx5l9FrRs77CdS5pfPnSKPTAWrMZaCKu5mfD4FhyI/LaPTXNqxVrlQ+Hy55aqTVoLHGlVz5RfmaoTq6+nluongfJoATSZe056uNL2/LLegypk8PWT5x6kJpq6LFW6fi4Ulnc2idj9VPDg179PS8u6D7NCnS2nINGjBCkjxXzknomZJ1S9aYWl+pN1dsvRt8kfQTUpicLK+ZL7rVpos9x0n/wzfpAAnOAXO2ns4v5+Lu3fLO2c1XrzWgOap85W3OXspCea9VIMy5/zist46CHrNZslj/z5xI9uTchOZtU3OetFWuV+/GjZU+t1Bo0lrjSK58oPzNUJ1dfzy1Uz4NkUALpsl7e/2XhS9vyy+V5XJsFWz9x6kFqqqHHWqXj40plcWufjNVPDQ969fe8uKD7NCvQ2XIOGjFCkD5WzEvqmZB1StWbWlyqN1Vvvxh9k/QRUJueLKyYL7nXpok+x0n/wTfrAwnMAXK1n84u5uPv3vLN2s5VrTejOah95mzNXcpCeq5VI824/DmvtIyDHrJas1n+zJ9L9OTehORsUnGft1asVe7Hj5Y9tVJr0FjiSq98ovzMUJ1cfT23UD0PkkEJpMt6ef+XhS9tyy+X53FtFmz9xKkHqamGHmuVjo8rlcWtfTJWPzU86NXf8+KC7tOsQGfLOWjECEH6WDEvqWdC1ilVb2pxqd5Uvf1i9E3SR0BterKwYr7kXpsm+hwn/QffrA8kMAfI1X46u5iPv3vLN2s7V7XejOag9pmzNXcpC+m5Vo004/LnvNIyDnrIas1m+TN/LtGTexOSs0nFfd5asVa5Hz9a9tRKrUFjiSu98onyM0N1cvU9/Jn8GoTAfxaQ5rwwKkYvjzTSNWn1VJi0rjXqnx09s3648JQvz0IgQu99iDMYfXnghbRcS2b/sxgI9Ngzr17tI2Pq9MX62ervmi5mcEGts9ZrDirw1VzJfQbiWvv1IaGn1p5XGr593efNOXos6ZPGGsyeSe7FFei1zbPMNegVDUjkD2au84s5Y8b48zVMZe2fs+mvGbNHpFbezgkCPfb9SqInnw96UzjxBDl77D9XPZ+akXr5d6+09tU641xHb6J89CeRs+RjpFaP//Aah951eRQPjzRSzVcuWtcadb1HelathwtP+fIsBCL03oc4g9GnB0XOVR7J83t+xkCgx5559WofGVOnL1Z//8deXIFe2zzLXINe0YBE/mDmOr+YM2aMP1/DVNb+OZv+mjF7RGrl7Zwg0GPfryR68vmgN4UTT5Czx/5z1fOpGamXf/dKa1+tM8519CbKR38SOUs+Rmr1+A+vcehdl0fx8Egj1XzlonWtUdd7pGfVerjwlC/PQiBC732IMxh9elDkXOWRPL/nZwwEeuyZV6/2kTF1+mL193/sxRXotc2zzDXoFQ1I5A9mrvOLOWPG+PM1TGXtn7PprxmzR6RW3s4JAj32/UqiJ58PelM48QQ5e+w/Vz2fmpF6+XevtPbVOuNcR2+ifPQnkbPkY6RWj//wGofedXkUD480Us1XLlrXGnW9R3pWrYcLT/nyLAQi9N6HOIPRpwdFzlUeyfN7/rNMOZx4J8zpZo00u2he6eXuv/KuXVrWxqWlJ8hZ0jBiKv++3xpccwq17HMP1AyYvXO/3GOrHebJO2LCzhWPnrQRzDlnqP8p31PMOYRz3lnOkuaitPTtfvFSfWffQ0QeaeY5pOr7+Q75c2DmHBHXrf4ev/U0bRgpwQ1vLnGNlmvKd5iBtvfsPnn2tWqnz9PmzbMRUzrzTzSTNdL00rL3V37Yp7S0lJaeIGdJw4ip/Pt+a3DNKdSyzz1QM2D2zv1yj612mCfviAk7Vzx60kYw55yh/qd8TzHnEM55ZzlLmovS0rf7xUv1nX0PEXmkmeeQqu/nO+TPgZlzRFy3+nv81tO0YaQEN7y5xDVarinfYQba3rP75NnXqp0+T5s3z0ZM6cw/0UzWSNNLy95f+WGf0tJSWnqCnCUNI6by7/utwTWnUMs+90DNgNk798s9ttphnrwjJuxc8ehJG8Gcc4b6n/I9xZxDOOed5SxpLkpL3+4XL9V39j1E5JFmnkOqvp/vkD8HZs4Rcd3q7/FbT9OGkRLc8OYS12i5pnyHGWh7z+6TZ1+rdvo8bd48GzGlM/9EM1kjTS8te3/lh31KS0tp6QlyljSMmMq/77cG15xCLfvcAzUDZu+hoFjXZOZ7bfYllU8y33TS2ZexWNKLqM5L74yFtFr7mvmIQfljHPy1rsagUnHIT+rilr5z2E/huHYO2iP7A+VbM3b9zHvwqV7rwasaEEOlE2mqT89Bq1jciudeeVW893e+6zc4857OI6wViE97Nn/GpXU+GX5QfPDigUofmzfzvTb7ksonmW866ezLWCzpRVTnpXfGQlqtfc18xKD8MQ7+WldjUKk45Cd1cUvfOeyncFw7B+2R/YHyrRm7fuY9+FSv9eBVDYih0ok01afnoFUsbsVzr7wq3vs73/UbnHlP5xHWCsSnPZs/49I6nww/KD548UClj82b+V6bfUnlk8w3nXT2ZSyW9CKq89I7YyGt1r5mPmJQ/hgHf62rMahUHPKTuril7xz2UziunYP2yP5A+daMXT/zHnyq13rwqgbEUOlEmurTc9AqFrfiuVdeFe/9ne/6Dc68p/MIawXi057Nn3FpnU+GHxQfvHig0sfmzXyvzb6k8knmm046+zIWS3oR1XnpnbFI7aywgwcqTZRnoTjTicVz8p1dT2NwIz74UylK6nqKL+Oq52wesSjpql7hFVW7mlXpgSrN2iHealfcqj/VN5F39swYzmqskOINyjI9V3MmU6v4ynODR33MEsqz8AhpDio9UKVD7SyHSm9StvSdrUD8GM/1QKWJ8iwUZzqxeE6+s+tpDG7EB38qRUldT/FlXPWczSMWJV3VK7yialezKj1QpVk7xFvtilv1p/om8s6eGcNZjRVSvEFZpudqzmRqFV95bvCoj1lCeRYeIc1BpQeqdKid5VDpTcqWvrMViB/juR6oNFGeheJMJxbPyXd2PY3BjfjgT6UoqespvoyrnrN5xKKkq3qFV1TtalalB6o0a4d4q11xq/5U30Te2TNjOKuxQoo3KMv0XM2ZTK3iK88NHvUxSyjPwiOkOaj0QJUOtbMcKr1J2dJ3tgLxYzzXA5UmyrNQnOnE4jn5zq6nMbgRH/ypFCWF9vDw/wGf5CQgHBSsawAAAABJRU5ErkJggg==;" vertex="1" parent="1">
                    <mxGeometry x="-720" y="-625" width="680" height="80.39" as="geometry"/>
                </mxCell>
                <mxCell id="3" value="Navbar" style="text;html=1;strokeColor=none;fillColor=none;align=center;verticalAlign=middle;whiteSpace=wrap;rounded=0;fontStyle=0;fontSize=61;" vertex="1" parent="1">
                    <mxGeometry x="-360" y="-850" width="740" height="160" as="geometry"/>
                </mxCell>
                <mxCell id="4" value="" style="group" vertex="1" connectable="0" parent="1">
                    <mxGeometry x="100" y="-690" width="420" height="490" as="geometry"/>
                </mxCell>
                <mxCell id="5" value="Container" style="ellipse;whiteSpace=wrap;html=1;aspect=fixed;fillColor=#d80073;strokeColor=#A50040;fontColor=#ffffff;" vertex="1" parent="4">
                    <mxGeometry x="170" width="80" height="80" as="geometry"/>
                </mxCell>
                <mxCell id="6" value="Row" style="ellipse;whiteSpace=wrap;html=1;aspect=fixed;fillColor=#1ba1e2;strokeColor=#006EAF;fontColor=#ffffff;" vertex="1" parent="4">
                    <mxGeometry x="170" y="130" width="80" height="80" as="geometry"/>
                </mxCell>
                <mxCell id="7" value="Column" style="ellipse;whiteSpace=wrap;html=1;aspect=fixed;fillColor=#1ba1e2;strokeColor=#006EAF;fontColor=#ffffff;" vertex="1" parent="4">
                    <mxGeometry y="260" width="80" height="80" as="geometry"/>
                </mxCell>
                <mxCell id="8" style="edgeStyle=orthogonalEdgeStyle;rounded=0;orthogonalLoop=1;jettySize=auto;html=1;exitX=0;exitY=0.5;exitDx=0;exitDy=0;" edge="1" parent="4" source="6" target="7">
                    <mxGeometry relative="1" as="geometry">
                        <Array as="points">
                            <mxPoint x="40" y="170"/>
                        </Array>
                    </mxGeometry>
                </mxCell>
                <mxCell id="9" value="Column" style="ellipse;whiteSpace=wrap;html=1;aspect=fixed;fillColor=#1ba1e2;strokeColor=#006EAF;fontColor=#ffffff;" vertex="1" parent="4">
                    <mxGeometry x="170" y="260" width="80" height="80" as="geometry"/>
                </mxCell>
                <mxCell id="10" value="" style="edgeStyle=orthogonalEdgeStyle;rounded=0;orthogonalLoop=1;jettySize=auto;html=1;" edge="1" parent="4" source="6" target="9">
                    <mxGeometry relative="1" as="geometry"/>
                </mxCell>
                <mxCell id="11" value="Column" style="ellipse;whiteSpace=wrap;html=1;aspect=fixed;fillColor=#1ba1e2;strokeColor=#006EAF;fontColor=#ffffff;" vertex="1" parent="4">
                    <mxGeometry x="340" y="260" width="80" height="80" as="geometry"/>
                </mxCell>
                <mxCell id="12" style="edgeStyle=orthogonalEdgeStyle;rounded=0;orthogonalLoop=1;jettySize=auto;html=1;exitX=1;exitY=0.5;exitDx=0;exitDy=0;" edge="1" parent="4" source="6" target="11">
                    <mxGeometry relative="1" as="geometry"/>
                </mxCell>
                <mxCell id="13" value="" style="endArrow=classic;html=1;rounded=0;exitX=0.5;exitY=1;exitDx=0;exitDy=0;" edge="1" parent="4" source="5" target="6">
                    <mxGeometry width="50" height="50" relative="1" as="geometry">
                        <mxPoint x="250" y="190" as="sourcePoint"/>
                        <mxPoint x="300" y="140" as="targetPoint"/>
                    </mxGeometry>
                </mxCell>
                <mxCell id="14" value="Container" style="ellipse;whiteSpace=wrap;html=1;aspect=fixed;fillColor=#1ba1e2;strokeColor=#006EAF;fontColor=#ffffff;" vertex="1" parent="4">
                    <mxGeometry y="410" width="80" height="80" as="geometry"/>
                </mxCell>
                <mxCell id="15" value="" style="edgeStyle=orthogonalEdgeStyle;rounded=0;orthogonalLoop=1;jettySize=auto;html=1;fontSize=61;" edge="1" parent="4" source="7" target="14">
                    <mxGeometry relative="1" as="geometry"/>
                </mxCell>
                <mxCell id="16" value="" style="edgeStyle=orthogonalEdgeStyle;rounded=0;orthogonalLoop=1;jettySize=auto;html=1;fontSize=61;" edge="1" parent="1" source="14">
                    <mxGeometry relative="1" as="geometry">
                        <mxPoint x="140" y="-110" as="targetPoint"/>
                    </mxGeometry>
                </mxCell>
                <mxCell id="17" value="" style="edgeStyle=orthogonalEdgeStyle;rounded=0;orthogonalLoop=1;jettySize=auto;html=1;" edge="1" parent="1" source="9">
                    <mxGeometry relative="1" as="geometry">
                        <mxPoint x="310" y="-110" as="targetPoint"/>
                    </mxGeometry>
                </mxCell>
                <mxCell id="18" value="Container" style="ellipse;whiteSpace=wrap;html=1;aspect=fixed;fillColor=#1ba1e2;strokeColor=#006EAF;fontColor=#ffffff;" vertex="1" parent="1">
                    <mxGeometry x="270" y="-270" width="80" height="80" as="geometry"/>
                </mxCell>
                <mxCell id="19" value="" style="edgeStyle=orthogonalEdgeStyle;rounded=0;orthogonalLoop=1;jettySize=auto;html=1;fontSize=61;" edge="1" parent="1" source="9" target="18">
                    <mxGeometry relative="1" as="geometry"/>
                </mxCell>
                <mxCell id="20" value="" style="edgeStyle=orthogonalEdgeStyle;rounded=0;orthogonalLoop=1;jettySize=auto;html=1;" edge="1" parent="1" source="11">
                    <mxGeometry relative="1" as="geometry">
                        <mxPoint x="480" y="-100" as="targetPoint"/>
                    </mxGeometry>
                </mxCell>
                <mxCell id="21" value="Container" style="ellipse;whiteSpace=wrap;html=1;aspect=fixed;fillColor=#1ba1e2;strokeColor=#006EAF;fontColor=#ffffff;" vertex="1" parent="1">
                    <mxGeometry x="440" y="-270" width="80" height="80" as="geometry"/>
                </mxCell>
                <mxCell id="22" value="" style="edgeStyle=orthogonalEdgeStyle;rounded=0;orthogonalLoop=1;jettySize=auto;html=1;fontSize=61;" edge="1" parent="1" source="11" target="21">
                    <mxGeometry relative="1" as="geometry"/>
                </mxCell>
                <mxCell id="23" value="" style="shape=image;verticalLabelPosition=bottom;labelBackgroundColor=default;verticalAlign=top;aspect=fixed;imageAspect=0;image=data:image/png,iVBORw0KGgoAAAANSUhEUgAAAz0AAABiCAYAAAB6WL3KAAAAAXNSR0IArs4c6QAAAARnQU1BAACxjwv8YQUAAAAJcEhZcwAACxMAAAsTAQCanBgAADETSURBVHhe7Z1NzLbrVZbfjUQ00hpjMBGqA9FAwUQdUEo0MRZoohMKDIXujvmbAmVo+BtpaMEp4WekUKIDE/4caEwDA42KGwaOLEyIAzYxkcT0cx3rWud61n099/P+7O7d0mefR3K/11rnOte6rufn/frc7/t9u6+9Ch6MMcYYY4wx5k75klqNMcYYY4wx5i7xTY8xxhhjjDHmrvFNjzHGGGOMMeau8U2PMcYYY4wx5q7xTY8xxhhjjDHmrvFNjzHGGGOMMeau8U2PMcYYY4wx5q7xTY8xxhhjjDHmrvFNjzHGGGOMMeau8U2PMcYYY4wx5q7xTY8xxhhjjDHmrvFNjzHGGGOMMeau8U2PMcYYY4wx5q7xTY8xxhhjjDHmrvFNjzHGGGOMMeau8U2PMcYYY4wx5q7xTY8xxhhjjDHmrvFNjzHGGGOMMeau8U2PMcYYY4wx5q7xTY8xxhhjjDHmrvFNjzHGGGOMMeau8U2PMcYYY4wx5q7xTY8xxhhjjDHmrvFNjzHGGGOMMeau8U2PMcYYY4wx5q7xTY8xxhhjjDHmrvFNjzHGGGOMMeau8U2PMcYYY4wx5q7xTY8xxhhjjDHmrvFNjzHGGGOMMeau8U2PMcaYU/74j//44Q/+4A8qM8YYY754ee1VULExxrzr+d3f/d38sP8Y73nPex6+9mu/trL75Ud+5EcefuVXfuXhe77nex6+93u/t9S3Bz3PPI88n+bdC+8Drq/8yq8sxRhj3n5802PMFwB94PuGb/iGUo48VTfvHN/6rd/65G83eF1+9md/trL7hOfg9ddfz5udn/iJn3j4tV/7tbf15kTP86/+6q8+fNVXfVWphu99LuD5/sAHPvDi5139n68bc17H3//933/0zzO4dR5urn/rt34r32PGGPNO4ZseY74AfOxjH3v47d/+7Yff+Z3fKeXIU3XzzrHf8PDBnw/lP/ZjP1bK4t5/Kv0DP/ADDx/60IcePvKRjzz85E/+5MOXf/mXv62/7fnN3/zNhzfffPPhm7/5m/2bnoAfcnz/939/ft/vvPQ3bdxQ8p79fN2Y6zeC7Hd248N5uHn70R/90VIu8P1G3Te/xph3Gv+bHmOMGXAzMy9xS79XfuiHfihveOAHf/AHH779278947cL3VD5hmfBb9O44eF5//SnP50/8PilX/qlvNn5jd/4jXL96Yabtv2HBk/x0z/90/kYfcNjjHmn8U2PMTf4X2/+34eP/Ov/9vA3/+WnH/7Kv/iPD6//2zdC+5OqmnczfDjlt3F8GGX9pm/6pvxJNz+t50Pcd37nd6bGxU/B0QU5H3B//ud/Pn/C/fVf//U5Y35Y1BzVmcd8sc9gn1szXnKWD3/4w1V5ePjUpz512P+NN96oyvnjp5f9JuzF/HlGPQ72JBfM5Dy3HvO9w2PlRvC7v/u7+0aQvw7Gb3l++Zd/OfM/7XDuj3/845U9D254eIzGGPNO45seY07ghucf/eJ/efhPn/mjhzf/5P+l9u/+5/9++NAv/ucv2I2PPmjy4ZEPhHxAnB9y+dBEnb8/zzo/TKv37AM2zA+vzN4/vJoj/PsFnlM+0AMf2vhrPTz3vA78lS3+Kg+/IeGvcc3nk3+7wAd+fHzg4yf7v/d7v5fPv2Cu6vyVIT4Ik4t9Bvtzpu/4ju/o1/bWWXRmYA6vPefDhwd0I/TRj340f9vAb2T46248ZtDjR+OvLdHHB/Sf+ZmfOfxWQjcu/JYIDz/NV53zaR6gM1ePmXm8x6fnnnnve997uCF9DF6v59wc6mZWN5zz+57nFU0rHj3XU2M+74fnnI2/AkrvfI/dQmfjYo+f+7mfq8qCs/Kbo3n+W4/TGGOeBf+mxxhz5KP/5n+8+op//h9Or4/8q/9arrfO66+//urrvu7rXn3qU586veLDa9YFGjl9xPEB4dUHP/jBV/GB4NWbb76Znk9+8pPtoS4Ps77lW77loOERmv3jP/7jr+JDcOb4mWde5XMxny/Qc/bxj3+8lNvg4XUSzPvGb/zGV5/5zGdKeZXPPfOk8Zrte+p1BmZMP/Da6XW8xdlZ9jlx45Eaj3ESH0Bffd/3fV/G8z0jOB+anhN59jkCH3UxH5/Y97hn4kYhH6++x994442qHNF7hRWfnsf5/arXlfcRHr7v9b7j9QW9Pvx5wOuKh/eBXn/mcwbeV/TqtT9jvpbMIf71X//1zIF+vS/g1mMgF7xP6Yub4TwDz89jZzDGmKfwb3qMOYHf6tziv//h/6noc4efZJ9d+q8dCX4qyr8j4Sfg/NSdn/z/1E/9VP5kPD40lGtBTRd/XYZZ/AR2avqJLvDTeWbyGwd+W0HMT/jZ0zzO2T/a5vnmueOn8byWPNe8ThN+izH/DcP+71r0GvGTbmYR7x72njPIeY/MvZ5zFmbMOfz2B/DSp4v/6AC/kZrw2yGxn0/v4el5DPrZk/PymwLOC8/97ccXO/wmjN9y8frw2PntB7/hINZvaFh5fvT9yspv8Vj5Pt6fK/6MoMb3PX8GUI+bkqouqH3iE5/IlfdB3IDk+4j5vE95X9HLbwmf81owh5557sljjwFde/A8oPG9wDyeH85pjDFvFd/0GHPCe7/sSyu65o/qr7u9HfCPlc8u/kd+wgdI/hrRhA8ksH8QlQ76B/dTm/DBQtf8gMt+fPhAN8+Hv37Dh1X9FS7diLwUPvzyQZC/8sRM/moP/2bmOR865flcz3J2k/Vd3/VdlT3Nc8464azc5PGe48P3/j3wboC/psh/tpn/khkf8PnAr9ef51M3ktwMTPRc6YYV0J66KYb9eebGk/fd/PNg/pXE58DZef/weu5ofx7bRDfH8/3KTRA3TzwHZzdQxhjzEnzTY8wJf/sr/kJF1/yTr/7LFX1h2T+UPsZT3r3OhyM+gPHhxzwfPpzxQZPfyHHjwofTt/oc6ifg/Jsa5vFhUR8IQTemgg+FXPqg+1bPon7eA/TNi98APhfdaD/ngzKPDR+/JeCn/6z7Tf67CV4Dbgp4/bn02vPbNtAq9Lo+5/V96c0o8OcDfx4896YZPzc+vKb7v+/R/vs59GeQVt63vBfwcfPDv+15zr8VMsaYW/imx5gTPvHhv3X62x60f/YP/0Zlnz/OfkLLT2Rh/0ntS+DDlT4o7R9wufabIfM4PJ98INUHfW485k/fn4t+us0HPi7N0A2J4K8isReXfqrOh1PgpoP3jN4nzJs3Tbfg/cT1C7/wC9nDjRTz+Yn//lejHoObLN63PBbOoL/WxJwd3oNc/BUqfDzmT37yk1V9d6DX6RZ8L77//e/PWO8vodd13pTgmTcW+03xLXjfsNfZnwdP9U6Yw00Lrzn7iq/5mq/J9dafZ3MP3kP8FT1u/PVXbvc+Y4x5Lr7pMeaEv/beP/fw7//p3334x/VbHW52/v77/mJofy9qX5ba5xP+B58PBXxg5MMMMR8m+ZDzudz0AB+S9V8YY7Y+nDLfvAyeSz7s8Ve1+C9rcdPwVn5jwQ0AP9X+4Ac/mBevBx8g52vNPu973/tyLy4+DOLRh0Z+W8JfGeKvRuksz32v8NsFvLwH+Ak783nPveRDLx+c+Wk9K2dgDu+xs99G4GFPbhjx8Zh5bO8WuDnhOeLitea55kaG54v/Y1i+z3ktuWHgdcGjG1J8xNwg7K/PYzfFt2DO/LNGe/AeeCl6D0444/4Y2I+c327xvgbe/+i68dfNztn7xxhjnsNr/NcMKjbGfJ7gww3/g86/3znjrM4/VOY/WqCfmvLBgQ+5+pDAhxQ88//ZXNqco98iPDZbP+nlQ4t5OfqgNn/y/lbQ67HP4caA15ibiqf2+lzPwhl4P3C9VV5yhrdjvy9G+J7k4vte8Bzw/c0Nob6n+fDP9ytewY0KfxboOdP7gxtu/gwAavN7mn7+LOA9tN8MU6Nv/nnAD15u3TCd/ZkieN35T6lzFh6HNG5q5mPg5og6e53V0X/4h3/44du+7dtKMcaYl+GbHmO+yHgnPxTe+pBt/nQxb3rM/TFvNm59n+tG8qk/C+R7K9/T7/SfB895DP4zyRjzduGbHmOM+SKD3wTyIdH/CV9jjDHmefimxxhjjDHGGHPX+D9kYIwxxhhjjLlrfNNjjDHGGGOMuWt802OMMcYYY4y5a3zTY4wxxhhjjLlrfNNjjDHGGGOMuWt802OMMcYYY4y5a3zTY4wxxhhjjLlrfNNjjDHGGGOMuWt802OMMcYYY4y5a3zTY4wxxhhjjLlrfNNjjDHGGGOMuWt802OMMcYYY4y5a3zTY4wxxhhjjLlrfNNjjDHGGGOMuWt802OMMcYYY4y5a3zTY4wxxhhjjLlrfNNjjDHGGGOMuWt802OMMcYYY4y5a3zTY4wxxhhjjLlrfNNjjDHGGGOMuWt802OMMcYYY4y5a3zTY4wxxhhjjLlrfNNjjDHGGGOMuWt802OMMcYYY4y5a3zTY4wxxhhjjLlrfNNjjDHGGGOMuWt802OMMcYYY4y5a3zTY4wxxhhjjLlrfNNjjDHGGGOMuWt802OMMcYYY4y5a3zTY4wxxhhjjLlrfNNjjDHGGGOMuWtei+tDtT689tprr1hfvXqVOSFfQicnfi1q6cOjFU+BuILwAXnFOaOayDW7vQFl8inMfuWzV2drb6x5MCT0IOOL3GfR7O7dYxiNCrVnrwE9auozBfMMMGtXewVd12bEJ6i8z5/krG2O/IB2OE9xc2aM4rzdUzlhx7sHZo00rkgv5biu3jvBEtac9GR20Xd239yX/WJZm5CkYcwqT2XJYVZAe+4xfdXX3jRdDPt5sjeWPMPmnb373tkDZVf9sOKJ+hhzhEIs6a+6eqktYT2WDPmy9+DDoxVPkftnUHuTV5wzqolcs9sbUCafwuxXPnt1tvbGmgdDQg8yvsiH54q8e/cYRqNC7dlrQI+a+kzBPAPM2tVeQde1GfEJKu/zJzlrmyM/oB3OU9ycGaM4b/dUTtjx7oFZI40r0ks5rqv3TrCENSc9mV30nd0392W/WNYmJGkYs8pTWXKYFdCee0xf9bU3TRfDfp7sjSXPsHln77539kDZVT+seKI+xhyhEEv6q65eaktYjyVDvuw9+PBoxVPk/hnU3uQV54xqItfs9gaUyacw+5XPXp2tvbHmwZDQg4wv8uG5Iu/ePYbRqFB79hrQo6Y+UzDPALN2tVfQdW1GfILK+/xJztrmyA9oh/MUN2fGKM7bPZUTdrx7YNZI44r0Uo7r6r0TLGHNSU9mF31n98192S+WtQlJGsas8lSWHGYFtOce01d97U3TxbCfJ3tjyTNs3tm77509UHbVDyueqI8xRyjEkv6qq5faEtZjyZAvew8+PFrxFLl/BrU3ecU5o5rINbu9AWXyKcx+5bNXZ2tvrHkwJPQgY8mI/yDlhUxJmTS0hwdj7kFPVIwlc3zEY72aSQ9x1UD1U8KOV2v6mIFW7PMP+44+nTNjtKqliUImY9ag++Uvb7LnheS5ZqGsh3lLvh45avNcis809cChD5mZK7wcuezzMcy509xza22YEZZDH9zQGZmHqyTPta+U4iLo/uHZa4fzB6RZW9ZDXfTcIsfKxowMqrdqeEh7E3mG3jOKrBGMeh4KKa6sbz1nHB4P8d5TszNMITiZ3TWoes4jrRWi1L1TT1SMJXN8xGO9mkkPcdVA9VPCjldr+piBVuzzD/uOvv15Uy1NFDIZswbdL395kz0vJM81C2U9zFvy9chRm+dSfKapBw59yMxc4eXIZZ+PYc6d5p5ba8OMsBz64IbOyDxcJXmufaUUF0H3D89eO5w/IM3asvr7f9A1qHrOI60VotS9U09UjCVzfMRjvZpJD3HVQPVTwo5Xa/qYgVbs8w/7jr79eVMtTRQyGbMG3S9/eZM9LyTPNQtlPcxb8vXIUZvnUnymqQcOfcjMXOHlyGWfj2HOneaeW2vDjLAc+uCGzsg8XCV5rn2lFBdB9w/PXjucPyDN2rL6+3/QNah6ziOtFaLUvVNPVIwlc3zEY72aSQ9x1UD1U8KOV2v6mIFW7PN7X3wfqOY8VBn60LPGSplaGouq9wZnaIZiqFwH6brYNeWz/6m+iCN8xV/jO5puMGfDmBXh5Q1aQi5skEKRxqHt+YQZKsk3NbFrW1+uI7+5n9jnvYTa73BWaXEhE0+ifDnS7Nk1wrhuHSxrsy+40rZ65oCmGCrnYJmmWGiG1slq6W/Ox5Dn1uw8e8Xah8eiMzVILHHhx6InNLW4kpD7vHsMe21fq7Ye4ImHMrU0FlU/nGNHMxRD5dk362LXlM/+p/oijtDf/zv7vJdQ+x3OKi0uZOJJlC9Hmj27RhjXrYNlbfYFV9pWzxzQFEPlHCzTFAvN0DpZLf7+F1U/nGNHMxRD5dk362LXlM/+p/oijtDf/zv7vJdQ+x3OKi0uZOJJlC9Hmj27RhjXrYNlbfYFV9pWzxzQFEPlHCzTFAvN0DpZLf7+F1U/nGNHMxRD5dk362LXlM/+p/oijvD4/U/338lgDKyGNfn2A+l69OTBq48ZWUPQvN2zcbXX7Kue/DLyBoml/Nok9xurqBF57FxDkw/kvaorr1V7ZQEPtfJCyZfZ2bTiy5Biz4OWFMSi/VhzpkrZcdk7PSzlz33TWDPI41rBUROalb7pYd4+I0idNS7Vr6g56uvZQE/Vd1/rxWqo3k1XEqWs9T6pFhSpaUWKq+dNvbTsL50wmTWoXOcjV62ftA3tq7l86fOiE89WpMjlqdZVH0nPZVU9mLMpEHY8NHzQjRtd3/eoPAXN2z0bV3vNvurJLyNvkFjKr01yv7GKGqGn/PBeBHmv6spr1V5ZwEOtvFDyZXY2rfgypNjzoCUFsWg/1pypUnZc9k4PS/lz3zTWDPK4VnDUhGalb3qYt88IUmeNS/Urao76ejbQU/Xd13qxGqp305VEKWu9T6oFRWpakeLqeVMvLftLJ0xmDSrX+chV6ydtQ/tqLl/6vOjEsxUpcnmqddVH0nNZVQ/mbAqEHQ8NH3TjRtf3PSpPQfN2z8bVXrOvevLLyBsklvJrk9xvrKJG6Ck/vBdB3qu68lq1VxbwUCsvlHyZnU0rvgwp9jxoSUEs2o81Z6qUHZe908NS/tw3jTWDPK4VHDWhWembHubtM4LUWeNS/Yqao76eDfRUffe1XqyG6t10JVHKWu+TakGRmlakuHre1EvL/tIJk1mDynU+ctX6SdvQvprLlz4vOvFsRYpcnmpd9ZH0XFbVgzmbAmHHQ8MH3bjR9X2PylPQvN2zcbXX7Kue/DLyBoml/Nok9xuryIO8f8WXYjUSnlH7rjpeiPwwXDNkrnx6KH2WFd+O/EEX8SEQLqXRga5qNaeyxZlWaMZND/vXXu2RVnn2B2reHzPWjOPKHkCbsdg1cnmnbxClrM1i71Xynu8wIwvMyWTsOXJ5WBJ5ROXVsvTdc8YtTw0i7PNv3nxsGYQOqk3f1iPv5ZCB+iezB8YevS+EnrNYIyVchUC1Sq+gzFKWfe7VGUAzZ13x3jP0eY7eZ/dvHNrwQuSn55S58umh5O//6AG0GYtdI5d3+gZRytos9l4l7/kOM7LAnEzGniOXhyWRR1ReLUvfPWfc8tQgwj7/5s3HlkHooNr0bT3yXg4ZqH8ye2Ds0ftC6DmLNVLCVQhUq/QKyixl2edenQE0c9YV7z1Dn+fofXb/xqENL0R+ek6ZK58eSv7+jx5Am7HYNXJ5p28QpazNYu9V8p7vMCMLzMlk7DlyeVgSeUTl1bL03XPGLU8NIuzzb958bBmEDqpN39Yj7+WQgfonswfGHr0vhJ6zWCMlXIVAtUqvoMxSln3u1RlAM2dd8d4z9HmO3mf3bxza8ELkp+eUufLpofSF+f6P66trPRxszV4bCTZk+O6TZ8RZ06q+LPSIS4BeZdU1S3MepbwzjuXyDUlcs1JH2+h9oq4eUjhtuIGa5O/9NC9iNNbeT5RvHXZbo9yz0ViX3M9x9gvlQ08fwc4at/YnJZQGoUfajyPr5T3b59msUWvfvT/ySPM1m+TeK0zC1n9A5BrXzUOc7ZcDVm8zfQPNzuJJW888gW2onRaLtenl/DPXnjlD+9TKbGQsyZUQ4GWJi1KuCEXmeFQrf+4jNHf3yTNizZenz1MhUgfoVVZdszTnUco741j8/U8+9PQR7Kxxa39SQmkQeqT9OLJe3rN9ns0atfbd+yOPNF+zSe69wiRs/v4PkLEkV0KAlyUuSrkiFJnjUa38uY/Q3N0nz4g1X54+T4VIHaBXWXXN0pxHKe+MY/H3P/nQ00ews8at/UkJpUHokfbjyHp5z/Z5NmvU2nfvjzzSfM0mufcKk7D5+z9AxpJcCQFelrgo5YpQZI5HtfLnPkJzd588I9Z8efo8FSJ1gF5l1TVLcx6lvDOO5fb3P1/+uoosqdYAWGk2JJH3BsHh0FvtKhehh5z6YW6AHuGS1Vv+9gp8w3Plf6TeMey5GPr+vHAWtKuZrAMd5Gx+zqirm8rb+531blpaY6Utc748gfbUypCMa8Z68ooaPM94tVfZ0bO16tIb9Fk/I+q535wRcWrqZSUvHfrMF+lCldQ7+x5l9r0E+mqvbIx4HfiyN9cafuFMS6qN9szXiJv0+6foufTP3m3e3tf7Vrr3H57zrXaVi9BDTv0wN0CP8HAm+dsr8A3Plf+Resew52Lo+/PCWdCuZrIOdJCz+Tmjrm4qb+931rtpaY2Vtsz58gTaUytDMq4Z68kravA849VeZUfP1qpLb9Bn/Yyo535zRsSpqZeVvHToM1+kC1VS7+x7lNn3EuirvbIx4nXgy95ca/iFMy2pNtozXyNu0u+foufSP3u3eXtf71vp3n94zrfaVS5CDzn1w9wAPcLDmeRvr8A3PFf+R+odw56Loe/PC2dBu5rJOtBBzubnjLq6qby931nvpqU1Vtoy58sTaE+tDMm4Zqwnr6jB84xXe5UdPVurLr1Bn/Uzop77zRkRp6ZeVvLSoc98kS5USb2z71Fm30ugr/bKxojXgS97c63hF860pNpoz3yNuEm/f4qeS//s3ebtfb1vpXv/4Tnfale5CD3k1A9zA/QID2eSv70C3/Bc+W/W4/qrGQWz8BjyDT87fEnEh+Zb82Z/kG03+pH6wZ7Nm7Nq7WcUZj2gdPrkFRdT9e3U+Ksz3fKfMXsCzaO554rw6BWc8+WVju3wuEE9rLCVD8hb8elzGPDlcMbZB9XKiMxnDeSfPgJKy7EeVwZrBsb8NWh5szfy/MdpleNTreMd9U/O/KX1c3DSd3mAgWqPzBKMbEFztYqZTw9pxDL2a1/5zTlTP5nT7P23OJnLWfz9f+I/Y/YEmkdzzxXhWRse58vb7wH5slqohxW28gF5Kz59DgO+HM44+6BaGZH5rIH800dAaTnW48pgzcDo7/81Z74u/dpXfnPO1E/mNHv/LU7mchZ//5/4z5g9gebR3HNFeNaGx/ny9ntAvqwW6mGFrXxA3opPn8OAL4czzj6oVkZkPmsg//QRUFqO9bgyWDMw+vt/zZmvS7/2ld+cM/WTOc3ef4uTuZzli+b7n+grrn29mZ5Y6ay7V/X0ZrA2YUjm05PChbKlTMyqHPIMrPhSiXgairXxmH8yLCVSZo0R6OTaq3uh/IcVOa70Dy1R79AUZCn0zvNL7X1py7L2J1EtZw6/1kvTxdc6QZWzjpbJtscK05P1sqGvgGaSSz+0nNlCvlzIy3PYG22M2vtnDvi7dx5hzOl6aYc8IM8njRUhkAekiayN+VmPnBH7GWfOfsRzr37BypALackpDNYLGGt5ZtznCdCyRs46vBkSjBp5+yvXGUJK0Mlnj3TW3at6ejNYM/PxwfSkcKFsKROzKod5VomHwxZr4zH/ZFhKpMwaI9DJtVf3QvkPK3Jc6R9aot6hKchS6J3nl9r70pZl7U+iWs4cfq2XpouvdYIqZx0tk22PFaYn62VDXwHNJJd+aDmzhXy5kJfnsDfaGLX3zxzwd+88wpjT9dIOeUCeTxorQiAPSBNZG/OzHjkj9jPOnP2I5179gpUhF9KSUxisFzDW8sy4zxOgZY2cdXgzJBg18vZXrjOElKCTzx7prLtX9fRmsGbm44PpSeFC2VImZlUO86wSD4ct1sZj/smwlEiZNUagk2uv7oXyH1bkuNI/tES9Q1OQpdA7zy+196Uty9qfRLWcOfxaL00XX+sEVc46WibbHitMT9bLhr4Cmkku/dByZgv5ciEvz2FvtDFq75854O/eeYQxp+ulHfKAPJ80VoRAHpAmsjbmZz1yRuxnnDn7Ec+9+gUrQy6kJacwWC9grOWZcZ8nQMsaOevwZkgwauTtr1xnCClBJ5890ll3r+rpzWDNzMcH05PChbKlTMyqHOZZJR4OW6yNx/yTYSmREvwlFSQSxjUHoB8G00hfrVkYUuYkpc+DZhEPUq3Uek/5x6pzya9SasEhlydCHSZrZUpPQNB7grwrW1Rf7yktkDf1TTuKQempka4l1/QUU6MHNGOeQXPm48HTSem9L2vUpYsacXxtg86rJ/PR33tPjS/BYU+EoOyH1+Axf6P5taZHca3qlSdnVJwrKToNVU6GX/2VZnxJKiUISWfI9WJZIJcn4yA9+AlqTZ246pqJfuiXly/F9OaXHHDxRtiPS6CRH/bGo7VMPQMPAZSeewXy7o8HTVLmJKX3HqT5pfaqlVrvKf9YdS75VUotOOTyRKjDZK1M6QkIek+Qd2WL6us9pQXypr5pRzEoPTXSteSanmJq9IBmzDNoznw8eDopvfdljbp0USOOr23QefVkPvp776nxJTjsiRCU/fAaPOZvNL/W9CiuVb3y5IyKcyVFp6HKyfCrv9KML0mlBCHpDLleLAvk8mQcpAc/Qa2pE1ddM9EP/fLypZje/JIDLt4I+3EJNPLD3ni0lqln4CGA0nOvQN798aBJypyk9N6DNL/UXrVS6z3lH6vOJb9KqQWHXJ4IdZislSk9AUHvCfKubFF9vae0QN7UN+0oBqWnRrqWXNNTTI0e0Ix5Bs2ZjwdPJ6X3vqxRly5qxPG1DTqvnsxHf+89Nb4Ehz0RgrIfXoPH/I3m15oexbWqV56cUXGupOg0VDkZfvVXmvElqZQgJJ0h14tlgVyejIP04CeoNXXiqmsm+qFfXr4U05tfcsDFG2E/LoFGftgbj9Yy9Qw8BFB67hXIuz8eNEmZk5Tee5Dml9qrVmq9p/xj1bnkVym14JDLE6EOk7Uy5fqeVBbk6SAomS/rURxjaF/1pah4ajurrWuHmXFF+dB7tk9+kS6ow65Vbyz94jWjnvneKzQjQsScVXXFrOT4ukBKfAa26mnf0JI9D255U0fLpPTyXPXIJ4aGvb0lPBXnfHKBXvXeW/VRy7z09o2eKPVzy0q5/VVIP3VEPFVvpkY86L5izrya81ZY4y6PISQSZvd5IfJcJyc1gu5DL0/q8s1arbFcHmfpfaiLfNDRer9gxnD6XCme2s5q69phZlxRPvSe7ZNfpAvqsGvVG8vhtU5GPfO9V2hGhIg5q+qKWcnxdYGU+Axs1dO+oSV7Htzypo6WSenlueqRTwwNe3tLeCrO+eQCveq9t+qjlnnp7Rs9UernlpVy+6uQfuqIeKreTI140H3FnHk1562wxl0eQ0gkzO7zQuS5Tk5qBN2HXp7U5Zu1WmO5PM7S+1AX+aCj9X7BjOH0uVI8tZ3V1rXDzLiifOg92ye/SBfUYdeqN5bDa52MeuZ7r9CMCBFzVtUVs5Lj6wIp8RnYqqd9Q0v2PLjlTR0tk9LLc9Ujnxga9vaW8FSc88kFetV7b9VHLfPS2zd6otTPLSvl9lch/dQR8VS9mRrxoPuKOfNqzlthjbs8hpBImN3nhchznZzUCLoPvTypyzdrtcZyeZyl96Eu8kFH6/2CGcPpc6V4ajurrWuHmXFF+dB7tk9+kS6ow65VbywxKrQ/v0oNGptgzDjF6iAmjas9ta7K0uXNE4y6ZuWCVvEqrv2SGhHLcXat09d19UgPZp7x8PMl80y285HX2nsFqufZi/l4k70eF1IeZsRZHEhgv/YRB4czUKB/LdlW0unzx0q+Pxa4OsSkm9eZ4PBY58wpn+Q5Az9UIXXNqDXrFbdnaPgyL++cTcvaYM1FyL4UqiGQB7J3hb3PGlT7SQ8yrrrmZn+N1iz55WmtfEtcjyP3qpwluUhL2+aDzpemWmPpPuKDN5CBJNfRM8k6PTXjMJSYNK721LoqS5970TsfQ+YsaBWv4uXM6IyI5Ti71unrunqkBzPPePj5knkm2/nIa+29AtXz7MV8vMlejwspDzPiLA4ksF/7iIPDGSjQv5ZsK+n0+WMl3x8LXB1i0s3rTHB4rHPmlE/ynIEfqpC6ZtSa9YrbMzR8mZd3zqZlbbDmImRfCtUQyAPZu8LeZw2q/aQHGVddc7O/RmuW/PK0Vr4lrseRe1XOklykpW3zQedLU62xdB/xwRvIQJLr6JlknZ6acRhKTBpXe2pdlaXPveidjyFzFrSKV/FyZnRGxHKcXev0dV090oOZZzz8fMk8k+185LX2XoHqefZiPt5kr8eFlIcZcRYHEtivfcTB4QwU6F9LtpV0+vyxku+PBa4OMenmdSY4PNY5c8onec7AD1VIXTNqzXrF7RkavszLO2fTsjZYcxGyL4VqCOSB7F1h77MG1X7Sg4yrrrnZX6M1S355WivfEtfjyL0qZ0ku0tK2+aDzpanWWLqP+OANZCDJdfRMsk5PzTgMJSaNqz21rsrS5170zseQOQtaxat4OTM6I2I5zq51+rquHunBzDNG58ufVQEQI59rmqt8lRfzMGsywaWfleC0H3uaLmS9dMKeSVwa0irWg0GvFT3rK1zn2jXFCmJBF2gruJzjClpZas7Bp7ER6vxZlBZXb1i9qS3rYkkHui981XKZA+gsJ72HfZbS5OMfPdTz3PJv9aTK8lJvHzU8qmPXWjWdUbVk9lev6BnlyTm1Zo9q+JQTj3pTmmZecdZT3OzZiRk5IOa0H01zI9Y5d3KPqusxpVbNlNAa6StL1HfYv9AM2rqGnzFj3euHvGAWoK8Xg+DSz0pw2o89TReyXjphzyQuDWkVYx5l9FrRs77Cda5dU6wgFnSBtoLLOa6glaXmHHwaG6HOn0VpcfWG1Zvasi6WdKD7wlctlzmAznLSe9hnKU0+/tFDPc8t/1ZPqiwv9fZRw6M6dq1V0xlVS2Z/9YqeUZ6cU2v2qIZPOfGoN6Vp5hVnPcXNnp2YkQNiTvvRNDdinXMn96i6HlNq1UwJrZG+skR9h/0LzaCta/gZM9a9fsgLZgH6ejEILv2sBKf92NN0IeulE/ZM4tKQVjHmUUavFT3rK1zn2jXFCmJBF2gruJzjClpZas7Bp7ER6vxZlBZXb1i9qS3rYkkHui981XKZA+gsJ72HfZbS5OMfPdTz3PJv9aTK8lJvHzU8qmPXWjWdUbVk9lev6BnlyTm1Zo9q+JQTj3pTmmZecdZT3OzZiRk5IOa0H01zI9Y5d3KPqusxpVbNlNAa6StL1HfYv9AM2rqGnzFj3euHvGAWoK8Xg+DSz0pw2o89TReyXjphzyQuDWkVYx5l9FrRs77CdS5pfPnSKPTAWrMZaCKu5mfD4FhyI/LaPTXNqxVrlQ+Hy55aqTVoLHGlVz5RfmaoTq6+nluongfJoATSZe056uNL2/LLegypk8PWT5x6kJpq6LFW6fi4Ulnc2idj9VPDg179PS8u6D7NCnS2nINGjBCkjxXzknomZJ1S9aYWl+pN1dsvRt8kfQTUpicLK+ZL7rVpos9x0n/wzfpAAnOAXO2ns4v5+Lu3fLO2c1XrzWgOap85W3OXspCea9VIMy5/zist46CHrNZslj/z5xI9uTchOZtU3OetFWuV+/GjZU+t1Bo0lrjSK58oPzNUJ1dfzy1Uz4NkUALpsl7e/2XhS9vyy+V5XJsFWz9x6kFqqqHHWqXj40plcWufjNVPDQ969fe8uKD7NCvQ2XIOGjFCkD5WzEvqmZB1StWbWlyqN1Vvvxh9k/QRUJueLKyYL7nXpok+x0n/wTfrAwnMAXK1n84u5uPv3vLN2s5VrTejOah95mzNXcpCeq5VI824/DmvtIyDHrJas1n+zJ9L9OTehORsUnGft1asVe7Hj5Y9tVJr0FjiSq98ovzMUJ1cfT23UD0PkkEJpMt6ef+XhS9tyy+X53FtFmz9xKkHqamGHmuVjo8rlcWtfTJWPzU86NXf8+KC7tOsQGfLOWjECEH6WDEvqWdC1ilVb2pxqd5Uvf1i9E3SR0BterKwYr7kXpsm+hwn/QffrA8kMAfI1X46u5iPv3vLN2s7V7XejOag9pmzNXcpC+m5Vo004/LnvNIyDnrIas1m+TN/LtGTexOSs0nFfd5asVa5Hz9a9tRKrUFjiSu98onyM0N1cvU9/Jn8GoTAfxaQ5rwwKkYvjzTSNWn1VJi0rjXqnx09s3648JQvz0IgQu99iDMYfXnghbRcS2b/sxgI9Ngzr17tI2Pq9MX62ervmi5mcEGts9ZrDirw1VzJfQbiWvv1IaGn1p5XGr593efNOXos6ZPGGsyeSe7FFei1zbPMNegVDUjkD2au84s5Y8b48zVMZe2fs+mvGbNHpFbezgkCPfb9SqInnw96UzjxBDl77D9XPZ+akXr5d6+09tU641xHb6J89CeRs+RjpFaP//Aah951eRQPjzRSzVcuWtcadb1HelathwtP+fIsBCL03oc4g9GnB0XOVR7J83t+xkCgx5559WofGVOnL1Z//8deXIFe2zzLXINe0YBE/mDmOr+YM2aMP1/DVNb+OZv+mjF7RGrl7Zwg0GPfryR68vmgN4UTT5Czx/5z1fOpGamXf/dKa1+tM8519CbKR38SOUs+Rmr1+A+vcehdl0fx8Egj1XzlonWtUdd7pGfVerjwlC/PQiBC732IMxh9elDkXOWRPL/nZwwEeuyZV6/2kTF1+mL193/sxRXotc2zzDXoFQ1I5A9mrvOLOWPG+PM1TGXtn7PprxmzR6RW3s4JAj32/UqiJ58PelM48QQ5e+w/Vz2fmpF6+XevtPbVOuNcR2+ifPQnkbPkY6RWj//wGofedXkUD480Us1XLlrXGnW9R3pWrYcLT/nyLAQi9N6HOIPRpwdFzlUeyfN7/rNMOZx4J8zpZo00u2he6eXuv/KuXVrWxqWlJ8hZ0jBiKv++3xpccwq17HMP1AyYvXO/3GOrHebJO2LCzhWPnrQRzDlnqP8p31PMOYRz3lnOkuaitPTtfvFSfWffQ0QeaeY5pOr7+Q75c2DmHBHXrf4ev/U0bRgpwQ1vLnGNlmvKd5iBtvfsPnn2tWqnz9PmzbMRUzrzTzSTNdL00rL3V37Yp7S0lJaeIGdJw4ip/Pt+a3DNKdSyzz1QM2D2zv1yj612mCfviAk7Vzx60kYw55yh/qd8TzHnEM55ZzlLmovS0rf7xUv1nX0PEXmkmeeQqu/nO+TPgZlzRFy3+nv81tO0YaQEN7y5xDVarinfYQba3rP75NnXqp0+T5s3z0ZM6cw/0UzWSNNLy95f+WGf0tJSWnqCnCUNI6by7/utwTWnUMs+90DNgNk798s9ttphnrwjJuxc8ehJG8Gcc4b6n/I9xZxDOOed5SxpLkpL3+4XL9V39j1E5JFmnkOqvp/vkD8HZs4Rcd3q7/FbT9OGkRLc8OYS12i5pnyHGWh7z+6TZ1+rdvo8bd48GzGlM/9EM1kjTS8te3/lh31KS0tp6QlyljSMmMq/77cG15xCLfvcAzUDZu+hoFjXZOZ7bfYllU8y33TS2ZexWNKLqM5L74yFtFr7mvmIQfljHPy1rsagUnHIT+rilr5z2E/huHYO2iP7A+VbM3b9zHvwqV7rwasaEEOlE2mqT89Bq1jciudeeVW893e+6zc4857OI6wViE97Nn/GpXU+GX5QfPDigUofmzfzvTb7ksonmW866ezLWCzpRVTnpXfGQlqtfc18xKD8MQ7+WldjUKk45Cd1cUvfOeyncFw7B+2R/YHyrRm7fuY9+FSv9eBVDYih0ok01afnoFUsbsVzr7wq3vs73/UbnHlP5xHWCsSnPZs/49I6nww/KD548UClj82b+V6bfUnlk8w3nXT2ZSyW9CKq89I7YyGt1r5mPmJQ/hgHf62rMahUHPKTuril7xz2UziunYP2yP5A+daMXT/zHnyq13rwqgbEUOlEmurTc9AqFrfiuVdeFe/9ne/6Dc68p/MIawXi057Nn3FpnU+GHxQfvHig0sfmzXyvzb6k8knmm046+zIWS3oR1XnpnbFI7aywgwcqTZRnoTjTicVz8p1dT2NwIz74UylK6nqKL+Oq52wesSjpql7hFVW7mlXpgSrN2iHealfcqj/VN5F39swYzmqskOINyjI9V3MmU6v4ynODR33MEsqz8AhpDio9UKVD7SyHSm9StvSdrUD8GM/1QKWJ8iwUZzqxeE6+s+tpDG7EB38qRUldT/FlXPWczSMWJV3VK7yialezKj1QpVk7xFvtilv1p/om8s6eGcNZjRVSvEFZpudqzmRqFV95bvCoj1lCeRYeIc1BpQeqdKid5VDpTcqWvrMViB/juR6oNFGeheJMJxbPyXd2PY3BjfjgT6UoqespvoyrnrN5xKKkq3qFV1TtalalB6o0a4d4q11xq/5U30Te2TNjOKuxQoo3KMv0XM2ZTK3iK88NHvUxSyjPwiOkOaj0QJUOtbMcKr1J2dJ3tgLxYzzXA5UmyrNQnOnE4jn5zq6nMbgRH/ypFCWF9vDw/wGf5CQgHBSsawAAAABJRU5ErkJggg==;" vertex="1" parent="1">
                    <mxGeometry x="-720" y="-625" width="680" height="80.39" as="geometry"/>
                </mxCell>
                <mxCell id="24" value="Navbar" style="text;html=1;strokeColor=none;fillColor=none;align=center;verticalAlign=middle;whiteSpace=wrap;rounded=0;fontStyle=0;fontSize=61;" vertex="1" parent="1">
                    <mxGeometry x="-360" y="-850" width="740" height="160" as="geometry"/>
                </mxCell>
                <mxCell id="25" value="" style="group" vertex="1" connectable="0" parent="1">
                    <mxGeometry x="100" y="-690" width="420" height="490" as="geometry"/>
                </mxCell>
                <mxCell id="26" value="Container" style="ellipse;whiteSpace=wrap;html=1;aspect=fixed;fillColor=#d80073;strokeColor=#A50040;fontColor=#ffffff;" vertex="1" parent="25">
                    <mxGeometry x="170" width="80" height="80" as="geometry"/>
                </mxCell>
                <mxCell id="27" value="Row" style="ellipse;whiteSpace=wrap;html=1;aspect=fixed;fillColor=#1ba1e2;strokeColor=#006EAF;fontColor=#ffffff;" vertex="1" parent="25">
                    <mxGeometry x="170" y="130" width="80" height="80" as="geometry"/>
                </mxCell>
                <mxCell id="28" value="Column" style="ellipse;whiteSpace=wrap;html=1;aspect=fixed;fillColor=#1ba1e2;strokeColor=#006EAF;fontColor=#ffffff;" vertex="1" parent="25">
                    <mxGeometry y="260" width="80" height="80" as="geometry"/>
                </mxCell>
                <mxCell id="29" style="edgeStyle=orthogonalEdgeStyle;rounded=0;orthogonalLoop=1;jettySize=auto;html=1;exitX=0;exitY=0.5;exitDx=0;exitDy=0;" edge="1" parent="25" source="27" target="28">
                    <mxGeometry relative="1" as="geometry">
                        <Array as="points">
                            <mxPoint x="40" y="170"/>
                        </Array>
                    </mxGeometry>
                </mxCell>
                <mxCell id="30" value="Column" style="ellipse;whiteSpace=wrap;html=1;aspect=fixed;fillColor=#1ba1e2;strokeColor=#006EAF;fontColor=#ffffff;" vertex="1" parent="25">
                    <mxGeometry x="170" y="260" width="80" height="80" as="geometry"/>
                </mxCell>
                <mxCell id="31" value="" style="edgeStyle=orthogonalEdgeStyle;rounded=0;orthogonalLoop=1;jettySize=auto;html=1;" edge="1" parent="25" source="27" target="30">
                    <mxGeometry relative="1" as="geometry"/>
                </mxCell>
                <mxCell id="32" value="Column" style="ellipse;whiteSpace=wrap;html=1;aspect=fixed;fillColor=#1ba1e2;strokeColor=#006EAF;fontColor=#ffffff;" vertex="1" parent="25">
                    <mxGeometry x="340" y="260" width="80" height="80" as="geometry"/>
                </mxCell>
                <mxCell id="33" style="edgeStyle=orthogonalEdgeStyle;rounded=0;orthogonalLoop=1;jettySize=auto;html=1;exitX=1;exitY=0.5;exitDx=0;exitDy=0;" edge="1" parent="25" source="27" target="32">
                    <mxGeometry relative="1" as="geometry"/>
                </mxCell>
                <mxCell id="34" value="" style="endArrow=classic;html=1;rounded=0;exitX=0.5;exitY=1;exitDx=0;exitDy=0;" edge="1" parent="25" source="26" target="27">
                    <mxGeometry width="50" height="50" relative="1" as="geometry">
                        <mxPoint x="250" y="190" as="sourcePoint"/>
                        <mxPoint x="300" y="140" as="targetPoint"/>
                    </mxGeometry>
                </mxCell>
                <mxCell id="35" value="Container" style="ellipse;whiteSpace=wrap;html=1;aspect=fixed;fillColor=#1ba1e2;strokeColor=#006EAF;fontColor=#ffffff;" vertex="1" parent="25">
                    <mxGeometry y="410" width="80" height="80" as="geometry"/>
                </mxCell>
                <mxCell id="36" value="" style="edgeStyle=orthogonalEdgeStyle;rounded=0;orthogonalLoop=1;jettySize=auto;html=1;fontSize=61;" edge="1" parent="25" source="28" target="35">
                    <mxGeometry relative="1" as="geometry"/>
                </mxCell>
                <mxCell id="37" value="" style="edgeStyle=orthogonalEdgeStyle;rounded=0;orthogonalLoop=1;jettySize=auto;html=1;fontSize=61;" edge="1" parent="1" source="35">
                    <mxGeometry relative="1" as="geometry">
                        <mxPoint x="140" y="-110" as="targetPoint"/>
                    </mxGeometry>
                </mxCell>
                <mxCell id="38" value="" style="edgeStyle=orthogonalEdgeStyle;rounded=0;orthogonalLoop=1;jettySize=auto;html=1;" edge="1" parent="1" source="30">
                    <mxGeometry relative="1" as="geometry">
                        <mxPoint x="310" y="-110" as="targetPoint"/>
                    </mxGeometry>
                </mxCell>
                <mxCell id="39" value="Container" style="ellipse;whiteSpace=wrap;html=1;aspect=fixed;fillColor=#1ba1e2;strokeColor=#006EAF;fontColor=#ffffff;" vertex="1" parent="1">
                    <mxGeometry x="270" y="-270" width="80" height="80" as="geometry"/>
                </mxCell>
                <mxCell id="40" value="" style="edgeStyle=orthogonalEdgeStyle;rounded=0;orthogonalLoop=1;jettySize=auto;html=1;fontSize=61;" edge="1" parent="1" source="30" target="39">
                    <mxGeometry relative="1" as="geometry"/>
                </mxCell>
                <mxCell id="41" value="" style="edgeStyle=orthogonalEdgeStyle;rounded=0;orthogonalLoop=1;jettySize=auto;html=1;" edge="1" parent="1" source="32">
                    <mxGeometry relative="1" as="geometry">
                        <mxPoint x="480" y="-100" as="targetPoint"/>
                    </mxGeometry>
                </mxCell>
                <mxCell id="42" value="Container" style="ellipse;whiteSpace=wrap;html=1;aspect=fixed;fillColor=#1ba1e2;strokeColor=#006EAF;fontColor=#ffffff;" vertex="1" parent="1">
                    <mxGeometry x="440" y="-270" width="80" height="80" as="geometry"/>
                </mxCell>
                <mxCell id="43" value="" style="edgeStyle=orthogonalEdgeStyle;rounded=0;orthogonalLoop=1;jettySize=auto;html=1;fontSize=61;" edge="1" parent="1" source="32" target="42">
                    <mxGeometry relative="1" as="geometry"/>
                </mxCell>
                <mxCell id="44" value="" style="edgeStyle=none;html=1;" edge="1" parent="1" source="45" target="48">
                    <mxGeometry relative="1" as="geometry"/>
                </mxCell>
                <mxCell id="45" value="Container" style="ellipse;whiteSpace=wrap;html=1;aspect=fixed;fillColor=#a20025;fontColor=#ffffff;strokeColor=#6F0000;" vertex="1" parent="1">
                    <mxGeometry x="1279" y="8510" width="80" height="80" as="geometry"/>
                </mxCell>
                <mxCell id="46" value="" style="edgeStyle=none;html=1;" edge="1" parent="1" source="48" target="51">
                    <mxGeometry relative="1" as="geometry"/>
                </mxCell>
                <mxCell id="47" value="" style="edgeStyle=none;html=1;" edge="1" parent="1" source="48" target="53">
                    <mxGeometry relative="1" as="geometry"/>
                </mxCell>
                <mxCell id="48" value="Row" style="ellipse;whiteSpace=wrap;html=1;aspect=fixed;fillColor=#1ba1e2;fontColor=#ffffff;strokeColor=#006EAF;" vertex="1" parent="1">
                    <mxGeometry x="1279" y="8687" width="80" height="80" as="geometry"/>
                </mxCell>
                <mxCell id="49" value="" style="shape=image;verticalLabelPosition=bottom;labelBackgroundColor=#ffffff;verticalAlign=top;aspect=fixed;imageAspect=0;image=data:image/png,iVBORw0KGgoAAAANSUhEUgAABNwAAAD6CAYAAAB6dlooAAAACXBIWXMAAAsTAAALEwEAmpwYAAAAAXNSR0IArs4c6QAAAARnQU1BAACxjwv8YQUAAEp5SURBVHgB7d0JcKT3eef3p+8TaGBwA3NhDpIzpHhIQ1IHD5O0RV2R1tIqckVKXFur3XVWTmKn4krK3mzijbXJxlVR7NpsxSmlIsXyKpYtyStbl22JkkhKonhfMxzOfeG+Guj7zP95MT0DoN+30UC/OOf7YTUB9Pn2+77d0++vn//z9/zxF79aFQAAAAAAAACu8AoAAAAAAAAA1xC4AQAAAAAAAC4icAMAAAAAAABcROAGAAAAAAAAuIjADQAAAAAAAHARgRsAAAAAAADgIgI3AAAAAAAAwEUEbgAAAAAAAICLCNwAAAAAAAAAFxG4AQAAAAAAAC4icAMAAAAAAABcROAGAAAAAAAAuIjADQAAAAAAAHARgRsAAAAAAADgIgI3AAAAAAAAwEUEbgAAAAAAAICLCNwAAAAAAAAAFxG4AQAAAAAAAC4icAMAAAAAAABcROAGAAAAAAAAuIjADQAAAAAAAHARgRsAAAAAAADgIgI3AAAAAAAAwEUEbgAAAAAAAICLCNwAAAAAAAAAFxG4AQAAAAAAAC4icAMAAAAAAABcROAGAAAAAAAAuIjADQAAAAAAAHARgRsAAAAAAADgIgI3AAAAAAAAwEUEbgAAAAAAAICLCNwAAAAAAAAAFxG4AQAAAAAAAC4icAMAAAAAAABcROAGAAAAAAAAuIjADQAAAAAAAHARgRsAAAAAAADgIgI3AAAAAAAAwEUEbgAAAAAAAICLCNwAAAAAAAAAFxG4AQAAAAAAAC4icAMAAAAAAABcROAGAAAAAAAAuIjADQAAAAAAAHARgRsAAAAAAADgIgI3AAAAAAAAwEUEbgAAAAAAAICLCNwAAAAAAAAAFxG4AQAAAAAAAC4icAMAAAAAAABcROAGAAAAAAAAuIjADQAAAAAAAHARgRsAAAAAAADgIgI3AAAAAAAAwEUEbgAAAAAAAICLCNwAAAAAAAAAFxG4AQAAAAAAAC4icAMAAAAAAABcROAGAAAAAAAAuIjADQAAAAAAAHARgRsAAAAAAADgIgI3AAAAAAAAwEUEbgAAAAAAAICLCNwAAAAAAAAAFxG4AQAAAAAAAC4icAMAAAAAAABcROAGAAAAAAAAuIjADQAAAAAAAHARgRsAAAAAAADgIgI3AAAAAAAAwEUEbgAAAAAAAICLCNwAAAAAAAAAFxG4AQAAAAAAAC4icAMAAAAAAABcROAGAAAAAAAAuIjADQAAAAAAAHARgRsAAAAAAADgIgI3AAAAAAAAwEUEbgAAAAAAAICLCNwAAAAAAAAAFxG4AQAAAAAAAC4icAMAAAAAAABc5BcAAAAA2MVm82m5kJqyfs4VMjJrndLWZXP5TN31O0JR62dnMCZhX0AGIgkZiHZYvx9q6xEAAFZD4AYAAABgVzm/MGkFbBfMz9HMnOTKxTXdvhbC1X6emhtZdrmGb8Pxbhk24duheI+E/QEBAGApAjcAAAAAO1quVJSR7Jy8PH1JTppwbK0B21ppiKenn06ctf7W4O2dXQdM+NYtHaGYAABA4AYAAABgRxrJLIZsL5nTRodsjWglnZ6UBm/3afjG0FMAuKURuAEAAADYUXTI6A9HT90IubaTl64HgJ3BqDw+eNwK4AAAtx7PH3/xq1UBAAAAgG1uvUFb1e8XCQVF4hGpxqKLv4fNyecT0cv8vuU3yOVFymWRkjmls+LRv81P6/dSSdaC4A0Abk1UuAEAAADY1rRH2w/GTslPx880fZtqok0kEb/+s03WJBy6+bu57dIKhWo6sxi8Tc9Zp9XojKhfv/iC1VvuI3vvpscbANwiCNwAAAAAbFs6Q+hfmsCqmR5tGq5VuzpEervqq9bcohVy5lQ1j1HVCrgZE7yNT4snudDwZvo89KTVbk8MHBMAwO5G4AYAAABg21lLVZsVtO0fWHslW6s01NPgTU/5gnguj1jhWyM/HDkpL09dlM/e9gjVbgCwi9HDDQAAAMC2MpvPyBff/rHMFTINr2cFbUcPLvZj2y6aDN60t9uH990jxzoGBQCw+xC4AQAAANg2JvIL8iennmo4hFQnPqge2rv5FW1r0WTwxhBTANidGFIKAAAAYFt4de6qfO3ccw2vo0NHq/t3QFVYKGhV32kVnufSqHjyedur6RBTRegGALsLgRsAAACALeX3eeWtzFjDsK0aCkn1+GGRWER2FO3vppV4J8+JJ20/RJbQDQB2H68AAAAAwBbRsK0Uq8j/88bTjtexhpDed2znhW01Wu1mlt+a2MGBhm4/GD0lAIDdgcANAAAAwJYIBQPSN9gh//Ozf+N4nWpf12LYpjOC7nA6FHa10O2l6UsCANj5CNwAAAAAbDqtbOvua5P/7u+/JqmCfX8zK2zTWUh3kdVCt29feVVGM3MCANjZCNwAAAAAbLo7hgfl/3vz5zKWStpeXu3q2HVhW02j0E1nZ/2zcz9rOEsrAGD7I3ADAAAAsKn29XfJT0fPyvfOvG57uTVBwi4N22qs0G2w1/ay2UJGfjBCPzcA2MmYpRTb0tfe6pRqVXaNoXhRHtqXEgAAgFtdz552CcR88uUfP2N7uRW2veO2XdGzbTUaukkyZTt76U8nzsjxjgEZbusRAMDOQ4UbtqXdFLapQpWXGgAAgE6SsL9/j3z/7OvOQ0kPDIiEg3JLMKFi9fhhx3CRWUsBYOciBQAAAACwKfaZsG02n5EvveRQ3dbXJdLbJbeUUNBxaOmFhUnrBADYeRhSCgAAAGDD6VDSXnP6Nz/5tuN1qvsGZSP50zkJJFPiLZTEn8mJt1g2p1Ld9SoBvzn5pBQNSykWtv4udsRlo1QH+0TGZ8STr5+tVavcPsuwUgDYcQjcAAAAAGw4HUqqXhm9bHu5Vd3m4lDSwFxKwpNzEkymrd81bLML19aiYEI3DeHyPQnr93xPh7jC75P48D5Jv3W27qJalRu93ABgZyFwA7DtaAu/TMF+xHvIXxW/d5c1+dtGShWP5Ese28uiwYp4ZOOVqx7JFe0fKRyois/D9geAnUar27R/m85K6ti7rcXqNo8J06LXpiQ8lZSI+dlquGYnaII7PUVHpm6cp6FbZrDLnLqlHAvLei2YAM+rvdxK5brLTs6NELgBwA5D4IZdLWaCmb1tHulr88memEfiYT2Zbzz9nhuhjf5fP49lCyLpXFWS2apMLlRkPFWVEfP75kQMt4YzsyFZKNQ3BW4LluVo580hFKWyV/7mXML2Ph4YSMtwR0GwMa7MB+QXozHbyz5yOCkxE7pttOmsT5661GZ72WMHFqQ36v4BlJt00pdM0Svpktfal/WwyWfeaYK+qsQCFYkENn4dAsB2M3i9EuzZS2dsL68m2tZV3aYhW/zimERGpq1qtrZoVAZ7e+S0S2FbWywmv/zAe+TaxLj84s3Xba9zdywhCyPzMvLqOavqLWuCt9SBvrWHbzqBwmCveC6P1l300vQl+fC+ewQAsHMQuGFX8Zls7Gi7yG19ftnX5ZEu87vX6xSYeRqctxgK5fJVGZ0VOT9RlpPmNF3c3uFbuuAcVLnhYCIvDw5mZL2uLIRkMl0fuPXElgduwE5Tqej+HTSBZVAmMn4pVpzfK8K+inRFy7K/vSCDbQXx3wKZfsWsDy+VqcAtKxYJWSf1zKW3ba9jDSddg5AJ1xInL90I2R574IR89NFH5PbhA9a3qQ//o38irRrs7ZMv/6t/I0Pmp/rmD/9Ofu/f/m911/udX/9P5cSdx+SFN0/Jt378E+vnyMnnrMo3Dd7SB/ulWbGBfsnYBG65cpFhpQCwwxC4YVfYHxW5b59fbh/0SDTs3tFrOOSRYfMZabjfL0+Yl8voTFVeu1yWV8bLkq1Q+QZArJDt1YmIpIvNTfydK3vl2oKeAhL0R+V4V84KnL27ZKisVvjNFfwynfHJVNb8NKdIoCqP758XALemgevVbU692yztbbIarWZrP3NN2s5ctYaLasj10U9+ygrbNHRb6sRxE4CdPCWt2NvTeyNsU7/6+K/YBm66HLWftd9r4du3fvQTSZy6JDmzDpLHDqxa9ZYKeMUbMuGkzeQJ5wncAGBHIXDDjuUxededHR5592G/+UC0OeHXwB6POfnl0bxPXr9ckWcvlmSuRPAG3Io0WHp5PGoNlV6vgnn/uJgM7qoKz5NTYXljKrLsvEigLABuXYn44nuC42QJsWjD4aRLg7ZEICif/gcfk8fuf5fcfvCA4200hGs1cNMhpD/4xU/liQfeKwvptPy/f/NXddf56C89YnvbWvj2G5/8uBW+/Z9/8Q0Z+e5zkjrYv2rwVu1KiGdkou780WxSAAA7B4EbdqTb2kUePxaQ/j1bE3Zp5dv9R31yz0GvvHqxKj86X5Q0FW/ALeX1yUhLYZvSmrj7+zO7prpNzdn0aQRw69KhpDpZgjo3M2F/pUTc9my7oO3TH/5AXTWbnU9/6APyZ9/+noxMTkor/ov/5X+y+rgpDd1W0kCtkcGeHhPK9VjBnFa7NRW8xe2f31hmTgAAOweBG3aUDn9VPnQ8KLcNbY9wKxjQ4M0jd+4Lyo9OluUX4zRDB24FU2m/nJpe/0x0Nbd35WRPZHtPArFWczk+WgC4KRq5+cXE2IJDYLSiuq2VoG2pf/XP/5l89vf/QFplF7Sp3/jkJ6xArVkaujUTvFVjEdtOw7OFjNXLLewLCABg++NTMXaME71e+eW7fFZ12XajfeM+9E6/3DlelW++VmCYqYO7uzNS6KzvcxX0EVRiZ3l5Ym0HfXbiwYrc2ZOT3UQnR0gVmutlB+DWEI/cDNNSRfvh89aQ0usiI1PS+co56RTvuoO2Gh3SqaHbv/x3fyJu07Btteo2JyuDt6t//6IsHN0ryeOLQ2Tj0Zg4TVGVKxUI3ABghyBww7YX8lTlY8cDcny/Owdxfr9fEomEhMNh6/disSjZbFbm5+elXG6tz9CBPo/804eD8u1XSvLm7OYPEYuaA/iPHG7c3+OVyYhcnbfvk/LEgQWJ+J3Dr4CvtefUHd24Sp5i2SseT0X8O/RYX9esWzFtqeyRUtVjNRnzeT1mu23PQLNilnEzhlJWzEN4XczAdRKAmVzjYZND8YIMtZWkLVQ228DsnyU90PSa2wbk6kJACmYbPTiQFt86nr/bz8dJ9fr/PGt4rJn8xg0nLVX05DGL5LFmdvV7K2tatkY2a50Ct6JY5Gbl1tiC82cUXzonXS+ctmYdrQVla6kec1LrsfaHX/pTWcisf6b1pVoJ25bSZdPn+q0fPW2Ct69L7NKYjD9yj6RiYXH6OJMtF6VDAAA7AYEbtrWuQFU+9a6g9Ha2fiTU0dEh+/ftle7uLvF66z/GaNg2PjEply9fkVQqJeul1W6feDAgvSfL8tTlzW0UrmspFmwcrvgbHOBr2Lba7ecLPpk3YUPeBAYaGmRLXkmESnK4s2BdPmsuu7YQlKT5mTOXRwIVee/Q4lAMHYI3n69f952Rsty2hqbxJfMUzs+FZMQEF7N5v9V4vibgrUpHpCIH2vMynMjbHkTrcr88HrG978MdBcdg0Gn5e6NlGe64ufzpgtcsl1lHZrny5cWfYbNuj3XnpGJW7yUTeI6lA9ev4zVhoVghgoYH8WBZ+s3j37Ynb/3ecD2Y8GE87ZfxjN+sb78smMfV7bGShlrtoYr0REpyMFHYsiGMuq0uzJrnbpY3bZ57bU/Tbab7XXfYLF9Ha5MHZMzzv5wMWuslaR4vu2Tf0IAmHqxa62F/e2HdAfCleefKAt2G7x1Kyd624vILQmY/MT8Omf3rPhPMT5jlW+3x9ZU6lgpY+/mU2b66XxWX9IoM+6vSFiiZ+ylbj7fadh3PBKx9UV+Xut/lzO+HzPruMq8/3XcuJkMyaQLBVN5j7Vu1x6q9pva35a3rL31N6X58KXlzfaSL9oHbgrnP50bqK1SOdeelfcV+rq/vSXO/ug11n9HnbTcDrK7rDnPbTvO8db12Nblf6/1dNu9ROiw4ad7PdJ+pLnlb1PUaNa/XhAlLe6JFa922+mUDcCsLBVc/3IhfGpeOC+OSCAblC//Dv7gx06dbasHWb/+vX5DTly7JemkAqEGgm8un96nh3Ud/6WH51O/8rvi/+5zM3nNY0g7X1yGlAICdgcAN25IGBIPmC9FfezAo8UhrYZvP55Pbbzsqg4MDq15vcKBf+vt65fKVq3Lu/AWpVtZXGaQHpI/e6ZOOqEe+dbokQc/uGTJ5aipkHZgv1Rbyyz5zUPrcSExG0svDiI7qzYPp0XTQHEjXH5AXzYfHZgM3DQa+fy5hVQvZ0ZBAH2MyHZWzsyF5ZF+qrmqvWPbUPYea3qgGGLYXOS6/iAn3lnzdfNEEam9MLg/0NLToMvf9C7OO0g7Lrgf9CyaI0tO5uaA8OJixgqGVNDB404R/GiyVq6u/PrSSbM4EoHrSJv9HTDj6zr60a9VBq9Hn9dpkVN6atl/nus1qy3fWBKn9sbUfTOhQxlcmInLOPD+nV1up4jWPITfWw0C8KO8eSEvQv7YwZSztHLgd68rVh20r+M2+MLjKdfQxXhyLNhyeqYFZrhSwQjINg/vMejvRn7GGqtp59kpsWWCngiZIurYg1rapOtRYrnxNPbr/5mtKA2in19LyZbW/3rAJytqvF9xqWHxqKmzN2lpsYhIa3a80tNaTBvB6Xyf6046ValrF9ur44nOoNFxWXa8+q4rxglmWF8dEPnwk2bD6F4Az/Xy1msxglwS00vTMNfnDL/+pfOF3/msTRHWLmzTY+vM//NfWMM5v/fgn1syhzdKA7bH7T1gTMWwErbzTCR70Z64nIdlB89zHxwUAsLMRuGFbOtwm8qvvClrVYq0ImG9K77vnHdLe3n7jvLcvzsuPXx6TC2MLks6VpC0SkEMDbfLoO/vl8L42q/rt4IH9Eo/H5fXX32hpmOk9w14J+f3y5vju6tO0kgZEf3+5zfq50U5NR5q+rgYrP7oUl18ZXrBCjq2kAcKPzTqqNLkYGpI9dy0m8UClrnLJYzKYSya8qKzzKZ2dDUrIV5G7erKyGbTf2ZmZ5mfzbBRo2SlY6zYuM9m1/ZM2mgrID802+eWDze8fOnTZaT/XwY6372n9tX7OrKsXxtfer2jcrLe/vdAuv2QCsWarGN+eCa9pP0qa5/7s1bg8cWDe9cBWh9c2G7bZuWBC6oC5j/v664eM6VN85lqbjC6s/WNPb7xE2Aa0wO+7+cVBPBgyXyTUf8FWCfhl9p4jVtBUev60fOhz/5X82pPvl//sox92PXir9U/T2Us1dDt98ZJV9bZ0NtO2aExuP3jAOj124oQM9rq7DEvpUFIN25LFgiTvOWz1clNOX7fQvw0Adg4CN2w7oUBAPm7CtkiLYZvHBGf33n0zbJucyckffe2k/Pjc5LLhQ+pHZyfly89ckMdv65X/8j8+Jp2JkHR37ZE7jx+T10zo1oo79nklFopIKrM54cZW2YywbT10CKxW/7yjZ+vX/1oDMj3Ef8MEjI/sXVh2vg530yGsWs21XlrRpOHQRg+Vm8r41xS2rcfzJphca9hWowHSG5Nhubevuf0jmXeuONOhmcEW16eGZusJ22o0rHraBGIfHE42Vbm3ntB2OuuzQlGtEHSTrrsjnfmWZn/V6rU7unLWUPalzpvz1xO2qeNdu/u9G9hM8VDYNnDz5ApSTYjkejpk5EMPSuLkRfnK0z+Rn7z0snz6w0/Kpz/0QXGbVrx99Jda7xG3Xk89/4L84Ze+YgV9C0eHJHn8oBU8WtLOveY6QzEBAOwMTCWGbSXg98n+vo6WwzZ1eHhYEonFsO3clQX5z//oZ1awVnU4wCybC/7u9Lj88z/6uVwbX/yg09vbI3v3Dkmr9vUGpHdPm2BrWEPIdmgLprGU32oWv9Jd3bl1Ndyv0aGo11Ib/y35yRbCk2Zoj7OrLT6Ps7Nhq2dZMzIl5382tRdhK3RrvjDW+uynOiTytanmK0HX4+pCUDbCsa68Nfx6vfSloj3vVnp7naGv9oXr3qKeh8BudGRPn/0F+eUhnIZPE4/eI2diXiuU+tDnfssaCrobvPDmSfns7/+B/PYffkHOS0FGPvigVd13I2xTJed/T6hwA4Cdg8AN24YOT9rb2yF+F6aZjEQisn//Ykn+fKog//2XXpaxdKGp216Zz8m/+L9fklx+8cPO8MED1mymrepqj0pH28aGD7CnkyRMpHfmB1QNiKdz9cuukzAc6ly+T+trSGfF1ICgJ1Z27OVVk9zgqkQNCpsZHuprIV9/u0GVnwY3WoV1MJGXveZn2GFYYLm6OLy0GfmS88LGA60FbqMmKGrUs20tLs6FrKG2G2UyuzH7js6oe3vX8mG5ukZ0X67t1x2hxut5esV+nSt7rUpXOzpBwoFEUY526iQrBat/4NLho8e6dnc7AGAz5As3q2H74gn7K6XrK0lLsbBMn7jDCqQ0ePuX/+5PrOBNh2COTE7JTmL1aPvO96zl/+zvf16emRiRcRMoTjx6r/U8V/I4VLgNRJmfFAB2EoaUYtsY6E5IOOjOLqkTJNRmIv3T756Xy8m1DQk6M5OWr37/gvyjjx6RUCgkfX19cu3aNWlV/56ECfJKkivs7ooJnd1v0AQcbeYgORZwf6ZWDVLu6snJvvaC+aa3Yg2j04qbV8Yjjv2ftAF6f3x7zOylB/gaAml/Nq28m8z45NWJqOOyZzSEsSl8Om7CgPGU36yHogzFC5IIV6wJR5bSwOvpy3HbJvGZ4sZ+56LDPJ0qSjUcvKc3aw2NDZrtqTNTTpjQS/u9NRs6NQr0BtpK8p6BtBXg1GhV38+uxmwr+3R23X3t0sRjOodYrfb5alQ1FjP7yj29GekzgZM+J52E4Mp8QF4z66tss471vHHzPPe1N/dFgw7nvLM7Z83KqdtDJzA4Oxe0egXaSV/fRjqbrp5qnrkSt12/GpQ9vn9emnGbCZJ1QpChtqL1PqL96FZOhDBt9q2nLsVtJw1ZOVNvtsF+/uRw0grdVtLJWUZTwVUntwCwulK5IrV3kiNdvbbX8SQXxKm2tRa8JY8dlPSpi/Jvv/0dE7p9Qz766CPWzJ4n7jwu29XiZAjfvTEhQvpgv6SO3yP5nlWCs+mk7dkDkYQAAHYOAjdsC+3xiCRi7lV/dXd3WT+LxYp855X1BWXffvGKFbhZ99e1x5XATUOGIfMh68LotFR26hjHBrRp/LsGsnK4o7kZR9frwcG0dTBeo2HBIfOYGjbpTKl2ZnLb4+1OgzadfXSp9usVOy+M2S+7UxCnFVsfPNw4xNCKnT4TWthVcBU3sAJKzRScq6COm3Bn6QQDfrMoGm50Rhbku+fam1o2rfyzC/T0dfZAf6quP50Owb3bhHx2gVCqyfCx0aywvhZnEZh2qBrT/frR/QtWgF2j4Z4GXUFzk+dG7IehahVaMyGi0tl8u5YMnYyZx9K/k3m/NfnISjqphwae/g3IbDVQXG2/1mXT94DL8/UhpU5ssexvhxxUKytDDn3udF237aG6DXBDOpuXWGQxcrt3YL/9lXQIpQndJOHcfqMWvHmLJYlcm5JvPP8La7ZR7cX2G5/8uBW8uT3BwnposKbDX7VHm07KoENFtUebToawbNhoA04VbsNtW9dzDgCwdgRu2HI6e9WAm/3NzEHU+UsjEgwG5K0LGXPAuL5qMh2CevpCUm4fTkh7u3vLFwz4pKczLuPTC7LbHOksbHjYpsPJhhyqTva3F+XFsYoJAupTgEZDATfT0U77iiOtXHJSbKJwSmMDrQzLFH1W5ZreRkMRrXTKl+2fe6m6sRVumQaVaocc9hMNkvaa7XshuXqPsAWHCQw0jAk7BCkabmrQsrIqTNdbMxoN0/S1MGGC3nLBYRkGYqVlYdtSB9rz8up42Bo2uVK6ySHDe8LlZWFbjeaHAyawtQvcrGW29p+Nnb1TA9W02Z/TJbNfFzxWEFuVxbDPqXJt5bZ16gmn19Ow8t7enONwYwCt08Ctpj+ekP62hIwt1FdwWVVuidU/b2lopZViegpPzkn60pj87pe+LP5MzoRux+Sx+0/IieN3yO0HD8pmmVtYkG8//awVsp08e0FSlZIUOmKSfLSJarYVPBPTjj3cDrVtfaAIAGgegRu2XH9Xu3i97oUhOlzzJz9/yfp9sfph/bM5/eX3npHDA34J+P3SHvGKW0u5py0q86mcZPO7a7jSwURzw9dasadBA3OtBOoIV2QqU38gni1tj5aVibD9h+jQOsIavcUlE0zpfj6R9jesvtoK+bJ9UKOzZ0YbBBy6jZsJ3JyGxLYHGw9jDvoqdfuDUyi5kt/jvNzVFopWNVRyun1Xg31eQzGdrGE0Vb8u5psMETvCzuvLvwUvG10NV+cD1r49kQm0XImpfQ31nxi7omIdMnvVvH72tpes8LLPBIze7fUyAna8pYGbevLIO+TLLz9Tdz3PyIRU9w/KWuisprnrgZaGbz824dvPv/YXVvimlW+3D++Xx06cMOHbflcDuJGJSXnh5Ek5ffGyPPXCC+bvKSsIzPckJPOOA5Id6m66mq3O9Jzt2Vrd1hFkhlIA2EkI3LDlAj53j+iWtrBq5QBYpfI5mZxeDMXa9veKx8UjMb9vewRAbuoIb3xvOu171kjIoZqlUN76o2gd0ug0s6jfu7YKm2TOJ8+OxGRhgyc+aIVTUBLxNX6u0SarjfJl+9eQ9t764WXnf94KNrerNvlm0ehlW2khGCpWnO94teqrkMP6bHbSBF+DWUHXul+2Snun/fRa3LGqbj10uLJOnnFtwb7fnwbVl5IB66TD0/e2Faxq3c4ws5MCbsiYwE37uNU+9+iw0i+/bHPFUtmq7qr2dsl6LA3fgnMpmTUB3PkLZ+UHL79qDUNVtx88IIO93XL7gQPW8FMN5VTt51ILmbQspDMyMjlpTdKgp9MXL1lhmw4b1UBNq9gCfT0ydWxIih3x9YdsNfm8eBwCt3d2HRAAwM5C4IYtNzo9L8OD6/twZce3ZMrDVpuYR66HO16Px9UqvJT58LmQ2dihl5tNh21tRmVIo3BA+b3btzdeo/WzlvZfOpTyB5faNrwHW6ucJhgIrhLi+Jus9is53E225DGnDZpFs8H+VW5h1ys3yHb8qzyVgENWt9P6ROpEDD+82GY7PLZVd/dkrSrQ1V4zGsyfnwtZJ612u68va00CA2D9NGzTKrdEPGL9rYGbnl4ZvVx3Xc+lkXUHbksVTPilJ+2bpjSA82VykjQ/g1cvyndNEBecS98I4hrREK0S8FmBmvaRKxzfZ/2u9+82z+VR2/M7Q1E53rG26j8AwNYjcMOW0yGgU8m0dCfcKZP3+3zWt6j6Aa87UrLt19QMHfbWcf1AKxR076VSqVRkbBf2b9ssgVXCGI9n901GsdJzo/FtH7Y15HFn2ctbsA4aVbilWhi23OiprBodOty2vMP2kRfHoxsStint3ffo/pQ8ezXW9PDy8XRA/u5CQN47lGK2UqBFV8amJXFk742/f/2+h0zg9u/rr5gvLA4tHewVN1nhmDllB+t7oGno5nWYPb7k4oReq9LqtvFp24uG4z0S9gUEALCzELhhW5gy3zjGwiGJhNzZJePRoMwt5MRrjqsOJPJWtcJaHTa3q+UC8cjab+9kZGpeiiUqJtartJODJhfMZP2Os1lqReehjoLV8ysaqIhfh7Ca18DpmZC8Nb2JBw2rcCss9Ps2v9F9rEHVbLaw/rCoUfVjedXhrk7DlGXH0Ak/7GbSVWGznYfNfq1foOjsqbpf63v7xWRQXpuISLP0dfGBw/Py1lRYzpl/E5oZZq5f1vx8JCZPDs9bjw1gfeyGlTpWuV2+XuXm35yWCYsVbFt/SOR97W3Hy54YPCYAgJ1n9zWRwo6kx5NXJ+asD2Nu6IhHb/x+V0/O6suzFhpc3NGds37XQ7KES99wzsynd91Q0s22WlTpNHGAr+mhpg0Owitbf8A9nrY/KNB99v3DC2Z/z1r9qnQYnAYE2v9rq4bZOk0wUGpiWF8ztiJ6bWswvHAyu/4DtkaVc6utr2K51X1+642l7cM2fe/+FbNf392btarMavu17u++dVSzBs060fv62JGkvHswLYOx4qoFlxoQn57dPoE1sBPp57vRydll52mVm8OVxXPmotxKrKGkefuJp54YOMZkCQCwQ1Hhhm2jVC7Ltck52dfbIV5va1lwJBSQtmjYhFs568Ds4aGU/OhKW1NDS7VH08N7U9aBmepoj0og0Pq3rKlsQcZnUoLW5IuN942cw3Cx8JLQtdHuVWyQqRWr9jf0b2LykyzY74v7TBjh1Fy/VNma71aCThNYrBIgZZoc8uc0s2tPrCx3dOZkLbxNhlM6oYO+R9hV6Wmj/6zZPyOBtQezEZ9zkJdfZfZZpwkX1jPz7VaZd6gOHDLhcdRhfbYyZFa394FEwTrpMFadFfXt2ZDjJCQTaT4uAa0aNZ/xBno6l1W5PXTgNnnmUn1llzVxwAYMLd2W0hmrqs+O9m57fPC4AAB2Jj5BYlvJ5IrWkMuhnoR4Wuzz1L+nTbLm20Krl1usJE8cnJfnRmKSbDCrY2e4LO8eSkt78HrvtoBfejtbb4qbzRfl6sSsoHXTGee3La2UdNq+4SUH7Y0CskYH8U6VRJ5NzLOcRiM3Cnl0EoGt4LRMBWtSA6/jpCYz2eb61LQ53H+1UpXBtoJsBH1b6jXvJ04zXp6aDss7+zOyVmF/1ZoR1C4cndF9vtO+Mlb3+RmHIcbxbTQEcrUJHAoOvdvCfucgMlty54WnQ1aPmPV72JzenIrIm5P11WypwtaE1sBuUqty29d/c1KEz737CXll9JJ5jdW/x3nOX5FqLCKSaJNdK58X78lzjhd/4sAJAQDsXHyCxLajQy5HpxbMgWRr1Rl+v1f293WI73o5k4ZpTx6al/eYQG1/e8EaGqYHWhquHUgU5X17U/Irw/M3wjadfGGfub23xeAvVyjK5Yk5qe6cYpNtTYftJXP2AcNIKuA4HDEeuLkBtPeX03C0KYdAL130mZP9W2ZkE3uJVRwGUmYdlk1zDqdhqHavsUa9xEprfJrxBv3Ozs8Gbc/XmSq12qgZUYfhnVNmH1loIiDRp18qr/31PRh3DvPOzIZW7Rmp++hLY9G6fa0jZL++Rky4lyvaL+dIOuAYPNXeyzaT0zBWrTxt9B7odFmubP9a16uPOgxDdbqv1d6CdQ07VUaWq7d270jALVrlli/cnISkP56Q//aRDzte33vqnFUBtitp2KZ9264PJY0Hl//boUNJh9t6BACwc1Hhhm0pmc6aoKAiQz0dLU1oGAoG5OBgp1ydSJrPMyXrgErDNj01okNS9/YmrNCtFVrZdnl8dtXqDqzN01fj8s6+jPmgXjIBUdU6kB4zYdvz4849TvaEb85ApvtBmwk35myCOw0wXp+MWBUvWoGl960VRC+NRx3vezMriZwCjSsmlDnW7bEqpWo0JHhhNOI4zHbWBFNaqdUbLd2Y/TXQIKc6NROVQ4mcxM26i/pXf86JsHPgc3I6bA2B1Wb4GvJpSDJpAqgXTRDV7KzC3eb+PaLbv/5N4pkrcXlwMCN7IstnntOX4lzOb8Iav1wwwVhPtGhdby32txXllfGq4+QPz49G5eJcUIbaCtZ+pj30Kua6CyYU1ZDtqlnnFbNtNAjVLwFqIWeP2Q5TNn3gdDs+fbVN3tV/8/no+tJ99YUR5/2yO1qSzea0f2pY/fxoTA525GXpCP22QNlaP05Vp7p/pru8yyYs0HX3ynjEsepMh4VemQ9KT6xkfamitA/ed8+1m7C0KHvbi9Z2twuX5xwqZH3kbYArtMrtzOVxuWvJjKU6rPQTd94vX3/zebsbWBVglXfcJhJ2bwKrLbcibFO1Kr+PHbhPspWyvLv7kAAAdjYCN2xbWul2eWxW9vYlblSprUfQ75eD/Z0yu5CVmflMw4kZAn6f9CSikmiLSqvm0zkZmUpS2bYB9OBdQzc9YNam6sXy6hUoOgxwqU4TwM05VMqdnApbp2Z1hjcv2HAaRqlVTt85l5A+8zx1neiwzQkTLBUaDCfVYOsZsx4fGEhbwZcKNQjSLiUD1ulgIt9USKUhp1O/Mw1NXhiLyYsmJNVeY4Xy4nlroSFhb7Qs4zZVifMFn/zdxTZrXejMovqsNHTJrKi0yiZDcmd3bk2hqd/c59E9+Yb7iFZirjaJgi7jyemI3NWdtf4+0J63hqTamcndfD4Bb8WEqL6GwaRerz9WlM0WbzC0+UIyaJ2WeuzAghX4xh2qFbUa8PsX2q3rhEyYXKgsVqHmGgwn1SX46bWY3GdC+dv2LB7AauWhbvuzJmTVk1a4JkwY2hYy9+tdDAozZp2OLNhvs/gWVAsCu9V8KmsNLdV+bjW/+e4nZDyVtO3npqGU95VTUjl2eHcML7UJ25Y6n5qRcrRN/nzyjPxq1yFp8wcFALAzEbhhW8uYDyMXRmZkb2+HhIPr3111EoauRMw6ZXIFSZtToVSxej15TWoT9HslFglLJNT6S0KH6U3OpWU6mRZsLK1WyjXRn0wrh2KB5QfMWqV0Ya71b8t11sTNrHDrjjgf+GuwdXWhueGYThrNwrlWmpNrNdGFOeeDhWqT29DJ0a6cCdyc+yxqYFMoO1eq6pZ70wRna61yO2ZCMq0qXMi3VgV7yjz2vraCtR8lwhVrkoBrKedtuNrzqTnamW84PHij7Amvb//pijiH1rpfN1onq9Gg9a2Z5UGmBvQaYs7kmtt+WxFeArvZlbEZ2ZOIWyMRanRo6dh35uTs9ET9DbTS7fW3pbp/0JwGZMdKLiwOk3VoyOrzBWTC5xFfafHLgm9On5cnOvbKUKj1fsIAgM1HDzdsS0srUIrmQ8nF0WmZnXcnwIqGg9LTEZeh7nZr2Oig+dlt/nYjbCuWSnJ5bK4ubKPIbWvd3ZOtO6/PHEB3RVoPl+7szspm6o8Xlg0bdZvOLNrnYrhwrCu7ocGPBlRD8dYmSLicDK25Kb4OgXxoKH1jyOJ6aWisQy1rW1QnXAi2uH01vDvetbn7ZU2f2R4R/9rXiYbi8cDGBNda3VZoIdTV4aRH92zMJBzArUpHG7xx9tqyUQfaw+wLH/q0HOlynplUZ/P0nLlovqnJy07juTxqhYaNwrburiHrZ81CuSB/ZUK35xfGBQCw8xC4YVt69mpsWSNwDeDGZlJy0XwjWihtfl+iZswsZOT8tRmrKm+p83NBOT27i/qObKH1HMjf3Zu17WWlvQHfM5iSWAsH+VpFtK99cytfNLw60Z+2epetxVqq8O7qzq35/p20mcfVoX1rtZblfWAoYwU266WPdCG59tdouwm2HjuQsgKuVtWGSEbN/vjo3pSEAutb/1qh+Oi+lHi36F93jbU0NFzr/qO3OzGQWXM4u9p+UrGpblvbclXlgcF0XYUsgNbp5AlvnL1qG7rdO7Df8Xae8WkruPJMTMuOkDbvibq8Jix0Yhe2LfULE7g9k3S+PQBgeyJww7Y0kQnI9863y8jC8qFo2VzRhFrTMm7Ct0pl84bxNaJDVC+MmGWaXpDKktK8gjnQ0z5CWr1SLm/B2K5d6GETROhBecC7+sG8Vh692xwoH+vKOV5HG7G//+C8DCcKazrQ1wkDdAiiBgtbYahNZ9VNNxUW6rq6uy8rTw4npTvSXCilAeVDTd5/M3QCCp0duJkQSUPV+802fshs62ZpVZ72ArvHhKtrCWV13egEKo/uT93oo7ZWGrq9f3jeChXXGsroetbZkZ84ML9suXVihA8cTFq98pqdNEafi+7r7z+4IJHA1r437jX75yP709KxxuGlWln5iAkL44HV91Ptwaa99548lLT6uznxmvXy8FBKDpjX+FqrEXWY6+MmUF1tkh0A65fJ5uWtC8uDpMXQ7T+xJlJwZL7c9Lx9cXtXu5kviD3nr4r35VPiSS44Xi0QCDUM22peTU/JdHFrqpcBAOvj+eMvfpXRbth2vnG640ajdT3Yubev/kBaJ1LobI/InvZoS5MqrJcGbVPJtKSz9QdjV0xQ+PJY5EaV3l09WevgcDsYSwdkPm+/vg6Zg1K/r7qu22tgpcFKI1fng5KxGdqlVVAD8ZuVYppbjpvQNV9abHKfNT91WJcGKqpkAsxRsxyzOZ/ky14pVT0m1FysWtPQQ4eK6jDDtewWxev3qRMp6DKWKl4TmnrFJzrLpDahr1izc/aag3ANRBrlINNZnznVD1FebR29PWNfZaUH/nbDX3WSAZ3ZU0+Zotfq76UCZlnD/sVJCwZMiFHbpvr/ybTf6jtWMLfV4Yw+c9lQtGjNprlSbYbWZN5v1vPN63eY7bWenlaakV9LB63lzRa81v1rs/qgbzFo6zLBSU/k5syzOmOphmk6m6kOo9Xnpesh2CBw1X1H173O9rlgHiN//TWo+4bfW7EmaNDnmgiWre3o5nDXxfW1uD3mzTpOm8cuX38f04kOtA1lxFe2gqg+81ybCcZ0vxxJBWRa98uC2d8rHqsnmc70GfJUrIo2fR79sZI122cjZ2dDYjdh8h5zH90x+9BKX2OTGfvh9kea6BOXNOtB96EFs+y63MWKbgfP4vow20KDsJXv7daMtboNzeOmiz5r39OVq0NtQ2Yf6DDLO2BCvdp+UNvmOsOo/ruhz1Ff+/1mv+5cEfrpRBW6PFnzekmZky5TbRvpvqj7RyJUsiZZaQtujy91gFtBNBKyZi71+5b/w/2Xbz4v/8fPf7Dq7at9XVLdN7A9ZjLVoG1k0pzGHYeP1sRjndLe3i1NKRTk13qOSlcsIQCAnYHADdvS0sBN6YGyDnPTmQFXHuB5zZF0ezwsHfGIREKtNYxfTcUcyensozrjaa5QHzjoAf5LJiTQUGqp7RS4AQAAbDcauh0bHlg2kYIaSyXlt7/z72VsIbnqfVjBW2/X1sxmmlwQz/Tc4lDXVYI2j8d8adzRL+FwTJpiwjbvmTPS5gvK++68X4b79gsAYPsjcMO2tDJwq9EhbjpsarjDvrIi6PdLWywk8WhIIuYDm8eF6hXtLZLK5iWVyVvVbEuHjdZow3Wd6VCbr9vVRBC4AQAANKZh211HhupCN/Wll56RL7/8TLN3JNWOto0P37Q/23RyMWxrMGx0KQ3ZOkzY5vU0V4bvmTMh3uXLYpXyX3fitnvl/qP3CABgeyNww7bkFLjVaPCm1W7Dibw1LMmOhm1R84ErbD60BYM+CQX8EvD7rOGndkGcVq+VKmUpFCvmVJJ8oWRNgFAoOn9LqcPWzs6E5Mp8UBoNPiJwAwAAaM7wULcM9HTWna/Vbhq8ff/M69I089mvqqGbOVVjEfMh0pz865iZXift0t5xydT1oG1u1Uq2pbRXW3t7j8kCI03fxjM6Kp6xMdvL7h4+LidM6BYKBAUAsD0RuGFbWi1wq9FeT9qg+2BH3uqJ1Gw/Jq+5ov5nNeKqilW1Vq0291LQ3j/ao+3CXNDqGdQMAjcAAIDm7UnETPDWY1vt9sroZfmyCd5eGbss66IhXCxq/dRqOOvnShqmaVVZrmCdPPn1Tc7Q35aQD9/xTnlhekYms01OtmQe13P1qnhmZhperS0Sl4+950nrJwBg+yFww7bUbOC2lM7S1x8vyqA59Zjwza0ZFrXR+0zOb/Vl0+bl2kR8rQjcAAAA1kYnURjo6ZB9/V22l2vw9r0zr6+t4m2T3Nu/X379nQ/JvQOL/dY0bPvCCz+TSwtzjW94vV+b/myGhm0fPPGYdLXvEQDA9kLghm1pPYHbSjqrYVe4KIlwxZq5MhasSsyvMwVWrBkvfZ6bu36x7JVytSrZsk/SBY85eWWh6LPCtVkTtlVbfJUQuAEAAKyPVrnt698jvXvabS/XoabPXHpbvv7mC01NrrBR4qGQPHnkHfLQgdvkaEefxCL1s6Z+5eSr8t2LZ21v70mlxHP+/LJ+bc2irxsAbD8EbtiW3AjcmqGhW7m68Y9D4AYAANCa1YI3dXZ6wgrfXh29vP4hp2vQH0/I+w4ctUI2rWZLprJyZWxa5s1Prc7TYbErfePMSfn6mVPLzvNMTIjn2jVphfZ1e9/x+wUAsD0QuGFb2qzAbbMQuAEAALijFrwl4hHbHm81qULeBHDj1tBTDeBShZycnZmQ9dIKtiOdfXK4q1eOdPVZIVs8GLJmtJ+cScp0Mm0FbUtFIyE5NjxQt5w6xPQrJ1+xfr/8xusydfWKuEGHluoQU/q6AcDWI3DDtkTgBgAAgNW0m9BNK95WC9+W0io4Dd90KKr+TNlMiKDhWjwYtgK1/niHNfmB/l6jIZtWs80kUzJrTvq3E12uu44MOS5fJpeT/+uvvy4vvn1K3EBfNwDYHgjcsC0RuG2chYJXSlVv3fmdoVLdeSWzDXQmVh12G/WXJR6oiGfJZimUPJIu208i4ZeKtIXqP3zOZn06vazt46mKeUdKFvw3/g54K9YEGKvtDQt5r2RKPmvyjI5w8zPWqmTOKxXP4jrxe8zj+avi9dq/NaaLXilU6tdfIrj6Y+r61N6ANV6pWv0F/fV357hu42Y7BHw3l61g7jO95D51vUeCFfM86u+zWPZIyqyjNrOsSy/X56ScJhopmdvNmP2g3WzPsM/+OrmiR7IVc9+BUt3zqa2zleto5bIHzTqPmOdntx71/vU9YeU+lTL7s9c8XtRfv1y6lubyfsmbdRky6ywRKlszG9tdbzbrt+4/7Ctbz9Oze95+AOCWodVkGry1x6PWT510wS0aqKWzeclkc1YlW8b83ihkszM81C0DPZ2Ol3/jJz+Ubz79Q3HL++68X+4+eFwAAFvDLwBuKT+9Fpc5m5lWP3VsdtnfOiPrz65FTUh088PqULwoD+1L3fj74nxQXh6P2j6OBkkfOTK/7DwNnH5wqV18Jlj5B0fnbEONrAln/vZ827LzNES7fU9O7uypDy01sHnmamzZcwqawOzBgbQ1Y20zdJmWBrwa+OxrL8gJcx8rg6uXx6JyLVX/DfVHDiclFmz8wXvGLONTl5Y/N127t3fl5O7e5UNQnNbtA2aZhjtuzlw2lQ7I0+b5L6W9Ce/qy8odncu/sb+6EJBfjMbk2IrH0+eklm7blcvyornOMZvlrDk5E5EzMyG51zyubqulnroUt7bTynVkt+y6re/rz8hwolB3/yML/rp96hdjcROQluTBwcyy85N53S/iViBXo4Hbk4fml4W345mAPGf282zp5vXazPUeHkrZBsYAgO0rYwVieRmdXJwJVCvKQkG/NXlB2PwMBoNWCKe/K5/PZ/2twVn5+kQF+nuuULL+Tl8P1eZTGckXStKqC9em5MrYjHlcr7VMR/b3LwsFP/7I43Kgb8CqdsvkW/+i9tk3n5d8schkCgCwRQjcgFvQIRPYHO/KNrzOSyZg6QxX5P6BBROCLFYSeVZUBx0yocjQ9VDr9GxYLswF5APDC9bfXpsvlcfSfqlUq+ZDrEcms37pjTp/eL1/ICN90aJVBXVhLiRvTEWssObgiiDmuWsRyZiw5OG9adkTLkq65JNXxiPy82sxE84kJehrroj36J683N6ZsyrsRtNBeWUiYlVcvbM/U3fd/lhRTqw4PxpsPpx51ARbbcGyVE30cyEZlJNTYRlqK0hXpH5WMg2plgr57Z/PB0yQ5DfbR5fi7emwvGq23z6znHYh4NsmGDtinq9dVZidayao85il1Z9OgVvNlfnAssBNZ/ldWsXmtOxR87zyZnFeGo/Ji6NROdBetK1Ga4bOKvwzs/3LZt95dH9K2s261spCPX9p2FYyj/dTE/hFAxV579CCta40uH3ePP7PrrXJ+w9t3Ux3AIDW5QtF67Syr9pW0gBPTxrgvXr6ct1Q03fdfkw+3/+b8vmvfFGm5uakVS+8/YpcGLtMXzcA2ALu1VkD2DG0wkzDhaWnlXQY4P72ggmGKhI2wUy3CcdWBkJ+3837Cfl02Kfnxt8RmzBnJBWUnmjZqiC6Nh9suIzh6/fdGS5boVeHuc2l5PLbaNA2mQ3IO7qzMmgCq3CgapZxsdpJK9auLTR+jKV0+fXxtKrpNhMYHenIyyWzjHaRj8+kNivX31pGIIYCi88tboKgO7sXDwJmcvbff6x8HL/DUFcNrKzlN6c7rg9f1uHAdjSEfG3CvjJxJR1OOpHxy5HOgswXfNaQZCcayk2bIHVptZhW1flWWTkaFAbM+tchywfb89YQ5kILQ8p1ObXC7e7ejBWOaqCm4a3+vtRoKiAF8/weMOGu7t+6zw6YAPkeEyrO5r3WMGUAADaKhoFvnL1mDVFdqjvRIb/3mc/Ku247Jm6Ynp+R//Cz78tCNiUAgM3D0QR2DT2Y1iFjG0WHKerBeDxwawwz06qg87NhSRV84gatLtIKKa3k2mvW40i6ucbGNT0mEEmuCJAWri9bT2R5kKJBloaEqeL63+I0gNEwJlfa2LdJHVbrEXdbadaiKqegS3sKXkoGZDa3+rYdzQSsSrx3mNtoUHc15RxiaiCrQ0J1O9dcnQ9Ib6y5ob1Kt7HeR8i3/tfZ/PX9pDvSePhPquiz1lHHin6CtdvNF93Z9wEAcKKh2+kLI3JlbHrZ+Rq6/dYnPy2/+vDj4gYN277yw6/LaxdPCgBgczCkFLvGse6cNUSxWPZa1SlzOb+cnwvWhTRrcVtnXrpjJavBf/x6FdgzV+ItBTnbwRUTtkxm2m/8vccElfcPLv929d17M/LTKxH57rl22dtekDu6844THTRDK580wBpqK1oVUKemw9a2aTYkDZkArbSi6ql4/aZ2kw7oxAI6ScB6Ba5XkuXM/rSyWk8rvr5/4eb608sf2bf2b401hDyfDFmBllby2Vn6OEofJ9JgKGjBLK8OGdVV0uFwn9oD7uxMRF6ZiMpj+xekkWsLfukzgZmuz4F4SUZNgHZsj31fGY/XIwNtJauq7Yh57WilmZ6Om9fmaMo5YP35SMy6rbbH0X3i3WZfbGXOgtp+Elrlpa/7Y9BXP0FC8PrtSuVWlgIAgOZpbzftHTc81FPX1y0WDlsTKtDXDQB2FgI37Do6NK03WrHCt9mct7XAzQQLqzXC34k0POxfMqGAXS8vDdc+eHhBLphASJvh60QGGpxopdN6aAij4ZrOhKmPp9VSI9fPW69qdTEQsZvVUj+qVluJbRr0Dwub57C37WYvuYB3bRVqT11c7KFSMsuvoZv2wnOqxlr6OMrv8JS+8Xbixu/63O/uy1pVfnY81uUZ+fHleMMgTJ/VaCpoVcQprU7UnmcaQjrNVjoUL1gBmoadV+eD1lDgyCpVoZ2RslXRljdBbN7c7rQJY3U483pnCq092uqVgx6RBvtIS/sPAABrNDkzb/WbW9nX7ckH3ivvuv24q33dRqbH5PF73kdfNwDYQARuwC1IA447u1f/llSDrMMdeTlkTq9PhOXkVEQOmHBIh5uu1TUT3Gh/tdn84tvOnnDJmgn1WHdz39bmTcjjWxFs1SZEKNnkKlrpFfA2P5RxpVJ58dvlsLc+LGo3AdKd3ev/lvmunpw1NLlq/ms3gVRbg1C32cd5eG9KfD6dhTYmB0xYdfuexrfTIdh6enUiYpZFt2d9uDSZXqxK1B5out0i19fFqAlKhzvytverM8N6RYeeBqwJFPavmOTCjk5WUQu297b55anLbVZFZHd09YrKarV+49cC0IIJNP0NQregt2JNnLBSbX8Ket0d6gsAwGpqfd2O7O+TRDxy4/xaX7f//S/+TC6Nj0qrNHDTvm4fe8+ThG4AsEHo4QZgVRrFHO5cDK9S66gY1ObzOsupTnqglXJ6GksHZMqEKs32SJvLeiWxIpiKBRaDv9kVEw5oBVa25Llx+XpMZxd7iYU3oGdfT6xkTfKgw2vbXKqg1MkodGIAnezh4lzQNkha6d6+rFUBOubQT6/Wr02HUes2+4EJwtTSHm0r6aQO/eb56UypOmnDygq91dSq4fIrhnPqttAQdWUEpvtPeMXMrTrxhUqu0qNOQz6dXCO1YiKI2u1a2X8AAFgvDd3ePHvVtq/bH3z2c672dfuLp/9a3rp6VgAA7iNwA1BHi4Z0GGlttkn9++r1kCW2juo2DW500omPHE7eOH3g0Lz1BnQt1XjyBB2a+JYJb3Q2Uu0lt5QOjdU+Za9PRqxeYYvX98qLo1Hxeqom0Fp7zzmtbroyH5SzsyFrCOVOG1R4dE9eKlWPnJsLr3pdHc6rlWrlqv2z1CG/R/fklm03rbjTgK7SINDbZ7bT3PX+fGsJFCtm3V+YC1m/10Kzmj2RkhWO6XbReK16fTtpWNaxYlhyx/Wei6+Z/SJ7vd+iVuqtDBZ1WLUGeS+ORa3LVdrc32ta9Wdu3x4mcAMAbB3t63bh2mTd+drX7TO/8iFxQ75YkKdefVaeP/OqAADcxZBS4BakYZqelvrUsdkbv8/lfPLGVEReGo9a1UNlk31o2KHDFNfTc+3aQlAGYoW6fnhdsbI1PPGwzfDEp6/GzP9j1u/ay+toZ972etpg/+krMWtyB781RNBrzTz5wEDasYeZnTdMOKOnGm3+f1+/fb86DQn//FTnsvM0jNqIfn8rH0efl0564ER7qx1I5K3tq+vM62k8LPIdPTm5nKyfeVQr39ImrNrfVlz2vPS+35wKy2g6YFXo2Rkw5+vj7m1rbkjv35xLLPv7jq583bBlHaqqs9u+ZMKxV8cjVn81Deh0Qod97csfR6OzB816etbsQ986m7ixX4QCJvQdTor/+lBkHTL64FBafn4tKt98u8MK33Q/10kpHtqbpoMbAGDLjU7OyUwyvSl93abnZ+Sxu99n/r0MCgCgdZ4//uJXaVKDbecbpzusA9+1eOzAgjVRwlLPjUTlYjIk62UXoujwutWqslbSpvOt9Pxy00zWb9vzbOW60zBj1gRvmZLPKifSWTTjDQIlrQzSiji7vltTGb9Eg5W6yRm0OkmHfy6dMECrrXQ4Z03ABDexUKVhPy2t6JrRZTUBkV5vj1mGtfTf0uWrLZn2rdOeZiuHKdZoEJW3mb2yK1I2QV/jx6zNoLvHrEv/Ksun63KhUF+ErEHU0mXTyiytJusxz9mz4rxu8zjeJY+TK3msSsCV27o2scjSMFWHas6bx196vzXW9tTJL5YMt9VtWax6b8xkO2u2YSxYtWYBrT3vleuotpw1eplWxNV689nRfVKXV5dJ90ftBeg0uYJW4U1kA5I3zztk1pnuZ3brXWc1nbo+i64GlroPe0nbAADbiIZtdwwPSCyy/HPtVHLOtb5uSvu50dcNANxB4IZticANAAAAWG54qFsGejrrzv/K335Hvv/8T8UNWuH22D3vk+G+/QIAWD96uAEAAADADnDh2pRtX7fPvP9DrvZ1+94LT9HXDQBaROAGAAAAADuE9nV75fRlazbTpbSv2+c/+znp7ugQN2hftx+++qwVwAEA1o7ADQAAAAB2kEw2L2+cvVYXuu3vG5Df+8xnXQvdTl89K3/x9F/LQjYlAIC1IXADAAAAgB1Gw7YXT16U0cnZZed3JzrkC5/7b+TJ+98rbtCw7T/87PsyMj0mAIDmEbgBAAAAwA6lfd2ujE3Xna993X714cfFDVbo9vPv09cNANaAwA0AAAAAdrArYzO2fd0+/sjj8ruf+ceu9nV79uTz9HUDgCYQuAEAAADADufU1+3YgWFX+7q9duEkfd0AoAkEbgAAAACwC2jY9urpy7Z93T7/j39THr77PnFDra/b9PyMAADsEbgBAAAAwC5RKlds+7pFw2H5p//RJ1zt6/a1p/+avm4A4IDADQAAAAB2Ge3r9taFEdu+br/1Dz8t0VBY3FDr6wYAWI7ADQAAAAB2oZlk2rav27tuPyaf/ye/6Wpft6/R1w0AliFwAwAAAIBdqtbXbdqEb0vV+rq967Zj4obpdFL+6sqbMlXMCgCAwA0AAAAAdjXt63b6wohtX7ff+uSnW+/rFgxK5ehRmY9H5M8nz8hr6SkBgFsdgRsAAAAA3AJqfd00gFtK+7rphArr6usWj0vljjtEIpEbZz2dHJHnF8YFAG5lnj/+4lerAgAAAAC4JYSCAbnryJD1c6mp5Jx8/itflKm5uabup9rbK9WhIcfLD0Xa5YOdBwUAbkVUuAEAAADALUT7uulkCnZ93X7vM59dva+bzyfVvXsbhm3dgYg81D4oAHCr8n3wo//wfxQAAAAAwC2jXK7I9NyC9XsiHr1xvvZ1e/edd1u/v3X5Qv0NtV/bkSPmRgnH+74j2inv79wvUV9AAOBW5RcAAAAAwC1J+7ppT7d9/V3i990cAKV93WImfPvGT34omXxu8cxIRCqHDlmhm5OHEoNyT6xbAOBWRw83AAAAALjFrdbXbdKEbI2GkIY8PvngngMyFIoLAIAebgAAAABwy6v1dUumssvOt/q6/fo/k/133Ol42zZfUD7Ve5SwDQCWIHADAAAAAFih25tnr8qVsell53fH2+RfP/yEfOJo/WQK2q/tUz1HrdANAHATPdwAAAAAADfU+roND/UsO//jR49L1B+QPz31mvX3/W198oA5AQDqEbgBAAAAAJYZnZyTmWS6rq/bB4aPytGOLvnZ6fNyKJwQAIA9hpQCAAAAAOrU+rqls/ll582NJgnbAGAVVLgBAAAAAGxpwPbq6csyPNQtwWBQzl0es4abAgAaI3ADAAAAADR04dqUAACax5BSAAAAAAAAwEUEbgAAAAAAAICLCNwAAAAAAAAAFxG4AQAAAAAAAC4icAMAAAAAAABcROAGAAAAAAAAuIjADQAAAAAAAHARgRsAAAAAAADgIgI3AAAAAAAAwEUEbgAAAAAAAICLCNwAAAAAAAAAFxG4AQAAAAAAAC4icAMAAAAAAABcROAGAAAAAAAAuIjADQAAAAAAAHARgRsAAAAAAADgIgI3AAAAAAAAwEUEbgAAAAAAAICLCNwAAAAAAAAAFxG4AQAAAAAAAC4icAMAAAAAAABcROAGAAAAAAAAuIjADQAAAAAAAHARgRsAAAAAAADgIgI3AAAAAAAAwEUEbgAAAAAAAICLCNwAAAAAAAAAFxG4AQAAAAAAAC4icAMAAAAAAABcROAGAAAAAAAAuIjADQAAAAAAAHARgRsAAAAAAADgIgI3AAAAAAAAwEUEbgAAAAAAAICLCNwAAAAAAAAAFxG4AQAAAAAAAC4icAMAAAAAAABcROAGAAAAAAAAuIjADQAAAAAAAHARgRsAAAAAAADgIgI3AAAAAAAAwEUEbgAAAAAAAICLCNwAAAAAAAAAFxG4AQAAAAAAAC4icAMAAAAAAABcROAGAAAAAAAAuIjADQAAAAAAAHARgRsAAAAAAADgIgI3AAAAAAAAwEUEbgAAAAAAAICLCNwAAAAAAAAAFxG4AQAAAAAAAC4icAMAAAAAAABcROAGAAAAAAAAuIjADQAAAAAAAHARgRsAAAAAAADgIgI3AAAAAAAAwEUEbgAAAAAAAICLCNwAAAAAAAAAFxG4AQAAAAAAAC4icAMAAAAAAABc9P8DAoMP+g9IRBsAAAAASUVORK5CYII=;" vertex="1" parent="1">
                    <mxGeometry x="-680" y="8560" width="1244" height="250" as="geometry"/>
                </mxCell>
                <mxCell id="50" value="" style="edgeStyle=none;html=1;" edge="1" parent="1" source="51" target="55">
                    <mxGeometry relative="1" as="geometry"/>
                </mxCell>
                <mxCell id="51" value="Column" style="ellipse;whiteSpace=wrap;html=1;aspect=fixed;fillColor=#1ba1e2;fontColor=#ffffff;strokeColor=#006EAF;" vertex="1" parent="1">
                    <mxGeometry x="1161" y="8880" width="80" height="80" as="geometry"/>
                </mxCell>
                <mxCell id="52" value="" style="edgeStyle=none;html=1;" edge="1" parent="1" source="53" target="57">
                    <mxGeometry relative="1" as="geometry"/>
                </mxCell>
                <mxCell id="53" value="Column" style="ellipse;whiteSpace=wrap;html=1;aspect=fixed;fillColor=#1ba1e2;fontColor=#ffffff;strokeColor=#006EAF;" vertex="1" parent="1">
                    <mxGeometry x="1421" y="8880" width="80" height="80" as="geometry"/>
                </mxCell>
                <mxCell id="54" value="" style="edgeStyle=none;html=1;" edge="1" parent="1" source="55" target="58">
                    <mxGeometry relative="1" as="geometry"/>
                </mxCell>
                <mxCell id="55" value="Container" style="ellipse;whiteSpace=wrap;html=1;aspect=fixed;fillColor=#1ba1e2;fontColor=#ffffff;strokeColor=#006EAF;" vertex="1" parent="1">
                    <mxGeometry x="1161" y="9040" width="80" height="80" as="geometry"/>
                </mxCell>
                <mxCell id="56" value="" style="edgeStyle=none;html=1;" edge="1" parent="1" source="57" target="59">
                    <mxGeometry relative="1" as="geometry"/>
                </mxCell>
                <mxCell id="57" value="Container" style="ellipse;whiteSpace=wrap;html=1;aspect=fixed;fillColor=#1ba1e2;fontColor=#ffffff;strokeColor=#006EAF;" vertex="1" parent="1">
                    <mxGeometry x="1421" y="9040" width="80" height="80" as="geometry"/>
                </mxCell>
                <mxCell id="58" value="Image" style="ellipse;whiteSpace=wrap;html=1;aspect=fixed;fillColor=#1ba1e2;fontColor=#ffffff;strokeColor=#006EAF;" vertex="1" parent="1">
                    <mxGeometry x="1161" y="9200" width="80" height="80" as="geometry"/>
                </mxCell>
                <mxCell id="59" value="Image" style="ellipse;whiteSpace=wrap;html=1;aspect=fixed;fillColor=#1ba1e2;fontColor=#ffffff;strokeColor=#006EAF;" vertex="1" parent="1">
                    <mxGeometry x="1421" y="9200" width="80" height="80" as="geometry"/>
                </mxCell>
                <mxCell id="97" value="" style="edgeStyle=none;html=1;" edge="1" parent="1" source="98" target="101">
                    <mxGeometry relative="1" as="geometry"/>
                </mxCell>
                <mxCell id="98" value="Container" style="ellipse;whiteSpace=wrap;html=1;aspect=fixed;fillColor=#a20025;fontColor=#ffffff;strokeColor=#6F0000;" vertex="1" parent="1">
                    <mxGeometry x="1279" y="8510" width="80" height="80" as="geometry"/>
                </mxCell>
                <mxCell id="99" value="" style="edgeStyle=none;html=1;" edge="1" parent="1" source="101" target="104">
                    <mxGeometry relative="1" as="geometry"/>
                </mxCell>
                <mxCell id="100" value="" style="edgeStyle=none;html=1;" edge="1" parent="1" source="101" target="106">
                    <mxGeometry relative="1" as="geometry"/>
                </mxCell>
                <mxCell id="101" value="Row" style="ellipse;whiteSpace=wrap;html=1;aspect=fixed;fillColor=#1ba1e2;fontColor=#ffffff;strokeColor=#006EAF;" vertex="1" parent="1">
                    <mxGeometry x="1279" y="8687" width="80" height="80" as="geometry"/>
                </mxCell>
                <mxCell id="102" value="" style="shape=image;verticalLabelPosition=bottom;labelBackgroundColor=#ffffff;verticalAlign=top;aspect=fixed;imageAspect=0;image=data:image/png,iVBORw0KGgoAAAANSUhEUgAABNwAAAD6CAYAAAB6dlooAAAACXBIWXMAAAsTAAALEwEAmpwYAAAAAXNSR0IArs4c6QAAAARnQU1BAACxjwv8YQUAAEp5SURBVHgB7d0JcKT3eef3p+8TaGBwA3NhDpIzpHhIQ1IHD5O0RV2R1tIqckVKXFur3XVWTmKn4krK3mzijbXJxlVR7NpsxSmlIsXyKpYtyStbl22JkkhKonhfMxzOfeG+Guj7zP95MT0DoN+30UC/OOf7YTUB9Pn2+77d0++vn//z9/zxF79aFQAAAAAAAACu8AoAAAAAAAAA1xC4AQAAAAAAAC4icAMAAAAAAABcROAGAAAAAAAAuIjADQAAAAAAAHARgRsAAAAAAADgIgI3AAAAAAAAwEUEbgAAAAAAAICLCNwAAAAAAAAAFxG4AQAAAAAAAC4icAMAAAAAAABcROAGAAAAAAAAuIjADQAAAAAAAHARgRsAAAAAAADgIgI3AAAAAAAAwEUEbgAAAAAAAICLCNwAAAAAAAAAFxG4AQAAAAAAAC4icAMAAAAAAABcROAGAAAAAAAAuIjADQAAAAAAAHARgRsAAAAAAADgIgI3AAAAAAAAwEUEbgAAAAAAAICLCNwAAAAAAAAAFxG4AQAAAAAAAC4icAMAAAAAAABcROAGAAAAAAAAuIjADQAAAAAAAHARgRsAAAAAAADgIgI3AAAAAAAAwEUEbgAAAAAAAICLCNwAAAAAAAAAFxG4AQAAAAAAAC4icAMAAAAAAABcROAGAAAAAAAAuIjADQAAAAAAAHARgRsAAAAAAADgIgI3AAAAAAAAwEUEbgAAAAAAAICLCNwAAAAAAAAAFxG4AQAAAAAAAC4icAMAAAAAAABcROAGAAAAAAAAuIjADQAAAAAAAHARgRsAAAAAAADgIgI3AAAAAAAAwEUEbgAAAAAAAICLCNwAAAAAAAAAFxG4AQAAAAAAAC4icAMAAAAAAABcROAGAAAAAAAAuIjADQAAAAAAAHARgRsAAAAAAADgIgI3AAAAAAAAwEUEbgAAAAAAAICLCNwAAAAAAAAAFxG4AQAAAAAAAC4icAMAAAAAAABcROAGAAAAAAAAuIjADQAAAAAAAHARgRsAAAAAAADgIgI3AAAAAAAAwEUEbgAAAAAAAICLCNwAAAAAAAAAFxG4AQAAAAAAAC4icAMAAAAAAABcROAGAAAAAAAAuIjADQAAAAAAAHARgRsAAAAAAADgIgI3AAAAAAAAwEUEbgAAAAAAAICLCNwAAAAAAAAAFxG4AQAAAAAAAC4icAMAAAAAAABcROAGAAAAAAAAuIjADQAAAAAAAHARgRsAAAAAAADgIgI3AAAAAAAAwEUEbgAAAAAAAICLCNwAAAAAAAAAFxG4AQAAAAAAAC4icAMAAAAAAABc5BcAAAAA2MVm82m5kJqyfs4VMjJrndLWZXP5TN31O0JR62dnMCZhX0AGIgkZiHZYvx9q6xEAAFZD4AYAAABgVzm/MGkFbBfMz9HMnOTKxTXdvhbC1X6emhtZdrmGb8Pxbhk24duheI+E/QEBAGApAjcAAAAAO1quVJSR7Jy8PH1JTppwbK0B21ppiKenn06ctf7W4O2dXQdM+NYtHaGYAABA4AYAAABgRxrJLIZsL5nTRodsjWglnZ6UBm/3afjG0FMAuKURuAEAAADYUXTI6A9HT90IubaTl64HgJ3BqDw+eNwK4AAAtx7PH3/xq1UBAAAAgG1uvUFb1e8XCQVF4hGpxqKLv4fNyecT0cv8vuU3yOVFymWRkjmls+LRv81P6/dSSdaC4A0Abk1UuAEAAADY1rRH2w/GTslPx880fZtqok0kEb/+s03WJBy6+bu57dIKhWo6sxi8Tc9Zp9XojKhfv/iC1VvuI3vvpscbANwiCNwAAAAAbFs6Q+hfmsCqmR5tGq5VuzpEervqq9bcohVy5lQ1j1HVCrgZE7yNT4snudDwZvo89KTVbk8MHBMAwO5G4AYAAABg21lLVZsVtO0fWHslW6s01NPgTU/5gnguj1jhWyM/HDkpL09dlM/e9gjVbgCwi9HDDQAAAMC2MpvPyBff/rHMFTINr2cFbUcPLvZj2y6aDN60t9uH990jxzoGBQCw+xC4AQAAANg2JvIL8iennmo4hFQnPqge2rv5FW1r0WTwxhBTANidGFIKAAAAYFt4de6qfO3ccw2vo0NHq/t3QFVYKGhV32kVnufSqHjyedur6RBTRegGALsLgRsAAACALeX3eeWtzFjDsK0aCkn1+GGRWER2FO3vppV4J8+JJ20/RJbQDQB2H68AAAAAwBbRsK0Uq8j/88bTjtexhpDed2znhW01Wu1mlt+a2MGBhm4/GD0lAIDdgcANAAAAwJYIBQPSN9gh//Ozf+N4nWpf12LYpjOC7nA6FHa10O2l6UsCANj5CNwAAAAAbDqtbOvua5P/7u+/JqmCfX8zK2zTWUh3kdVCt29feVVGM3MCANjZCNwAAAAAbLo7hgfl/3vz5zKWStpeXu3q2HVhW02j0E1nZ/2zcz9rOEsrAGD7I3ADAAAAsKn29XfJT0fPyvfOvG57uTVBwi4N22qs0G2w1/ay2UJGfjBCPzcA2MmYpRTb0tfe6pRqVXaNoXhRHtqXEgAAgFtdz552CcR88uUfP2N7uRW2veO2XdGzbTUaukkyZTt76U8nzsjxjgEZbusRAMDOQ4UbtqXdFLapQpWXGgAAgE6SsL9/j3z/7OvOQ0kPDIiEg3JLMKFi9fhhx3CRWUsBYOciBQAAAACwKfaZsG02n5EvveRQ3dbXJdLbJbeUUNBxaOmFhUnrBADYeRhSCgAAAGDD6VDSXnP6Nz/5tuN1qvsGZSP50zkJJFPiLZTEn8mJt1g2p1Ld9SoBvzn5pBQNSykWtv4udsRlo1QH+0TGZ8STr5+tVavcPsuwUgDYcQjcAAAAAGw4HUqqXhm9bHu5Vd3m4lDSwFxKwpNzEkymrd81bLML19aiYEI3DeHyPQnr93xPh7jC75P48D5Jv3W27qJalRu93ABgZyFwA7DtaAu/TMF+xHvIXxW/d5c1+dtGShWP5Ese28uiwYp4ZOOVqx7JFe0fKRyois/D9geAnUar27R/m85K6ti7rcXqNo8J06LXpiQ8lZSI+dlquGYnaII7PUVHpm6cp6FbZrDLnLqlHAvLei2YAM+rvdxK5brLTs6NELgBwA5D4IZdLWaCmb1tHulr88memEfiYT2Zbzz9nhuhjf5fP49lCyLpXFWS2apMLlRkPFWVEfP75kQMt4YzsyFZKNQ3BW4LluVo580hFKWyV/7mXML2Ph4YSMtwR0GwMa7MB+QXozHbyz5yOCkxE7pttOmsT5661GZ72WMHFqQ36v4BlJt00pdM0Svpktfal/WwyWfeaYK+qsQCFYkENn4dAsB2M3i9EuzZS2dsL68m2tZV3aYhW/zimERGpq1qtrZoVAZ7e+S0S2FbWywmv/zAe+TaxLj84s3Xba9zdywhCyPzMvLqOavqLWuCt9SBvrWHbzqBwmCveC6P1l300vQl+fC+ewQAsHMQuGFX8Zls7Gi7yG19ftnX5ZEu87vX6xSYeRqctxgK5fJVGZ0VOT9RlpPmNF3c3uFbuuAcVLnhYCIvDw5mZL2uLIRkMl0fuPXElgduwE5Tqej+HTSBZVAmMn4pVpzfK8K+inRFy7K/vSCDbQXx3wKZfsWsDy+VqcAtKxYJWSf1zKW3ba9jDSddg5AJ1xInL90I2R574IR89NFH5PbhA9a3qQ//o38irRrs7ZMv/6t/I0Pmp/rmD/9Ofu/f/m911/udX/9P5cSdx+SFN0/Jt378E+vnyMnnrMo3Dd7SB/ulWbGBfsnYBG65cpFhpQCwwxC4YVfYHxW5b59fbh/0SDTs3tFrOOSRYfMZabjfL0+Yl8voTFVeu1yWV8bLkq1Q+QZArJDt1YmIpIvNTfydK3vl2oKeAhL0R+V4V84KnL27ZKisVvjNFfwynfHJVNb8NKdIoCqP758XALemgevVbU692yztbbIarWZrP3NN2s5ctYaLasj10U9+ygrbNHRb6sRxE4CdPCWt2NvTeyNsU7/6+K/YBm66HLWftd9r4du3fvQTSZy6JDmzDpLHDqxa9ZYKeMUbMuGkzeQJ5wncAGBHIXDDjuUxededHR5592G/+UC0OeHXwB6POfnl0bxPXr9ckWcvlmSuRPAG3Io0WHp5PGoNlV6vgnn/uJgM7qoKz5NTYXljKrLsvEigLABuXYn44nuC42QJsWjD4aRLg7ZEICif/gcfk8fuf5fcfvCA4200hGs1cNMhpD/4xU/liQfeKwvptPy/f/NXddf56C89YnvbWvj2G5/8uBW+/Z9/8Q0Z+e5zkjrYv2rwVu1KiGdkou780WxSAAA7B4EbdqTb2kUePxaQ/j1bE3Zp5dv9R31yz0GvvHqxKj86X5Q0FW/ALeX1yUhLYZvSmrj7+zO7prpNzdn0aQRw69KhpDpZgjo3M2F/pUTc9my7oO3TH/5AXTWbnU9/6APyZ9/+noxMTkor/ov/5X+y+rgpDd1W0kCtkcGeHhPK9VjBnFa7NRW8xe2f31hmTgAAOweBG3aUDn9VPnQ8KLcNbY9wKxjQ4M0jd+4Lyo9OluUX4zRDB24FU2m/nJpe/0x0Nbd35WRPZHtPArFWczk+WgC4KRq5+cXE2IJDYLSiuq2VoG2pf/XP/5l89vf/QFplF7Sp3/jkJ6xArVkaujUTvFVjEdtOw7OFjNXLLewLCABg++NTMXaME71e+eW7fFZ12XajfeM+9E6/3DlelW++VmCYqYO7uzNS6KzvcxX0EVRiZ3l5Ym0HfXbiwYrc2ZOT3UQnR0gVmutlB+DWEI/cDNNSRfvh89aQ0usiI1PS+co56RTvuoO2Gh3SqaHbv/x3fyJu07Btteo2JyuDt6t//6IsHN0ryeOLQ2Tj0Zg4TVGVKxUI3ABghyBww7YX8lTlY8cDcny/Owdxfr9fEomEhMNh6/disSjZbFbm5+elXG6tz9CBPo/804eD8u1XSvLm7OYPEYuaA/iPHG7c3+OVyYhcnbfvk/LEgQWJ+J3Dr4CvtefUHd24Sp5i2SseT0X8O/RYX9esWzFtqeyRUtVjNRnzeT1mu23PQLNilnEzhlJWzEN4XczAdRKAmVzjYZND8YIMtZWkLVQ228DsnyU90PSa2wbk6kJACmYbPTiQFt86nr/bz8dJ9fr/PGt4rJn8xg0nLVX05DGL5LFmdvV7K2tatkY2a50Ct6JY5Gbl1tiC82cUXzonXS+ctmYdrQVla6kec1LrsfaHX/pTWcisf6b1pVoJ25bSZdPn+q0fPW2Ct69L7NKYjD9yj6RiYXH6OJMtF6VDAAA7AYEbtrWuQFU+9a6g9Ha2fiTU0dEh+/ftle7uLvF66z/GaNg2PjEply9fkVQqJeul1W6feDAgvSfL8tTlzW0UrmspFmwcrvgbHOBr2Lba7ecLPpk3YUPeBAYaGmRLXkmESnK4s2BdPmsuu7YQlKT5mTOXRwIVee/Q4lAMHYI3n69f952Rsty2hqbxJfMUzs+FZMQEF7N5v9V4vibgrUpHpCIH2vMynMjbHkTrcr88HrG978MdBcdg0Gn5e6NlGe64ufzpgtcsl1lHZrny5cWfYbNuj3XnpGJW7yUTeI6lA9ev4zVhoVghgoYH8WBZ+s3j37Ynb/3ecD2Y8GE87ZfxjN+sb78smMfV7bGShlrtoYr0REpyMFHYsiGMuq0uzJrnbpY3bZ57bU/Tbab7XXfYLF9Ha5MHZMzzv5wMWuslaR4vu2Tf0IAmHqxa62F/e2HdAfCleefKAt2G7x1Kyd624vILQmY/MT8Omf3rPhPMT5jlW+3x9ZU6lgpY+/mU2b66XxWX9IoM+6vSFiiZ+ylbj7fadh3PBKx9UV+Xut/lzO+HzPruMq8/3XcuJkMyaQLBVN5j7Vu1x6q9pva35a3rL31N6X58KXlzfaSL9oHbgrnP50bqK1SOdeelfcV+rq/vSXO/ug11n9HnbTcDrK7rDnPbTvO8db12Nblf6/1dNu9ROiw4ad7PdJ+pLnlb1PUaNa/XhAlLe6JFa922+mUDcCsLBVc/3IhfGpeOC+OSCAblC//Dv7gx06dbasHWb/+vX5DTly7JemkAqEGgm8un96nh3Ud/6WH51O/8rvi/+5zM3nNY0g7X1yGlAICdgcAN25IGBIPmC9FfezAo8UhrYZvP55Pbbzsqg4MDq15vcKBf+vt65fKVq3Lu/AWpVtZXGaQHpI/e6ZOOqEe+dbokQc/uGTJ5aipkHZgv1Rbyyz5zUPrcSExG0svDiI7qzYPp0XTQHEjXH5AXzYfHZgM3DQa+fy5hVQvZ0ZBAH2MyHZWzsyF5ZF+qrmqvWPbUPYea3qgGGLYXOS6/iAn3lnzdfNEEam9MLg/0NLToMvf9C7OO0g7Lrgf9CyaI0tO5uaA8OJixgqGVNDB404R/GiyVq6u/PrSSbM4EoHrSJv9HTDj6zr60a9VBq9Hn9dpkVN6atl/nus1qy3fWBKn9sbUfTOhQxlcmInLOPD+nV1up4jWPITfWw0C8KO8eSEvQv7YwZSztHLgd68rVh20r+M2+MLjKdfQxXhyLNhyeqYFZrhSwQjINg/vMejvRn7GGqtp59kpsWWCngiZIurYg1rapOtRYrnxNPbr/5mtKA2in19LyZbW/3rAJytqvF9xqWHxqKmzN2lpsYhIa3a80tNaTBvB6Xyf6046ValrF9ur44nOoNFxWXa8+q4rxglmWF8dEPnwk2bD6F4Az/Xy1msxglwS00vTMNfnDL/+pfOF3/msTRHWLmzTY+vM//NfWMM5v/fgn1syhzdKA7bH7T1gTMWwErbzTCR70Z64nIdlB89zHxwUAsLMRuGFbOtwm8qvvClrVYq0ImG9K77vnHdLe3n7jvLcvzsuPXx6TC2MLks6VpC0SkEMDbfLoO/vl8L42q/rt4IH9Eo/H5fXX32hpmOk9w14J+f3y5vju6tO0kgZEf3+5zfq50U5NR5q+rgYrP7oUl18ZXrBCjq2kAcKPzTqqNLkYGpI9dy0m8UClrnLJYzKYSya8qKzzKZ2dDUrIV5G7erKyGbTf2ZmZ5mfzbBRo2SlY6zYuM9m1/ZM2mgrID802+eWDze8fOnTZaT/XwY6372n9tX7OrKsXxtfer2jcrLe/vdAuv2QCsWarGN+eCa9pP0qa5/7s1bg8cWDe9cBWh9c2G7bZuWBC6oC5j/v664eM6VN85lqbjC6s/WNPb7xE2Aa0wO+7+cVBPBgyXyTUf8FWCfhl9p4jVtBUev60fOhz/5X82pPvl//sox92PXir9U/T2Us1dDt98ZJV9bZ0NtO2aExuP3jAOj124oQM9rq7DEvpUFIN25LFgiTvOWz1clNOX7fQvw0Adg4CN2w7oUBAPm7CtkiLYZvHBGf33n0zbJucyckffe2k/Pjc5LLhQ+pHZyfly89ckMdv65X/8j8+Jp2JkHR37ZE7jx+T10zo1oo79nklFopIKrM54cZW2YywbT10CKxW/7yjZ+vX/1oDMj3Ef8MEjI/sXVh2vg530yGsWs21XlrRpOHQRg+Vm8r41xS2rcfzJphca9hWowHSG5Nhubevuf0jmXeuONOhmcEW16eGZusJ22o0rHraBGIfHE42Vbm3ntB2OuuzQlGtEHSTrrsjnfmWZn/V6rU7unLWUPalzpvz1xO2qeNdu/u9G9hM8VDYNnDz5ApSTYjkejpk5EMPSuLkRfnK0z+Rn7z0snz6w0/Kpz/0QXGbVrx99Jda7xG3Xk89/4L84Ze+YgV9C0eHJHn8oBU8WtLOveY6QzEBAOwMTCWGbSXg98n+vo6WwzZ1eHhYEonFsO3clQX5z//oZ1awVnU4wCybC/7u9Lj88z/6uVwbX/yg09vbI3v3Dkmr9vUGpHdPm2BrWEPIdmgLprGU32oWv9Jd3bl1Ndyv0aGo11Ib/y35yRbCk2Zoj7OrLT6Ps7Nhq2dZMzIl5382tRdhK3RrvjDW+uynOiTytanmK0HX4+pCUDbCsa68Nfx6vfSloj3vVnp7naGv9oXr3qKeh8BudGRPn/0F+eUhnIZPE4/eI2diXiuU+tDnfssaCrobvPDmSfns7/+B/PYffkHOS0FGPvigVd13I2xTJed/T6hwA4Cdg8AN24YOT9rb2yF+F6aZjEQisn//Ykn+fKog//2XXpaxdKGp216Zz8m/+L9fklx+8cPO8MED1mymrepqj0pH28aGD7CnkyRMpHfmB1QNiKdz9cuukzAc6ly+T+trSGfF1ICgJ1Z27OVVk9zgqkQNCpsZHuprIV9/u0GVnwY3WoV1MJGXveZn2GFYYLm6OLy0GfmS88LGA60FbqMmKGrUs20tLs6FrKG2G2UyuzH7js6oe3vX8mG5ukZ0X67t1x2hxut5esV+nSt7rUpXOzpBwoFEUY526iQrBat/4NLho8e6dnc7AGAz5As3q2H74gn7K6XrK0lLsbBMn7jDCqQ0ePuX/+5PrOBNh2COTE7JTmL1aPvO96zl/+zvf16emRiRcRMoTjx6r/U8V/I4VLgNRJmfFAB2EoaUYtsY6E5IOOjOLqkTJNRmIv3T756Xy8m1DQk6M5OWr37/gvyjjx6RUCgkfX19cu3aNWlV/56ECfJKkivs7ooJnd1v0AQcbeYgORZwf6ZWDVLu6snJvvaC+aa3Yg2j04qbV8Yjjv2ftAF6f3x7zOylB/gaAml/Nq28m8z45NWJqOOyZzSEsSl8Om7CgPGU36yHogzFC5IIV6wJR5bSwOvpy3HbJvGZ4sZ+56LDPJ0qSjUcvKc3aw2NDZrtqTNTTpjQS/u9NRs6NQr0BtpK8p6BtBXg1GhV38+uxmwr+3R23X3t0sRjOodYrfb5alQ1FjP7yj29GekzgZM+J52E4Mp8QF4z66tss471vHHzPPe1N/dFgw7nvLM7Z83KqdtDJzA4Oxe0egXaSV/fRjqbrp5qnrkSt12/GpQ9vn9emnGbCZJ1QpChtqL1PqL96FZOhDBt9q2nLsVtJw1ZOVNvtsF+/uRw0grdVtLJWUZTwVUntwCwulK5IrV3kiNdvbbX8SQXxKm2tRa8JY8dlPSpi/Jvv/0dE7p9Qz766CPWzJ4n7jwu29XiZAjfvTEhQvpgv6SO3yP5nlWCs+mk7dkDkYQAAHYOAjdsC+3xiCRi7lV/dXd3WT+LxYp855X1BWXffvGKFbhZ99e1x5XATUOGIfMh68LotFR26hjHBrRp/LsGsnK4o7kZR9frwcG0dTBeo2HBIfOYGjbpTKl2ZnLb4+1OgzadfXSp9usVOy+M2S+7UxCnFVsfPNw4xNCKnT4TWthVcBU3sAJKzRScq6COm3Bn6QQDfrMoGm50Rhbku+fam1o2rfyzC/T0dfZAf6quP50Owb3bhHx2gVCqyfCx0aywvhZnEZh2qBrT/frR/QtWgF2j4Z4GXUFzk+dG7IehahVaMyGi0tl8u5YMnYyZx9K/k3m/NfnISjqphwae/g3IbDVQXG2/1mXT94DL8/UhpU5ssexvhxxUKytDDn3udF237aG6DXBDOpuXWGQxcrt3YL/9lXQIpQndJOHcfqMWvHmLJYlcm5JvPP8La7ZR7cX2G5/8uBW8uT3BwnposKbDX7VHm07KoENFtUebToawbNhoA04VbsNtW9dzDgCwdgRu2HI6e9WAm/3NzEHU+UsjEgwG5K0LGXPAuL5qMh2CevpCUm4fTkh7u3vLFwz4pKczLuPTC7LbHOksbHjYpsPJhhyqTva3F+XFsYoJAupTgEZDATfT0U77iiOtXHJSbKJwSmMDrQzLFH1W5ZreRkMRrXTKl+2fe6m6sRVumQaVaocc9hMNkvaa7XshuXqPsAWHCQw0jAk7BCkabmrQsrIqTNdbMxoN0/S1MGGC3nLBYRkGYqVlYdtSB9rz8up42Bo2uVK6ySHDe8LlZWFbjeaHAyawtQvcrGW29p+Nnb1TA9W02Z/TJbNfFzxWEFuVxbDPqXJt5bZ16gmn19Ow8t7enONwYwCt08Ctpj+ekP62hIwt1FdwWVVuidU/b2lopZViegpPzkn60pj87pe+LP5MzoRux+Sx+0/IieN3yO0HD8pmmVtYkG8//awVsp08e0FSlZIUOmKSfLSJarYVPBPTjj3cDrVtfaAIAGgegRu2XH9Xu3i97oUhOlzzJz9/yfp9sfph/bM5/eX3npHDA34J+P3SHvGKW0u5py0q86mcZPO7a7jSwURzw9dasadBA3OtBOoIV2QqU38gni1tj5aVibD9h+jQOsIavcUlE0zpfj6R9jesvtoK+bJ9UKOzZ0YbBBy6jZsJ3JyGxLYHGw9jDvoqdfuDUyi5kt/jvNzVFopWNVRyun1Xg31eQzGdrGE0Vb8u5psMETvCzuvLvwUvG10NV+cD1r49kQm0XImpfQ31nxi7omIdMnvVvH72tpes8LLPBIze7fUyAna8pYGbevLIO+TLLz9Tdz3PyIRU9w/KWuisprnrgZaGbz824dvPv/YXVvimlW+3D++Xx06cMOHbflcDuJGJSXnh5Ek5ffGyPPXCC+bvKSsIzPckJPOOA5Id6m66mq3O9Jzt2Vrd1hFkhlIA2EkI3LDlAj53j+iWtrBq5QBYpfI5mZxeDMXa9veKx8UjMb9vewRAbuoIb3xvOu171kjIoZqlUN76o2gd0ug0s6jfu7YKm2TOJ8+OxGRhgyc+aIVTUBLxNX6u0SarjfJl+9eQ9t764WXnf94KNrerNvlm0ehlW2khGCpWnO94teqrkMP6bHbSBF+DWUHXul+2Snun/fRa3LGqbj10uLJOnnFtwb7fnwbVl5IB66TD0/e2Faxq3c4ws5MCbsiYwE37uNU+9+iw0i+/bHPFUtmq7qr2dsl6LA3fgnMpmTUB3PkLZ+UHL79qDUNVtx88IIO93XL7gQPW8FMN5VTt51ILmbQspDMyMjlpTdKgp9MXL1lhmw4b1UBNq9gCfT0ydWxIih3x9YdsNfm8eBwCt3d2HRAAwM5C4IYtNzo9L8OD6/twZce3ZMrDVpuYR66HO16Px9UqvJT58LmQ2dihl5tNh21tRmVIo3BA+b3btzdeo/WzlvZfOpTyB5faNrwHW6ucJhgIrhLi+Jus9is53E225DGnDZpFs8H+VW5h1ys3yHb8qzyVgENWt9P6ROpEDD+82GY7PLZVd/dkrSrQ1V4zGsyfnwtZJ612u68va00CA2D9NGzTKrdEPGL9rYGbnl4ZvVx3Xc+lkXUHbksVTPilJ+2bpjSA82VykjQ/g1cvyndNEBecS98I4hrREK0S8FmBmvaRKxzfZ/2u9+82z+VR2/M7Q1E53rG26j8AwNYjcMOW0yGgU8m0dCfcKZP3+3zWt6j6Aa87UrLt19QMHfbWcf1AKxR076VSqVRkbBf2b9ssgVXCGI9n901GsdJzo/FtH7Y15HFn2ctbsA4aVbilWhi23OiprBodOty2vMP2kRfHoxsStint3ffo/pQ8ezXW9PDy8XRA/u5CQN47lGK2UqBFV8amJXFk742/f/2+h0zg9u/rr5gvLA4tHewVN1nhmDllB+t7oGno5nWYPb7k4oReq9LqtvFp24uG4z0S9gUEALCzELhhW5gy3zjGwiGJhNzZJePRoMwt5MRrjqsOJPJWtcJaHTa3q+UC8cjab+9kZGpeiiUqJtartJODJhfMZP2Os1lqReehjoLV8ysaqIhfh7Ca18DpmZC8Nb2JBw2rcCss9Ps2v9F9rEHVbLaw/rCoUfVjedXhrk7DlGXH0Ak/7GbSVWGznYfNfq1foOjsqbpf63v7xWRQXpuISLP0dfGBw/Py1lRYzpl/E5oZZq5f1vx8JCZPDs9bjw1gfeyGlTpWuV2+XuXm35yWCYsVbFt/SOR97W3Hy54YPCYAgJ1n9zWRwo6kx5NXJ+asD2Nu6IhHb/x+V0/O6suzFhpc3NGds37XQ7KES99wzsynd91Q0s22WlTpNHGAr+mhpg0Owitbf8A9nrY/KNB99v3DC2Z/z1r9qnQYnAYE2v9rq4bZOk0wUGpiWF8ztiJ6bWswvHAyu/4DtkaVc6utr2K51X1+642l7cM2fe/+FbNf392btarMavu17u++dVSzBs060fv62JGkvHswLYOx4qoFlxoQn57dPoE1sBPp57vRydll52mVm8OVxXPmotxKrKGkefuJp54YOMZkCQCwQ1Hhhm2jVC7Ltck52dfbIV5va1lwJBSQtmjYhFs568Ds4aGU/OhKW1NDS7VH08N7U9aBmepoj0og0Pq3rKlsQcZnUoLW5IuN942cw3Cx8JLQtdHuVWyQqRWr9jf0b2LykyzY74v7TBjh1Fy/VNma71aCThNYrBIgZZoc8uc0s2tPrCx3dOZkLbxNhlM6oYO+R9hV6Wmj/6zZPyOBtQezEZ9zkJdfZfZZpwkX1jPz7VaZd6gOHDLhcdRhfbYyZFa394FEwTrpMFadFfXt2ZDjJCQTaT4uAa0aNZ/xBno6l1W5PXTgNnnmUn1llzVxwAYMLd2W0hmrqs+O9m57fPC4AAB2Jj5BYlvJ5IrWkMuhnoR4Wuzz1L+nTbLm20Krl1usJE8cnJfnRmKSbDCrY2e4LO8eSkt78HrvtoBfejtbb4qbzRfl6sSsoHXTGee3La2UdNq+4SUH7Y0CskYH8U6VRJ5NzLOcRiM3Cnl0EoGt4LRMBWtSA6/jpCYz2eb61LQ53H+1UpXBtoJsBH1b6jXvJ04zXp6aDss7+zOyVmF/1ZoR1C4cndF9vtO+Mlb3+RmHIcbxbTQEcrUJHAoOvdvCfucgMlty54WnQ1aPmPV72JzenIrIm5P11WypwtaE1sBuUqty29d/c1KEz737CXll9JJ5jdW/x3nOX5FqLCKSaJNdK58X78lzjhd/4sAJAQDsXHyCxLajQy5HpxbMgWRr1Rl+v1f293WI73o5k4ZpTx6al/eYQG1/e8EaGqYHWhquHUgU5X17U/Irw/M3wjadfGGfub23xeAvVyjK5Yk5qe6cYpNtTYftJXP2AcNIKuA4HDEeuLkBtPeX03C0KYdAL130mZP9W2ZkE3uJVRwGUmYdlk1zDqdhqHavsUa9xEprfJrxBv3Ozs8Gbc/XmSq12qgZUYfhnVNmH1loIiDRp18qr/31PRh3DvPOzIZW7Rmp++hLY9G6fa0jZL++Rky4lyvaL+dIOuAYPNXeyzaT0zBWrTxt9B7odFmubP9a16uPOgxDdbqv1d6CdQ07VUaWq7d270jALVrlli/cnISkP56Q//aRDzte33vqnFUBtitp2KZ9264PJY0Hl//boUNJh9t6BACwc1Hhhm0pmc6aoKAiQz0dLU1oGAoG5OBgp1ydSJrPMyXrgErDNj01okNS9/YmrNCtFVrZdnl8dtXqDqzN01fj8s6+jPmgXjIBUdU6kB4zYdvz4849TvaEb85ApvtBmwk35myCOw0wXp+MWBUvWoGl960VRC+NRx3vezMriZwCjSsmlDnW7bEqpWo0JHhhNOI4zHbWBFNaqdUbLd2Y/TXQIKc6NROVQ4mcxM26i/pXf86JsHPgc3I6bA2B1Wb4GvJpSDJpAqgXTRDV7KzC3eb+PaLbv/5N4pkrcXlwMCN7IstnntOX4lzOb8Iav1wwwVhPtGhdby32txXllfGq4+QPz49G5eJcUIbaCtZ+pj30Kua6CyYU1ZDtqlnnFbNtNAjVLwFqIWeP2Q5TNn3gdDs+fbVN3tV/8/no+tJ99YUR5/2yO1qSzea0f2pY/fxoTA525GXpCP22QNlaP05Vp7p/pru8yyYs0HX3ynjEsepMh4VemQ9KT6xkfamitA/ed8+1m7C0KHvbi9Z2twuX5xwqZH3kbYArtMrtzOVxuWvJjKU6rPQTd94vX3/zebsbWBVglXfcJhJ2bwKrLbcibFO1Kr+PHbhPspWyvLv7kAAAdjYCN2xbWul2eWxW9vYlblSprUfQ75eD/Z0yu5CVmflMw4kZAn6f9CSikmiLSqvm0zkZmUpS2bYB9OBdQzc9YNam6sXy6hUoOgxwqU4TwM05VMqdnApbp2Z1hjcv2HAaRqlVTt85l5A+8zx1neiwzQkTLBUaDCfVYOsZsx4fGEhbwZcKNQjSLiUD1ulgIt9USKUhp1O/Mw1NXhiLyYsmJNVeY4Xy4nlroSFhb7Qs4zZVifMFn/zdxTZrXejMovqsNHTJrKi0yiZDcmd3bk2hqd/c59E9+Yb7iFZirjaJgi7jyemI3NWdtf4+0J63hqTamcndfD4Bb8WEqL6GwaRerz9WlM0WbzC0+UIyaJ2WeuzAghX4xh2qFbUa8PsX2q3rhEyYXKgsVqHmGgwn1SX46bWY3GdC+dv2LB7AauWhbvuzJmTVk1a4JkwY2hYy9+tdDAozZp2OLNhvs/gWVAsCu9V8KmsNLdV+bjW/+e4nZDyVtO3npqGU95VTUjl2eHcML7UJ25Y6n5qRcrRN/nzyjPxq1yFp8wcFALAzEbhhW8uYDyMXRmZkb2+HhIPr3111EoauRMw6ZXIFSZtToVSxej15TWoT9HslFglLJNT6S0KH6U3OpWU6mRZsLK1WyjXRn0wrh2KB5QfMWqV0Ya71b8t11sTNrHDrjjgf+GuwdXWhueGYThrNwrlWmpNrNdGFOeeDhWqT29DJ0a6cCdyc+yxqYFMoO1eq6pZ70wRna61yO2ZCMq0qXMi3VgV7yjz2vraCtR8lwhVrkoBrKedtuNrzqTnamW84PHij7Amvb//pijiH1rpfN1onq9Gg9a2Z5UGmBvQaYs7kmtt+WxFeArvZlbEZ2ZOIWyMRanRo6dh35uTs9ET9DbTS7fW3pbp/0JwGZMdKLiwOk3VoyOrzBWTC5xFfafHLgm9On5cnOvbKUKj1fsIAgM1HDzdsS0srUIrmQ8nF0WmZnXcnwIqGg9LTEZeh7nZr2Oig+dlt/nYjbCuWSnJ5bK4ubKPIbWvd3ZOtO6/PHEB3RVoPl+7szspm6o8Xlg0bdZvOLNrnYrhwrCu7ocGPBlRD8dYmSLicDK25Kb4OgXxoKH1jyOJ6aWisQy1rW1QnXAi2uH01vDvetbn7ZU2f2R4R/9rXiYbi8cDGBNda3VZoIdTV4aRH92zMJBzArUpHG7xx9tqyUQfaw+wLH/q0HOlynplUZ/P0nLlovqnJy07juTxqhYaNwrburiHrZ81CuSB/ZUK35xfGBQCw8xC4YVt69mpsWSNwDeDGZlJy0XwjWihtfl+iZswsZOT8tRmrKm+p83NBOT27i/qObKH1HMjf3Zu17WWlvQHfM5iSWAsH+VpFtK99cytfNLw60Z+2epetxVqq8O7qzq35/p20mcfVoX1rtZblfWAoYwU266WPdCG59tdouwm2HjuQsgKuVtWGSEbN/vjo3pSEAutb/1qh+Oi+lHi36F93jbU0NFzr/qO3OzGQWXM4u9p+UrGpblvbclXlgcF0XYUsgNbp5AlvnL1qG7rdO7Df8Xae8WkruPJMTMuOkDbvibq8Jix0Yhe2LfULE7g9k3S+PQBgeyJww7Y0kQnI9863y8jC8qFo2VzRhFrTMm7Ct0pl84bxNaJDVC+MmGWaXpDKktK8gjnQ0z5CWr1SLm/B2K5d6GETROhBecC7+sG8Vh692xwoH+vKOV5HG7G//+C8DCcKazrQ1wkDdAiiBgtbYahNZ9VNNxUW6rq6uy8rTw4npTvSXCilAeVDTd5/M3QCCp0duJkQSUPV+802fshs62ZpVZ72ArvHhKtrCWV13egEKo/uT93oo7ZWGrq9f3jeChXXGsroetbZkZ84ML9suXVihA8cTFq98pqdNEafi+7r7z+4IJHA1r437jX75yP709KxxuGlWln5iAkL44HV91Ptwaa99548lLT6uznxmvXy8FBKDpjX+FqrEXWY6+MmUF1tkh0A65fJ5uWtC8uDpMXQ7T+xJlJwZL7c9Lx9cXtXu5kviD3nr4r35VPiSS44Xi0QCDUM22peTU/JdHFrqpcBAOvj+eMvfpXRbth2vnG640ajdT3Yubev/kBaJ1LobI/InvZoS5MqrJcGbVPJtKSz9QdjV0xQ+PJY5EaV3l09WevgcDsYSwdkPm+/vg6Zg1K/r7qu22tgpcFKI1fng5KxGdqlVVAD8ZuVYppbjpvQNV9abHKfNT91WJcGKqpkAsxRsxyzOZ/ky14pVT0m1FysWtPQQ4eK6jDDtewWxev3qRMp6DKWKl4TmnrFJzrLpDahr1izc/aag3ANRBrlINNZnznVD1FebR29PWNfZaUH/nbDX3WSAZ3ZU0+Zotfq76UCZlnD/sVJCwZMiFHbpvr/ybTf6jtWMLfV4Yw+c9lQtGjNprlSbYbWZN5v1vPN63eY7bWenlaakV9LB63lzRa81v1rs/qgbzFo6zLBSU/k5syzOmOphmk6m6kOo9Xnpesh2CBw1X1H173O9rlgHiN//TWo+4bfW7EmaNDnmgiWre3o5nDXxfW1uD3mzTpOm8cuX38f04kOtA1lxFe2gqg+81ybCcZ0vxxJBWRa98uC2d8rHqsnmc70GfJUrIo2fR79sZI122cjZ2dDYjdh8h5zH90x+9BKX2OTGfvh9kea6BOXNOtB96EFs+y63MWKbgfP4vow20KDsJXv7daMtboNzeOmiz5r39OVq0NtQ2Yf6DDLO2BCvdp+UNvmOsOo/ruhz1Ff+/1mv+5cEfrpRBW6PFnzekmZky5TbRvpvqj7RyJUsiZZaQtujy91gFtBNBKyZi71+5b/w/2Xbz4v/8fPf7Dq7at9XVLdN7A9ZjLVoG1k0pzGHYeP1sRjndLe3i1NKRTk13qOSlcsIQCAnYHADdvS0sBN6YGyDnPTmQFXHuB5zZF0ezwsHfGIREKtNYxfTcUcyensozrjaa5QHzjoAf5LJiTQUGqp7RS4AQAAbDcauh0bHlg2kYIaSyXlt7/z72VsIbnqfVjBW2/X1sxmmlwQz/Tc4lDXVYI2j8d8adzRL+FwTJpiwjbvmTPS5gvK++68X4b79gsAYPsjcMO2tDJwq9EhbjpsarjDvrIi6PdLWywk8WhIIuYDm8eF6hXtLZLK5iWVyVvVbEuHjdZow3Wd6VCbr9vVRBC4AQAANKZh211HhupCN/Wll56RL7/8TLN3JNWOto0P37Q/23RyMWxrMGx0KQ3ZOkzY5vU0V4bvmTMh3uXLYpXyX3fitnvl/qP3CABgeyNww7bkFLjVaPCm1W7Dibw1LMmOhm1R84ErbD60BYM+CQX8EvD7rOGndkGcVq+VKmUpFCvmVJJ8oWRNgFAoOn9LqcPWzs6E5Mp8UBoNPiJwAwAAaM7wULcM9HTWna/Vbhq8ff/M69I089mvqqGbOVVjEfMh0pz865iZXift0t5xydT1oG1u1Uq2pbRXW3t7j8kCI03fxjM6Kp6xMdvL7h4+LidM6BYKBAUAsD0RuGFbWi1wq9FeT9qg+2BH3uqJ1Gw/Jq+5ov5nNeKqilW1Vq0291LQ3j/ao+3CXNDqGdQMAjcAAIDm7UnETPDWY1vt9sroZfmyCd5eGbss66IhXCxq/dRqOOvnShqmaVVZrmCdPPn1Tc7Q35aQD9/xTnlhekYms01OtmQe13P1qnhmZhperS0Sl4+950nrJwBg+yFww7bUbOC2lM7S1x8vyqA59Zjwza0ZFrXR+0zOb/Vl0+bl2kR8rQjcAAAA1kYnURjo6ZB9/V22l2vw9r0zr6+t4m2T3Nu/X379nQ/JvQOL/dY0bPvCCz+TSwtzjW94vV+b/myGhm0fPPGYdLXvEQDA9kLghm1pPYHbSjqrYVe4KIlwxZq5MhasSsyvMwVWrBkvfZ6bu36x7JVytSrZsk/SBY85eWWh6LPCtVkTtlVbfJUQuAEAAKyPVrnt698jvXvabS/XoabPXHpbvv7mC01NrrBR4qGQPHnkHfLQgdvkaEefxCL1s6Z+5eSr8t2LZ21v70mlxHP+/LJ+bc2irxsAbD8EbtiW3AjcmqGhW7m68Y9D4AYAANCa1YI3dXZ6wgrfXh29vP4hp2vQH0/I+w4ctUI2rWZLprJyZWxa5s1Prc7TYbErfePMSfn6mVPLzvNMTIjn2jVphfZ1e9/x+wUAsD0QuGFb2qzAbbMQuAEAALijFrwl4hHbHm81qULeBHDj1tBTDeBShZycnZmQ9dIKtiOdfXK4q1eOdPVZIVs8GLJmtJ+cScp0Mm0FbUtFIyE5NjxQt5w6xPQrJ1+xfr/8xusydfWKuEGHluoQU/q6AcDWI3DDtkTgBgAAgNW0m9BNK95WC9+W0io4Dd90KKr+TNlMiKDhWjwYtgK1/niHNfmB/l6jIZtWs80kUzJrTvq3E12uu44MOS5fJpeT/+uvvy4vvn1K3EBfNwDYHgjcsC0RuG2chYJXSlVv3fmdoVLdeSWzDXQmVh12G/WXJR6oiGfJZimUPJIu208i4ZeKtIXqP3zOZn06vazt46mKeUdKFvw3/g54K9YEGKvtDQt5r2RKPmvyjI5w8zPWqmTOKxXP4jrxe8zj+avi9dq/NaaLXilU6tdfIrj6Y+r61N6ANV6pWv0F/fV357hu42Y7BHw3l61g7jO95D51vUeCFfM86u+zWPZIyqyjNrOsSy/X56ScJhopmdvNmP2g3WzPsM/+OrmiR7IVc9+BUt3zqa2zleto5bIHzTqPmOdntx71/vU9YeU+lTL7s9c8XtRfv1y6lubyfsmbdRky6ywRKlszG9tdbzbrt+4/7Ctbz9Oze95+AOCWodVkGry1x6PWT510wS0aqKWzeclkc1YlW8b83ihkszM81C0DPZ2Ol3/jJz+Ubz79Q3HL++68X+4+eFwAAFvDLwBuKT+9Fpc5m5lWP3VsdtnfOiPrz65FTUh088PqULwoD+1L3fj74nxQXh6P2j6OBkkfOTK/7DwNnH5wqV18Jlj5B0fnbEONrAln/vZ827LzNES7fU9O7uypDy01sHnmamzZcwqawOzBgbQ1Y20zdJmWBrwa+OxrL8gJcx8rg6uXx6JyLVX/DfVHDiclFmz8wXvGLONTl5Y/N127t3fl5O7e5UNQnNbtA2aZhjtuzlw2lQ7I0+b5L6W9Ce/qy8odncu/sb+6EJBfjMbk2IrH0+eklm7blcvyornOMZvlrDk5E5EzMyG51zyubqulnroUt7bTynVkt+y6re/rz8hwolB3/yML/rp96hdjcROQluTBwcyy85N53S/iViBXo4Hbk4fml4W345mAPGf282zp5vXazPUeHkrZBsYAgO0rYwVieRmdXJwJVCvKQkG/NXlB2PwMBoNWCKe/K5/PZ/2twVn5+kQF+nuuULL+Tl8P1eZTGckXStKqC9em5MrYjHlcr7VMR/b3LwsFP/7I43Kgb8CqdsvkW/+i9tk3n5d8schkCgCwRQjcgFvQIRPYHO/KNrzOSyZg6QxX5P6BBROCLFYSeVZUBx0yocjQ9VDr9GxYLswF5APDC9bfXpsvlcfSfqlUq+ZDrEcms37pjTp/eL1/ICN90aJVBXVhLiRvTEWssObgiiDmuWsRyZiw5OG9adkTLkq65JNXxiPy82sxE84kJehrroj36J683N6ZsyrsRtNBeWUiYlVcvbM/U3fd/lhRTqw4PxpsPpx51ARbbcGyVE30cyEZlJNTYRlqK0hXpH5WMg2plgr57Z/PB0yQ5DfbR5fi7emwvGq23z6znHYh4NsmGDtinq9dVZidayao85il1Z9OgVvNlfnAssBNZ/ldWsXmtOxR87zyZnFeGo/Ji6NROdBetK1Ga4bOKvwzs/3LZt95dH9K2s261spCPX9p2FYyj/dTE/hFAxV579CCta40uH3ePP7PrrXJ+w9t3Ux3AIDW5QtF67Syr9pW0gBPTxrgvXr6ct1Q03fdfkw+3/+b8vmvfFGm5uakVS+8/YpcGLtMXzcA2ALu1VkD2DG0wkzDhaWnlXQY4P72ggmGKhI2wUy3CcdWBkJ+3837Cfl02Kfnxt8RmzBnJBWUnmjZqiC6Nh9suIzh6/fdGS5boVeHuc2l5PLbaNA2mQ3IO7qzMmgCq3CgapZxsdpJK9auLTR+jKV0+fXxtKrpNhMYHenIyyWzjHaRj8+kNivX31pGIIYCi88tboKgO7sXDwJmcvbff6x8HL/DUFcNrKzlN6c7rg9f1uHAdjSEfG3CvjJxJR1OOpHxy5HOgswXfNaQZCcayk2bIHVptZhW1flWWTkaFAbM+tchywfb89YQ5kILQ8p1ObXC7e7ejBWOaqCm4a3+vtRoKiAF8/weMOGu7t+6zw6YAPkeEyrO5r3WMGUAADaKhoFvnL1mDVFdqjvRIb/3mc/Ku247Jm6Ynp+R//Cz78tCNiUAgM3D0QR2DT2Y1iFjG0WHKerBeDxwawwz06qg87NhSRV84gatLtIKKa3k2mvW40i6ucbGNT0mEEmuCJAWri9bT2R5kKJBloaEqeL63+I0gNEwJlfa2LdJHVbrEXdbadaiKqegS3sKXkoGZDa3+rYdzQSsSrx3mNtoUHc15RxiaiCrQ0J1O9dcnQ9Ib6y5ob1Kt7HeR8i3/tfZ/PX9pDvSePhPquiz1lHHin6CtdvNF93Z9wEAcKKh2+kLI3JlbHrZ+Rq6/dYnPy2/+vDj4gYN277yw6/LaxdPCgBgczCkFLvGse6cNUSxWPZa1SlzOb+cnwvWhTRrcVtnXrpjJavBf/x6FdgzV+ItBTnbwRUTtkxm2m/8vccElfcPLv929d17M/LTKxH57rl22dtekDu6844THTRDK580wBpqK1oVUKemw9a2aTYkDZkArbSi6ql4/aZ2kw7oxAI6ScB6Ba5XkuXM/rSyWk8rvr5/4eb608sf2bf2b401hDyfDFmBllby2Vn6OEofJ9JgKGjBLK8OGdVV0uFwn9oD7uxMRF6ZiMpj+xekkWsLfukzgZmuz4F4SUZNgHZsj31fGY/XIwNtJauq7Yh57WilmZ6Om9fmaMo5YP35SMy6rbbH0X3i3WZfbGXOgtp+Elrlpa/7Y9BXP0FC8PrtSuVWlgIAgOZpbzftHTc81FPX1y0WDlsTKtDXDQB2FgI37Do6NK03WrHCt9mct7XAzQQLqzXC34k0POxfMqGAXS8vDdc+eHhBLphASJvh60QGGpxopdN6aAij4ZrOhKmPp9VSI9fPW69qdTEQsZvVUj+qVluJbRr0Dwub57C37WYvuYB3bRVqT11c7KFSMsuvoZv2wnOqxlr6OMrv8JS+8Xbixu/63O/uy1pVfnY81uUZ+fHleMMgTJ/VaCpoVcQprU7UnmcaQjrNVjoUL1gBmoadV+eD1lDgyCpVoZ2RslXRljdBbN7c7rQJY3U483pnCq092uqVgx6RBvtIS/sPAABrNDkzb/WbW9nX7ckH3ivvuv24q33dRqbH5PF73kdfNwDYQARuwC1IA447u1f/llSDrMMdeTlkTq9PhOXkVEQOmHBIh5uu1TUT3Gh/tdn84tvOnnDJmgn1WHdz39bmTcjjWxFs1SZEKNnkKlrpFfA2P5RxpVJ58dvlsLc+LGo3AdKd3ev/lvmunpw1NLlq/ms3gVRbg1C32cd5eG9KfD6dhTYmB0xYdfuexrfTIdh6enUiYpZFt2d9uDSZXqxK1B5out0i19fFqAlKhzvytverM8N6RYeeBqwJFPavmOTCjk5WUQu297b55anLbVZFZHd09YrKarV+49cC0IIJNP0NQregt2JNnLBSbX8Ket0d6gsAwGpqfd2O7O+TRDxy4/xaX7f//S/+TC6Nj0qrNHDTvm4fe8+ThG4AsEHo4QZgVRrFHO5cDK9S66gY1ObzOsupTnqglXJ6GksHZMqEKs32SJvLeiWxIpiKBRaDv9kVEw5oBVa25Llx+XpMZxd7iYU3oGdfT6xkTfKgw2vbXKqg1MkodGIAnezh4lzQNkha6d6+rFUBOubQT6/Wr02HUes2+4EJwtTSHm0r6aQO/eb56UypOmnDygq91dSq4fIrhnPqttAQdWUEpvtPeMXMrTrxhUqu0qNOQz6dXCO1YiKI2u1a2X8AAFgvDd3ePHvVtq/bH3z2c672dfuLp/9a3rp6VgAA7iNwA1BHi4Z0GGlttkn9++r1kCW2juo2DW500omPHE7eOH3g0Lz1BnQt1XjyBB2a+JYJb3Q2Uu0lt5QOjdU+Za9PRqxeYYvX98qLo1Hxeqom0Fp7zzmtbroyH5SzsyFrCOVOG1R4dE9eKlWPnJsLr3pdHc6rlWrlqv2z1CG/R/fklm03rbjTgK7SINDbZ7bT3PX+fGsJFCtm3V+YC1m/10Kzmj2RkhWO6XbReK16fTtpWNaxYlhyx/Wei6+Z/SJ7vd+iVuqtDBZ1WLUGeS+ORa3LVdrc32ta9Wdu3x4mcAMAbB3t63bh2mTd+drX7TO/8iFxQ75YkKdefVaeP/OqAADcxZBS4BakYZqelvrUsdkbv8/lfPLGVEReGo9a1UNlk31o2KHDFNfTc+3aQlAGYoW6fnhdsbI1PPGwzfDEp6/GzP9j1u/ay+toZ972etpg/+krMWtyB781RNBrzTz5wEDasYeZnTdMOKOnGm3+f1+/fb86DQn//FTnsvM0jNqIfn8rH0efl0564ER7qx1I5K3tq+vM62k8LPIdPTm5nKyfeVQr39ImrNrfVlz2vPS+35wKy2g6YFXo2Rkw5+vj7m1rbkjv35xLLPv7jq583bBlHaqqs9u+ZMKxV8cjVn81Deh0Qod97csfR6OzB816etbsQ986m7ixX4QCJvQdTor/+lBkHTL64FBafn4tKt98u8MK33Q/10kpHtqbpoMbAGDLjU7OyUwyvSl93abnZ+Sxu99n/r0MCgCgdZ4//uJXaVKDbecbpzusA9+1eOzAgjVRwlLPjUTlYjIk62UXoujwutWqslbSpvOt9Pxy00zWb9vzbOW60zBj1gRvmZLPKifSWTTjDQIlrQzSiji7vltTGb9Eg5W6yRm0OkmHfy6dMECrrXQ4Z03ABDexUKVhPy2t6JrRZTUBkV5vj1mGtfTf0uWrLZn2rdOeZiuHKdZoEJW3mb2yK1I2QV/jx6zNoLvHrEv/Ksun63KhUF+ErEHU0mXTyiytJusxz9mz4rxu8zjeJY+TK3msSsCV27o2scjSMFWHas6bx196vzXW9tTJL5YMt9VtWax6b8xkO2u2YSxYtWYBrT3vleuotpw1eplWxNV689nRfVKXV5dJ90ftBeg0uYJW4U1kA5I3zztk1pnuZ3brXWc1nbo+i64GlroPe0nbAADbiIZtdwwPSCyy/HPtVHLOtb5uSvu50dcNANxB4IZticANAAAAWG54qFsGejrrzv/K335Hvv/8T8UNWuH22D3vk+G+/QIAWD96uAEAAADADnDh2pRtX7fPvP9DrvZ1+94LT9HXDQBaROAGAAAAADuE9nV75fRlazbTpbSv2+c/+znp7ugQN2hftx+++qwVwAEA1o7ADQAAAAB2kEw2L2+cvVYXuu3vG5Df+8xnXQvdTl89K3/x9F/LQjYlAIC1IXADAAAAgB1Gw7YXT16U0cnZZed3JzrkC5/7b+TJ+98rbtCw7T/87PsyMj0mAIDmEbgBAAAAwA6lfd2ujE3Xna993X714cfFDVbo9vPv09cNANaAwA0AAAAAdrArYzO2fd0+/sjj8ruf+ceu9nV79uTz9HUDgCYQuAEAAADADufU1+3YgWFX+7q9duEkfd0AoAkEbgAAAACwC2jY9urpy7Z93T7/j39THr77PnFDra/b9PyMAADsEbgBAAAAwC5RKlds+7pFw2H5p//RJ1zt6/a1p/+avm4A4IDADQAAAAB2Ge3r9taFEdu+br/1Dz8t0VBY3FDr6wYAWI7ADQAAAAB2oZlk2rav27tuPyaf/ye/6Wpft6/R1w0AliFwAwAAAIBdqtbXbdqEb0vV+rq967Zj4obpdFL+6sqbMlXMCgCAwA0AAAAAdjXt63b6wohtX7ff+uSnW+/rFgxK5ehRmY9H5M8nz8hr6SkBgFsdgRsAAAAA3AJqfd00gFtK+7rphArr6usWj0vljjtEIpEbZz2dHJHnF8YFAG5lnj/+4lerAgAAAAC4JYSCAbnryJD1c6mp5Jx8/itflKm5uabup9rbK9WhIcfLD0Xa5YOdBwUAbkVUuAEAAADALUT7uulkCnZ93X7vM59dva+bzyfVvXsbhm3dgYg81D4oAHCr8n3wo//wfxQAAAAAwC2jXK7I9NyC9XsiHr1xvvZ1e/edd1u/v3X5Qv0NtV/bkSPmRgnH+74j2inv79wvUV9AAOBW5RcAAAAAwC1J+7ppT7d9/V3i990cAKV93WImfPvGT34omXxu8cxIRCqHDlmhm5OHEoNyT6xbAOBWRw83AAAAALjFrdbXbdKEbI2GkIY8PvngngMyFIoLAIAebgAAAABwy6v1dUumssvOt/q6/fo/k/133Ol42zZfUD7Ve5SwDQCWIHADAAAAAFih25tnr8qVsell53fH2+RfP/yEfOJo/WQK2q/tUz1HrdANAHATPdwAAAAAADfU+roND/UsO//jR49L1B+QPz31mvX3/W198oA5AQDqEbgBAAAAAJYZnZyTmWS6rq/bB4aPytGOLvnZ6fNyKJwQAIA9hpQCAAAAAOrU+rqls/ll582NJgnbAGAVVLgBAAAAAGxpwPbq6csyPNQtwWBQzl0es4abAgAaI3ADAAAAADR04dqUAACax5BSAAAAAAAAwEUEbgAAAAAAAICLCNwAAAAAAAAAFxG4AQAAAAAAAC4icAMAAAAAAABcROAGAAAAAAAAuIjADQAAAAAAAHARgRsAAAAAAADgIgI3AAAAAAAAwEUEbgAAAAAAAICLCNwAAAAAAAAAFxG4AQAAAAAAAC4icAMAAAAAAABcROAGAAAAAAAAuIjADQAAAAAAAHARgRsAAAAAAADgIgI3AAAAAAAAwEUEbgAAAAAAAICLCNwAAAAAAAAAFxG4AQAAAAAAAC4icAMAAAAAAABcROAGAAAAAAAAuIjADQAAAAAAAHARgRsAAAAAAADgIgI3AAAAAAAAwEUEbgAAAAAAAICLCNwAAAAAAAAAFxG4AQAAAAAAAC4icAMAAAAAAABcROAGAAAAAAAAuIjADQAAAAAAAHARgRsAAAAAAADgIgI3AAAAAAAAwEUEbgAAAAAAAICLCNwAAAAAAAAAFxG4AQAAAAAAAC4icAMAAAAAAABcROAGAAAAAAAAuIjADQAAAAAAAHARgRsAAAAAAADgIgI3AAAAAAAAwEUEbgAAAAAAAICLCNwAAAAAAAAAFxG4AQAAAAAAAC4icAMAAAAAAABcROAGAAAAAAAAuIjADQAAAAAAAHARgRsAAAAAAADgIgI3AAAAAAAAwEUEbgAAAAAAAICLCNwAAAAAAAAAFxG4AQAAAAAAAC4icAMAAAAAAABcROAGAAAAAAAAuIjADQAAAAAAAHARgRsAAAAAAADgIgI3AAAAAAAAwEUEbgAAAAAAAICLCNwAAAAAAAAAFxG4AQAAAAAAAC4icAMAAAAAAABc9P8DAoMP+g9IRBsAAAAASUVORK5CYII=;" vertex="1" parent="1">
                    <mxGeometry x="-680" y="8560" width="1244" height="250" as="geometry"/>
                </mxCell>
                <mxCell id="103" value="" style="edgeStyle=none;html=1;" edge="1" parent="1" source="104" target="108">
                    <mxGeometry relative="1" as="geometry"/>
                </mxCell>
                <mxCell id="104" value="Column" style="ellipse;whiteSpace=wrap;html=1;aspect=fixed;fillColor=#1ba1e2;fontColor=#ffffff;strokeColor=#006EAF;" vertex="1" parent="1">
                    <mxGeometry x="1161" y="8880" width="80" height="80" as="geometry"/>
                </mxCell>
                <mxCell id="105" value="" style="edgeStyle=none;html=1;" edge="1" parent="1" source="106" target="110">
                    <mxGeometry relative="1" as="geometry"/>
                </mxCell>
                <mxCell id="106" value="Column" style="ellipse;whiteSpace=wrap;html=1;aspect=fixed;fillColor=#1ba1e2;fontColor=#ffffff;strokeColor=#006EAF;" vertex="1" parent="1">
                    <mxGeometry x="1421" y="8880" width="80" height="80" as="geometry"/>
                </mxCell>
                <mxCell id="107" value="" style="edgeStyle=none;html=1;" edge="1" parent="1" source="108" target="111">
                    <mxGeometry relative="1" as="geometry"/>
                </mxCell>
                <mxCell id="108" value="Container" style="ellipse;whiteSpace=wrap;html=1;aspect=fixed;fillColor=#1ba1e2;fontColor=#ffffff;strokeColor=#006EAF;" vertex="1" parent="1">
                    <mxGeometry x="1161" y="9040" width="80" height="80" as="geometry"/>
                </mxCell>
                <mxCell id="109" value="" style="edgeStyle=none;html=1;" edge="1" parent="1" source="110" target="112">
                    <mxGeometry relative="1" as="geometry"/>
                </mxCell>
                <mxCell id="110" value="Container" style="ellipse;whiteSpace=wrap;html=1;aspect=fixed;fillColor=#1ba1e2;fontColor=#ffffff;strokeColor=#006EAF;" vertex="1" parent="1">
                    <mxGeometry x="1421" y="9040" width="80" height="80" as="geometry"/>
                </mxCell>
                <mxCell id="111" value="Image" style="ellipse;whiteSpace=wrap;html=1;aspect=fixed;fillColor=#1ba1e2;fontColor=#ffffff;strokeColor=#006EAF;" vertex="1" parent="1">
                    <mxGeometry x="1161" y="9200" width="80" height="80" as="geometry"/>
                </mxCell>
                <mxCell id="112" value="Image" style="ellipse;whiteSpace=wrap;html=1;aspect=fixed;fillColor=#1ba1e2;fontColor=#ffffff;strokeColor=#006EAF;" vertex="1" parent="1">
                    <mxGeometry x="1421" y="9200" width="80" height="80" as="geometry"/>
                </mxCell>
            </root>
        </mxGraphModel>
    </diagram>
</mxfile>